{
.appVersion = "3151";
.formatVersion = 3;
axes = (
{
name = Weight;
tag = wght;
}
);
customParameters = (
{
name = "Enforce Compatibility Check";
value = 1;
}
);
date = "2022-11-25 23:19:09 +0000";
familyName = Madurai;
featurePrefixes = (
{
code = "languagesystem DFLT dflt;

languagesystem tml2 dflt;";
name = Languagesystems;
},
{
code = "@list1 = [nga-tamil va-tamil];
@list1Sub = [nga-tamil.001 va-tamil];

@list2 = [iMatra-tamil];
@list2Sub = [iMatra-tamil.001];

lookup subSt {
	sub @list1 by @list1Sub;
	sub @list2 by @list2Sub;
} subSt;
";
name = lkup;
}
);
features = (
{
automatic = 1;
code = "feature akhn;
feature cjct;
feature psts;
";
tag = aalt;
},
{
code = "lookupflag 0;
script tml2;
lookup Akhn_tamil {
	sub ka-tamil pulli-tamil ssa-tamil by k_ssa-tamil;
	sub sha-tamil pulli-tamil ra-tamil iiMatra-tamil by sh_ra_iiMatra-tamil;
	sub sa-tamil pulli-tamil ra-tamil iiMatra-tamil by sh_ra_iiMatra-tamil;
} Akhn_tamil;
";
tag = akhn;
},
{
code = "script tml2;
lookup cjct_tamil {
	sub ka-tamil pulli-tamil ssa-tamil by k_ssa-tamil;
} cjct_tamil;
";
tag = cjct;
},
{
code = "script tml2;
sub [nga-tamil pa-tamil ya-tamil] uMatra-tamil' by uMatra-tamil.alt1;
sub [nya-tamil nna-tamil ta-tamil na-tamil nnna-tamil rra-tamil la-tamil]' uuMatra-tamil by [nya_uMatra-tamil nna_uMatra-tamil ta_uMatra-tamil na_uMatra-tamil nnna_uMatra-tamil rra_uMatra-tamil la_uMatra-tamil];
sub [nya_uMatra-tamil nna_uMatra-tamil ta_uMatra-tamil na_uMatra-tamil nnna_uMatra-tamil rra_uMatra-tamil la_uMatra-tamil] uuMatra-tamil' by uuMatra-tamil.alt1;

#uMatra ligatures
sub va-tamil uMatra-tamil by va_uMatra-tamil;
sub ka-tamil uMatra-tamil by ka_uMatra-tamil;
sub nga-tamil uMatra-tamil.alt1 by nga_uMatra-tamil;
sub nya-tamil uMatra-tamil by nya_uMatra-tamil;
sub na-tamil uMatra-tamil by na_uMatra-tamil;
sub ca-tamil uMatra-tamil by ca_uMatra-tamil;
sub pa-tamil uMatra-tamil.alt1 by pa_uMatra-tamil;
sub ya-tamil uMatra-tamil.alt1 by ya_uMatra-tamil;

glyphs = (
{
glyphname = "ka_uMatra-tamil";
layers = (
{
anchors = (
{
name = top;
pos = (360,600);
}
);
layerId = "F56F9D2B-A44F-43C6-93D8-497EB6405965";
shapes = (
{
closed = 1;
nodes = (
(331,-180,ls),
(483,-180,o),
(595,-68,o),
(595,84,cs),
(595,191,ls),
(595,272,o),
(596,375,o),
(434,390,cs),
(406,393,o),
(391,378,o),
(391,351,cs),
(391,326,o),
(405,313,o),
(432,310,cs),
(515,303,o),
(515,268,o),
(515,191,cs),
(515,84,ls),
(515,-30,o),
(445,-100,o),
(331,-100,cs),
(299,-100,ls),
(185,-100,o),
(115,-30,o),
(115,84,cs),
(115,556,ls),
(115,670,o),
(175,740,o),
(315,740,cs),
(419,740,o),
(510,701,o),
(510,600,c),
(590,600,l),
(590,768,o),
(454,820,o),
(315,820,cs),
(137,820,o),
(35,708,o),
(35,556,cs),
(35,84,ls),
(35,-68,o),
(147,-180,o),
(299,-180,cs)
);
},
{
closed = 1;
nodes = (
(375,-40,o),
(435,21,o),
(435,102,cs),
(435,350,ls),
(435,376,o),
(421,390,o),
(395,390,cs),
(287,390,ls),
(216,390,o),
(155,329,o),
(155,248,cs),
(155,102,ls),
(155,21,o),
(215,-40,o),
(295,-40,cs)
);
},
{
closed = 1;
nodes = (
(254,40,o),
(235,59,o),
(235,102,cs),
(235,248,ls),
(235,290,o),
(255,310,o),
(287,310,cs),
(355,310,l),
(355,102,ls),
(355,59,o),
(336,40,o),
(295,40,cs)
);
},
{
closed = 1;
nodes = (
(395,310,ls),
(421,310,o),
(435,324,o),
(435,350,cs),
(435,600,ls),
(435,626,o),
(421,640,o),
(395,640,cs),
(235,640,l),
(235,350,ls),
(235,324,o),
(249,310,o),
(275,310,cs)
);
},
{
closed = 1;
nodes = (
(315,560,l),
(355,560,l),
(355,390,l),
(315,390,l)
);
},
{
closed = 1;
nodes = (
(485,560,l),
(485,640,l),
(405,640,ls),
(379,640,o),
(365,626,o),
(365,600,cs),
(365,574,o),
(379,560,o),
(405,560,cs)
);
},
{
closed = 1;
nodes = (
(510,560,l),
(590,560,l),
(590,600,l),
(510,600,l)
);
}
);
width = 630;
}
);
metricLeft = "ca-tamil";
metricRight = "ca-tamil";
},
{
glyphname = "ka_uuMatra-tamil";
layers = (
{
anchors = (
{
name = imatra;
pos = (735,600);
},
{
name = top;
pos = (430,600);
}
);
layerId = "F56F9D2B-A44F-43C6-93D8-497EB6405965";
shapes = (
{
closed = 1;
nodes = (
(825,-40,l),
(825,40,l),
(425,40,ls),
(404,40,o),
(394,40,o),
(394,50,cs),
(394,60,o),
(404,60,o),
(425,60,cs),
(543,60,ls),
(626,60,o),
(695,129,o),
(695,225,cs),
(695,320,o),
(626,390,o),
(543,390,cs),
(315,390,ls),
(289,390,o),
(275,386,o),
(275,360,cs),
(275,334,o),
(289,330,o),
(315,330,cs),
(543,330,ls),
(587,330,o),
(615,282,o),
(615,225,cs),
(615,168,o),
(587,140,o),
(543,140,cs),
(425,140,ls),
(374,140,o),
(334,101,o),
(334,50,cs),
(334,-1,o),
(374,-40,o),
(425,-40,cs)
);
},
{
closed = 1;
nodes = (
(255,-40,o),
(315,10,o),
(315,122,cs),
(315,330,l),
(435,330,l),
(435,390,l),
(315,390,l),
(315,560,l),
(425,560,l),
(425,640,l),
(115,640,l),
(115,389,l),
(59,371,o),
(35,328,o),
(35,268,cs),
(35,102,ls),
(35,21,o),
(95,-40,o),
(175,-40,cs)
);
},
{
closed = 1;
nodes = (
(124,30,o),
(95,59,o),
(95,102,cs),
(95,268,ls),
(95,310,o),
(115,330,o),
(147,330,cs),
(235,330,l),
(235,122,ls),
(235,51,o),
(206,30,o),
(162,30,cs)
);
},
{
closed = 1;
nodes = (
(175,560,l),
(235,560,l),
(235,390,l),
(175,390,l)
);
},
{
closed = 1;
nodes = (
(513,120,o),
(545,154,o),
(545,242,cs),
(545,258,ls),
(545,343,o),
(510,380,o),
(440,380,cs),
(374,380,o),
(335,331,o),
(335,250,cs),
(335,169,o),
(364,120,o),
(440,120,cs)
);
},
{
closed = 1;
nodes = (
(395,170,o),
(385,190,o),
(385,222,cs),
(385,278,ls),
(385,310,o),
(395,330,o),
(420,330,cs),
(445,330,o),
(455,310,o),
(455,278,cs),
(455,222,ls),
(455,190,o),
(446,170,o),
(420,170,cs)
);
}
);
width = 860;
}
);
metricLeft = "ca-tamil";
metricRight = "ca-tamil";
},
{
glyphname = "nga_uMatra-tamil";
layers = (
{
anchors = (
{
name = imatra;
pos = (255,600);
},
{
name = top;
pos = (305,600);
}
);
layerId = "F56F9D2B-A44F-43C6-93D8-497EB6405965";
shapes = (
{
closed = 1;
nodes = (
(505,-300,l),
(585,-300,l),
(585,0,l),
(505,0,l)
);
},
{
closed = 1;
nodes = (
(585,-40,l),
(585,490,l),
(505,490,l),
(505,40,l),
(403,39,l),
(454,65,o),
(475,139,o),
(475,205,cs),
(475,338,o),
(435,385,o),
(366,385,cs),
(331,385,o),
(304,362,o),
(295,339,c),
(295,560,l),
(425,560,l),
(425,640,l),
(35,640,l),
(35,-40,l),
(115,-40,l),
(115,560,l),
(215,560,l),
(215,160,l),
(295,160,l),
(295,260,ls),
(295,295,o),
(319,315,o),
(341,315,cs),
(378,315,o),
(395,288,o),
(395,175,cs),
(395,95,o),
(362,40,o),
(277,38,c),
(277,-42,l)
);
}
);
width = 620;
}
);
metricLeft = "ca-tamil";
metricRight = "ca-tamil";
},
{
glyphname = "nga_uuMatra-tamil";
layers = (
{
anchors = (
{
name = imatra;
pos = (605,600);
},
{
name = top;
pos = (355,600);
}
);
layerId = "F56F9D2B-A44F-43C6-93D8-497EB6405965";
shapes = (
{
closed = 1;
nodes = (
(505,-60,l),
(585,-60,l),
(585,-40,l),
(505,-40,l)
);
},
{
closed = 1;
nodes = (
(585,-40,l),
(585,490,l),
(505,490,l),
(505,40,l),
(403,39,l),
(454,65,o),
(475,139,o),
(475,205,cs),
(475,338,o),
(435,385,o),
(366,385,cs),
(331,385,o),
(304,362,o),
(295,339,c),
(295,560,l),
(425,560,l),
(425,640,l),
(35,640,l),
(35,-40,l),
(115,-40,l),
(115,560,l),
(215,560,l),
(215,160,l),
(295,160,l),
(295,260,ls),
(295,295,o),
(319,315,o),
(341,315,cs),
(378,315,o),
(395,288,o),
(395,175,cs),
(395,95,o),
(362,40,o),
(277,38,c),
(277,-42,l)
);
},
{
closed = 1;
nodes = (
(520,-250,o),
(561,-209,o),
(561,-160,cs),
(561,-111,o),
(520,-70,o),
(471,-70,cs),
(422,-70,o),
(381,-111,o),
(381,-160,cs),
(381,-209,o),
(422,-250,o),
(471,-250,cs)
);
},
{
closed = 1;
nodes = (
(455,-190,o),
(441,-176,o),
(441,-160,cs),
(441,-143,o),
(455,-130,o),
(473,-130,cs),
(488,-130,o),
(501,-143,o),
(501,-160,cs),
(501,-176,o),
(488,-190,o),
(473,-190,cs)
);
},
{
closed = 1;
nodes = (
(534,-250,ls),
(654,-250,o),
(746,-177,o),
(746,-42,cs),
(746,29,o),
(705,81,o),
(646,81,cs),
(619,81,o),
(598,73,o),
(585,59,c),
(585,9,l),
(611,38,o),
(666,19,o),
(666,-62,cs),
(666,-134,o),
(611,-190,o),
(554,-190,cs),
(523,-190,l),
(471,-230,l),
(471,-250,l)
);
}
);
width = 781;
}
);
metricLeft = "ca-tamil";
metricRight = "ca-tamil";
},
{
glyphname = "ca_uMatra-tamil";
layers = (
{
anchors = (
{
name = top;
pos = (268,600);
}
);
layerId = "F56F9D2B-A44F-43C6-93D8-497EB6405965";
shapes = (
{
closed = 1;
nodes = (
(375,-40,o),
(455,-40,o),
(455,-40,cs),
(455,310,l),
(490,310,ls),
(490,310,o),
(490,390,o),
(490,390,cs),
(415,390,ls),
(389,390,o),
(375,376,o),
(375,350,cs),
(375,-40,ls)
);
},
{
closed = 1;
nodes = (
(255,-40,o),
(315,10,o),
(315,122,cs),
(315,310,l),
(455,310,l),
(455,390,l),
(315,390,l),
(315,560,l),
(425,560,l),
(425,640,l),
(115,640,l),
(115,369,l),
(59,351,o),
(35,308,o),
(35,248,cs),
(35,102,ls),
(35,21,o),
(95,-40,o),
(175,-40,cs)
);
},
{
closed = 1;
nodes = (
(124,30,o),
(95,59,o),
(95,102,cs),
(95,248,ls),
(95,290,o),
(115,310,o),
(147,310,cs),
(235,310,l),
(235,122,ls),
(235,51,o),
(206,30,o),
(162,30,cs)
);
},
{
closed = 1;
nodes = (
(175,560,l),
(235,560,l),
(235,390,l),
(175,390,l)
);
}
);
width = 525;
}
);
metricLeft = "ca-tamil";
metricRight = "ca-tamil";
},
{
glyphname = "ca_uuMatra-tamil";
layers = (
{
anchors = (
{
name = imatra;
pos = (445,600);
},
{
name = top;
pos = (270,600);
}
);
layerId = "F56F9D2B-A44F-43C6-93D8-497EB6405965";
shapes = (
{
closed = 1;
nodes = (
(375,-40,o),
(455,-40,o),
(455,-40,cs),
(455,310,l),
(490,310,ls),
(490,310,o),
(490,390,o),
(490,390,cs),
(415,390,ls),
(389,390,o),
(375,376,o),
(375,350,cs),
(375,-40,ls)
);
},
{
closed = 1;
nodes = (
(255,-40,o),
(315,10,o),
(315,122,cs),
(315,310,l),
(455,310,l),
(455,390,l),
(315,390,l),
(315,560,l),
(425,560,l),
(425,640,l),
(115,640,l),
(115,369,l),
(59,351,o),
(35,308,o),
(35,248,cs),
(35,102,ls),
(35,21,o),
(95,-40,o),
(175,-40,cs)
);
},
{
closed = 1;
nodes = (
(124,30,o),
(95,59,o),
(95,102,cs),
(95,248,ls),
(95,290,o),
(115,310,o),
(147,310,cs),
(235,310,l),
(235,122,ls),
(235,51,o),
(206,30,o),
(162,30,cs)
);
},
{
closed = 1;
nodes = (
(175,560,l),
(235,560,l),
(235,390,l),
(175,390,l)
);
},
{
closed = 1;
nodes = (
(390,-250,o),
(431,-209,o),
(431,-160,cs),
(431,-111,o),
(390,-70,o),
(341,-70,cs),
(292,-70,o),
(251,-111,o),
(251,-160,cs),
(251,-209,o),
(292,-250,o),
(341,-250,cs)
);
},
{
closed = 1;
nodes = (
(325,-190,o),
(311,-176,o),
(311,-160,cs),
(311,-143,o),
(325,-130,o),
(343,-130,cs),
(358,-130,o),
(371,-143,o),
(371,-160,cs),
(371,-176,o),
(358,-190,o),
(343,-190,cs)
);
},
{
closed = 1;
nodes = (
(404,-250,ls),
(524,-250,o),
(616,-177,o),
(616,-42,cs),
(616,29,o),
(575,81,o),
(516,81,cs),
(489,81,o),
(468,73,o),
(455,59,c),
(455,9,l),
(481,38,o),
(536,19,o),
(536,-62,cs),
(536,-134,o),
(481,-190,o),
(424,-190,cs),
(393,-190,l),
(341,-230,l),
(341,-250,l)
);
}
);
width = 651;
}
);
metricLeft = "ca-tamil";
metricRight = "ca-tamil";
},
{
glyphname = "nya_uMatra-tamil";
layers = (
{
anchors = (
{
name = imatra;
pos = (645,600);
},
{
name = top;
pos = (365,600);
}
);
layerId = "F56F9D2B-A44F-43C6-93D8-497EB6405965";
shapes = (
{
closed = 1;
nodes = (
(250,-261,o),
(195,-206,o),
(195,-117,cs),
(195,-100,l),
(525,-100,l),
(525,-117,ls),
(525,-206,o),
(470,-261,o),
(381,-261,cs),
(339,-261,ls)
);
},
{
closed = 1;
nodes = (
(425,260,l),
(425,295,o),
(435,315,o),
(471,315,cs),
(508,315,o),
(525,288,o),
(525,176,cs),
(525,-20,l),
(115,-20,l),
(115,-117,ls),
(115,-245,o),
(211,-341,o),
(339,-341,cs),
(381,-341,ls),
(509,-341,o),
(605,-245,o),
(605,-117,cs),
(605,-100,l),
(735,-100,l),
(735,490,l),
(655,490,l),
(655,-20,l),
(605,-20,l),
(605,176,l),
(605,205,ls),
(605,338,o),
(565,385,o),
(496,385,cs),
(461,385,o),
(434,362,o),
(425,339,c)
);
},
{
closed = 1;
nodes = (
(425,50,l),
(425,600,ls),
(425,626,o),
(411,640,o),
(385,640,cs),
(299,640,ls),
(122,640,o),
(35,546,o),
(35,366,cs),
(35,170,l),
(95,170,l),
(95,366,ls),
(95,486,o),
(149,560,o),
(259,560,cs),
(345,560,l),
(345,50,l)
);
},
{
closed = 1;
nodes = (
(505,560,l),
(505,640,l),
(365,640,ls),
(339,640,o),
(325,626,o),
(325,600,cs),
(325,574,o),
(339,560,o),
(365,560,cs)
);
},
{
closed = 1;
nodes = (
(205,40,o),
(245,87,o),
(245,162,cs),
(245,188,ls),
(245,273,o),
(210,310,o),
(140,310,cs),
(74,310,o),
(35,246,o),
(35,178,cs),
(35,162,ls),
(35,87,o),
(75,40,o),
(140,40,cs)
);
},
{
closed = 1;
nodes = (
(105,100,o),
(95,120,o),
(95,152,cs),
(95,198,ls),
(95,230,o),
(105,250,o),
(130,250,cs),
(155,250,o),
(165,230,o),
(165,198,cs),
(165,152,ls),
(165,120,o),
(156,100,o),
(130,100,cs)
);
}
);
width = 770;
}
);
metricLeft = "ca-tamil";
metricRight = "ca-tamil";
},
{
glyphname = "nya_uuMatra-tamil";
layers = (
{
anchors = (
{
name = imatra;
pos = (645,600);
},
{
name = top;
pos = (365,600);
}
);
layerId = "F56F9D2B-A44F-43C6-93D8-497EB6405965";
shapes = (
{
closed = 1;
nodes = (
(655,-40,o),
(735,-40,o),
(735,-40,cs),
(735,560,l),
(835,560,l),
(835,-40,l),
(915,-40,l),
(915,560,l),
(985,560,l),
(985,640,l),
(655,640,l),
(655,-40,l)
);
},
{
closed = 1;
nodes = (
(250,-261,o),
(195,-206,o),
(195,-117,cs),
(195,-100,l),
(525,-100,l),
(525,-117,ls),
(525,-206,o),
(470,-261,o),
(381,-261,cs),
(339,-261,ls)
);
},
{
closed = 1;
nodes = (
(425,260,l),
(425,295,o),
(435,315,o),
(471,315,cs),
(508,315,o),
(525,288,o),
(525,176,cs),
(525,-20,l),
(115,-20,l),
(115,-117,ls),
(115,-245,o),
(211,-341,o),
(339,-341,cs),
(381,-341,ls),
(509,-341,o),
(605,-245,o),
(605,-117,cs),
(605,-100,l),
(735,-100,l),
(735,490,l),
(655,490,l),
(655,-20,l),
(605,-20,l),
(605,176,l),
(605,205,ls),
(605,338,o),
(565,385,o),
(496,385,cs),
(461,385,o),
(434,362,o),
(425,339,c)
);
},
{
closed = 1;
nodes = (
(425,50,l),
(425,600,ls),
(425,626,o),
(411,640,o),
(385,640,cs),
(299,640,ls),
(122,640,o),
(35,546,o),
(35,366,cs),
(35,170,l),
(95,170,l),
(95,366,ls),
(95,486,o),
(149,560,o),
(259,560,cs),
(345,560,l),
(345,50,l)
);
},
{
closed = 1;
nodes = (
(505,560,l),
(505,640,l),
(365,640,ls),
(339,640,o),
(325,626,o),
(325,600,cs),
(325,574,o),
(339,560,o),
(365,560,cs)
);
},
{
closed = 1;
nodes = (
(205,40,o),
(245,87,o),
(245,162,cs),
(245,188,ls),
(245,273,o),
(210,310,o),
(140,310,cs),
(74,310,o),
(35,246,o),
(35,178,cs),
(35,162,ls),
(35,87,o),
(75,40,o),
(140,40,cs)
);
},
{
closed = 1;
nodes = (
(105,100,o),
(95,120,o),
(95,152,cs),
(95,198,ls),
(95,230,o),
(105,250,o),
(130,250,cs),
(155,250,o),
(165,230,o),
(165,198,cs),
(165,152,ls),
(165,120,o),
(156,100,o),
(130,100,cs)
);
}
);
width = 1020;
}
);
metricLeft = "ca-tamil";
metricRight = "ca-tamil";
},
{
glyphname = "tta_iMatra-tamil";
layers = (
{
anchors = (
{
name = imatra;
pos = (355,600);
},
{
name = top;
pos = (225,600);
}
);
layerId = "F56F9D2B-A44F-43C6-93D8-497EB6405965";
shapes = (
{
closed = 1;
nodes = (
(435,-40,l),
(435,40,l),
(115,40,l),
(115,600,l),
(35,600,l),
(35,-40,l)
);
},
{
closed = 1;
nodes = (
(385,-300,l),
(385,-40,l),
(425,-40,l),
(425,40,l),
(385,40,l),
(385,198,ls),
(385,268,o),
(333,320,o),
(265,320,cs),
(197,320,o),
(145,268,o),
(145,198,cs),
(145,102,ls),
(145,60,o),
(159,44,o),
(172,40,c),
(165,40,ls),
(165,40,o),
(165,-40,o),
(165,-40,cs),
(305,-40,l),
(305,-300,l)
);
},
{
closed = 1;
nodes = (
(225,208,ls),
(225,243,o),
(238,260,o),
(265,260,cs),
(292,260,o),
(305,243,o),
(305,208,cs),
(305,40,l),
(259,40,ls),
(235,40,o),
(225,50,o),
(225,82,cs)
);
}
);
width = 470;
}
);
metricLeft = "ca-tamil";
metricRight = "ca-tamil";
},
{
glyphname = "tta_iiMatra-tamil";
layers = (
{
anchors = (
{
name = imatra;
pos = (355,600);
},
{
name = top;
pos = (225,600);
}
);
layerId = "F56F9D2B-A44F-43C6-93D8-497EB6405965";
shapes = (
{
closed = 1;
nodes = (
(415,-40,l),
(415,40,l),
(285,40,ls),
(251,40,o),
(236,58,o),
(236,102,cs),
(236,165,l),
(247,162,o),
(259,160,o),
(271,160,cs),
(339,160,o),
(386,214,o),
(386,282,cs),
(386,318,ls),
(386,386,o),
(337,440,o),
(271,440,cs),
(205,440,o),
(157,386,o),
(156,318,cs),
(154,112,ls),
(154,60,o),
(164,43,o),
(186,40,c),
(115,40,l),
(115,600,ls),
(115,600,o),
(35,600,o),
(35,600,c),
(35,-40,l)
);
},
{
closed = 1;
nodes = (
(236,323,ls),
(236,355,o),
(246,375,o),
(271,375,cs),
(296,375,o),
(306,355,o),
(306,323,cs),
(306,277,ls),
(306,245,o),
(297,225,o),
(271,225,cs),
(246,225,o),
(236,245,o),
(236,277,cs)
);
}
);
width = 450;
}
);
metricLeft = "ca-tamil";
metricRight = "ca-tamil";
},
{
glyphname = "tta_uMatra-tamil";
layers = (
{
anchors = (
{
name = imatra;
pos = (445,600);
},
{
name = top;
pos = (285,600);
}
);
layerId = "F56F9D2B-A44F-43C6-93D8-497EB6405965";
shapes = (
{
closed = 1;
nodes = (
(325,184,l),
(325,323,o),
(325,461,o),
(325,600,c),
(245,600,l),
(245,184,l)
);
},
{
closed = 1;
nodes = (
(245,124,l),
(325,124,l),
(325,184,l),
(245,184,l)
);
},
{
closed = 1;
nodes = (
(535,133,l),
(535,195,ls),
(535,338,o),
(465,385,o),
(406,385,cs),
(361,385,o),
(330,355,o),
(325,329,c),
(325,303,o),
(325,302,o),
(325,260,c),
(325,260,o),
(324,315,o),
(381,315,cs),
(418,315,o),
(455,288,o),
(455,166,cs),
(455,133,l)
);
},
{
closed = 1;
nodes = (
(455,133,l),
(455,113,ls),
(455,-47,o),
(413,-100,o),
(285,-100,cs),
(158,-100,o),
(115,-47,o),
(115,113,cs),
(115,577,ls),
(115,668,o),
(177,740,o),
(285,740,cs),
(393,740,o),
(455,668,o),
(455,577,cs),
(455,560,l),
(535,560,l),
(535,577,ls),
(535,707,o),
(432,820,o),
(285,820,cs),
(138,820,o),
(35,707,o),
(35,577,cs),
(35,113,ls),
(35,-83,o),
(118,-180,o),
(285,-180,cs),
(452,-180,o),
(535,-83,o),
(535,113,cs),
(535,133,l)
);
}
);
width = 570;
}
);
metricLeft = "ca-tamil";
metricRight = "ca-tamil";
},
{
glyphname = "tta_uuMatra-tamil";
layers = (
{
anchors = (
{
name = imatra;
pos = (435,600);
},
{
name = top;
pos = (275,600);
}
);
layerId = "F56F9D2B-A44F-43C6-93D8-497EB6405965";
shapes = (
{
closed = 1;
nodes = (
(535,133,l),
(535,195,ls),
(535,338,o),
(465,385,o),
(406,385,cs),
(361,385,o),
(330,355,o),
(325,329,c),
(325,260,l),
(325,260,o),
(324,315,o),
(381,315,cs),
(418,315,o),
(455,288,o),
(455,166,cs),
(455,133,l)
);
},
{
closed = 1;
nodes = (
(325,124,l),
(325,184,l),
(245,184,l),
(245,124,l)
);
},
{
closed = 1;
nodes = (
(535,560,l),
(535,577,ls),
(535,707,o),
(432,820,o),
(285,820,cs),
(138,820,o),
(35,707,o),
(35,577,cs),
(35,113,ls),
(35,-75,o),
(125,-180,o),
(285,-180,cs),
(445,-180,o),
(535,-75,o),
(535,113,cs),
(535,133,l),
(455,133,l),
(455,113,ls),
(455,-35,o),
(403,-100,o),
(285,-100,cs),
(167,-100,o),
(115,-35,o),
(115,113,cs),
(115,577,ls),
(115,668,o),
(177,740,o),
(285,740,cs),
(373,740,o),
(431,692,o),
(449,624,c)
);
},
{
closed = 1;
nodes = (
(325,184,l),
(325,600,l),
(245,600,l),
(245,184,l)
);
},
{
closed = 1;
nodes = (
(494,470,o),
(535,511,o),
(535,560,cs),
(535,609,o),
(494,650,o),
(445,650,cs),
(396,650,o),
(355,609,o),
(355,560,cs),
(355,511,o),
(396,470,o),
(445,470,cs)
);
},
{
closed = 1;
nodes = (
(429,530,o),
(415,544,o),
(415,560,cs),
(415,577,o),
(429,590,o),
(447,590,cs),
(462,590,o),
(475,577,o),
(475,560,cs),
(475,544,o),
(462,530,o),
(447,530,cs)
);
}
);
width = 570;
}
);
metricLeft = "ca-tamil";
metricRight = "ca-tamil";
},
{
glyphname = "nna_uMatra-tamil";
layers = (
{
anchors = (
{
name = imatra;
pos = (1132,600);
},
{
name = top;
pos = (659,600);
}
);
layerId = "F56F9D2B-A44F-43C6-93D8-497EB6405965";
shapes = (
{
closed = 1;
nodes = (
(807,-341,ls),
(935,-341,o),
(1031,-245,o),
(1031,-130,c),
(1191,-130,l),
(1191,490,l),
(1111,490,l),
(1111,-50,l),
(1031,-50,l),
(1031,448,ls),
(1031,571,o),
(962,640,o),
(849,640,c),
(849,560,l),
(923,560,o),
(951,532,o),
(951,448,cs),
(951,-50,l),
(408,-50,l),
(408,-147,ls),
(408,-245,o),
(504,-341,o),
(632,-341,cs)
);
},
{
closed = 1;
nodes = (
(543,-261,o),
(488,-206,o),
(488,-130,c),
(951,-130,l),
(951,-206,o),
(897,-261,o),
(807,-261,cs),
(632,-261,ls)
);
},
{
closed = 1;
nodes = (
(506,-40,o),
(562,16,o),
(562,89,cs),
(562,491,ls),
(562,564,o),
(507,640,o),
(436,640,cs),
(363,640,o),
(307,564,o),
(307,491,cs),
(307,89,ls),
(307,16,o),
(361,-40,o),
(434,-40,cs)
);
},
{
closed = 1;
nodes = (
(399,20,o),
(387,42,o),
(387,109,cs),
(387,491,ls),
(387,539,o),
(402,560,o),
(436,560,cs),
(468,560,o),
(482,539,o),
(482,491,cs),
(482,109,ls),
(482,42,o),
(470,20,o),
(434,20,cs)
);
},
{
closed = 1;
nodes = (
(796,-40,o),
(852,16,o),
(852,89,cs),
(852,491,ls),
(852,564,o),
(797,640,o),
(726,640,cs),
(653,640,o),
(597,564,o),
(597,491,cs),
(597,89,ls),
(597,16,o),
(652,-40,o),
(724,-40,cs)
);
},
{
closed = 1;
nodes = (
(689,20,o),
(677,42,o),
(677,109,cs),
(677,491,ls),
(677,539,o),
(692,560,o),
(726,560,cs),
(758,560,o),
(772,539,o),
(772,491,cs),
(772,109,ls),
(772,42,o),
(760,20,o),
(724,20,cs)
);
},
{
closed = 1;
nodes = (
(180,14,l),
(101,14,o),
(104,62,o),
(104,102,cs),
(105,346,ls),
(106,506,o),
(179,560,o),
(299,560,cs),
(849,560,l),
(849,640,l),
(289,640,ls),
(131,640,o),
(35,544,o),
(35,346,cs),
(35,128,ls),
(35,19,o),
(101,-40,o),
(180,-40,c)
);
},
{
closed = 1;
nodes = (
(245,-40,o),
(285,7,o),
(285,82,cs),
(285,108,ls),
(285,193,o),
(250,230,o),
(180,230,cs),
(114,230,o),
(75,166,o),
(75,98,cs),
(75,82,ls),
(75,4,o),
(104,-40,o),
(180,-40,cs)
);
},
{
closed = 1;
nodes = (
(135,20,o),
(125,40,o),
(125,72,cs),
(125,118,ls),
(125,150,o),
(135,170,o),
(160,170,cs),
(185,170,o),
(195,150,o),
(195,118,cs),
(195,72,ls),
(195,40,o),
(186,20,o),
(160,20,cs)
);
}
);
width = 1226;
}
);
metricLeft = "ca-tamil";
metricRight = "ca-tamil";
},
{
glyphname = "nna_uuMatra-tamil";
layers = (
{
anchors = (
{
name = imatra;
pos = (1132,600);
},
{
name = top;
pos = (659,600);
}
);
layerId = "F56F9D2B-A44F-43C6-93D8-497EB6405965";
shapes = (
{
closed = 1;
nodes = (
(1111,-40,o),
(1191,-40,o),
(1191,-40,cs),
(1191,560,l),
(1291,560,l),
(1291,-40,l),
(1371,-40,l),
(1371,560,l),
(1441,560,l),
(1441,640,l),
(1111,640,l),
(1111,-40,l)
);
},
{
closed = 1;
nodes = (
(807,-341,ls),
(935,-341,o),
(1031,-245,o),
(1031,-130,c),
(1191,-130,l),
(1191,490,l),
(1111,490,l),
(1111,-50,l),
(1031,-50,l),
(1031,448,ls),
(1031,571,o),
(962,640,o),
(849,640,c),
(849,560,l),
(923,560,o),
(951,532,o),
(951,448,cs),
(951,-50,l),
(408,-50,l),
(408,-147,ls),
(408,-245,o),
(504,-341,o),
(632,-341,cs)
);
},
{
closed = 1;
nodes = (
(543,-261,o),
(488,-206,o),
(488,-130,c),
(951,-130,l),
(951,-206,o),
(897,-261,o),
(807,-261,cs),
(632,-261,ls)
);
},
{
closed = 1;
nodes = (
(506,-40,o),
(562,16,o),
(562,89,cs),
(562,491,ls),
(562,564,o),
(507,640,o),
(436,640,cs),
(363,640,o),
(307,564,o),
(307,491,cs),
(307,89,ls),
(307,16,o),
(361,-40,o),
(434,-40,cs)
);
},
{
closed = 1;
nodes = (
(399,20,o),
(387,42,o),
(387,109,cs),
(387,491,ls),
(387,539,o),
(402,560,o),
(436,560,cs),
(468,560,o),
(482,539,o),
(482,491,cs),
(482,109,ls),
(482,42,o),
(470,20,o),
(434,20,cs)
);
},
{
closed = 1;
nodes = (
(796,-40,o),
(852,16,o),
(852,89,cs),
(852,491,ls),
(852,564,o),
(797,640,o),
(726,640,cs),
(653,640,o),
(597,564,o),
(597,491,cs),
(597,89,ls),
(597,16,o),
(652,-40,o),
(724,-40,cs)
);
},
{
closed = 1;
nodes = (
(689,20,o),
(677,42,o),
(677,109,cs),
(677,491,ls),
(677,539,o),
(692,560,o),
(726,560,cs),
(758,560,o),
(772,539,o),
(772,491,cs),
(772,109,ls),
(772,42,o),
(760,20,o),
(724,20,cs)
);
},
{
closed = 1;
nodes = (
(180,14,l),
(101,14,o),
(104,62,o),
(104,102,cs),
(105,346,ls),
(106,506,o),
(179,560,o),
(299,560,cs),
(849,560,l),
(849,640,l),
(289,640,ls),
(131,640,o),
(35,544,o),
(35,346,cs),
(35,128,ls),
(35,19,o),
(101,-40,o),
(180,-40,c)
);
},
{
closed = 1;
nodes = (
(245,-40,o),
(285,7,o),
(285,82,cs),
(285,108,ls),
(285,193,o),
(250,230,o),
(180,230,cs),
(114,230,o),
(75,166,o),
(75,98,cs),
(75,82,ls),
(75,4,o),
(104,-40,o),
(180,-40,cs)
);
},
{
closed = 1;
nodes = (
(135,20,o),
(125,40,o),
(125,72,cs),
(125,118,ls),
(125,150,o),
(135,170,o),
(160,170,cs),
(185,170,o),
(195,150,o),
(195,118,cs),
(195,72,ls),
(195,40,o),
(186,20,o),
(160,20,cs)
);
}
);
width = 1476;
}
);
metricLeft = "ca-tamil";
metricRight = "ca-tamil";
},
{
glyphname = "ta_uMatra-tamil";
layers = (
{
anchors = (
{
name = imatra;
pos = (514,600);
},
{
name = top;
pos = (305,600);
}
);
layerId = "F56F9D2B-A44F-43C6-93D8-497EB6405965";
shapes = (
{
closed = 1;
nodes = (
(256,-341,ls),
(381,-341,o),
(474,-248,o),
(474,-123,cs),
(474,145,l),
(394,145,l),
(394,-123,ls),
(394,-210,o),
(343,-261,o),
(256,-261,cs),
(253,-261,ls),
(167,-261,o),
(115,-210,o),
(115,-123,cs),
(115,-100,l),
(604,-100,l),
(604,462,l),
(524,462,l),
(524,-20,l),
(35,-20,l),
(35,-123,ls),
(35,-248,o),
(128,-341,o),
(253,-341,cs)
);
},
{
closed = 1;
nodes = (
(474,145,l),
(474,311,o),
(443,386,o),
(315,390,c),
(315,560,l),
(404,560,l),
(404,640,l),
(115,640,l),
(115,379,l),
(69,370,o),
(35,308,o),
(35,248,cs),
(35,132,ls),
(35,51,o),
(95,-10,o),
(175,-10,cs),
(255,-10,o),
(315,51,o),
(315,132,cs),
(315,310,l),
(377,307,o),
(394,285,o),
(394,145,c)
);
},
{
closed = 1;
nodes = (
(95,248,ls),
(95,290,o),
(114,310,o),
(147,310,cs),
(235,310,l),
(235,142,ls),
(235,89,o),
(206,60,o),
(165,60,cs),
(124,60,o),
(95,89,o),
(95,132,cs)
);
},
{
closed = 1;
nodes = (
(175,560,l),
(235,560,l),
(235,400,l),
(175,400,l)
);
}
);
width = 639;
}
);
metricLeft = "ca-tamil";
metricRight = "ca-tamil";
},
{
glyphname = "ta_uuMatra-tamil";
layers = (
{
anchors = (
{
name = imatra;
pos = (514,600);
},
{
name = top;
pos = (305,600);
}
);
layerId = "F56F9D2B-A44F-43C6-93D8-497EB6405965";
shapes = (
{
closed = 1;
nodes = (
(524,-40,o),
(604,-40,o),
(604,-40,cs),
(604,560,l),
(704,560,l),
(704,-40,l),
(784,-40,l),
(784,560,l),
(854,560,l),
(854,640,l),
(524,640,l),
(524,-40,l)
);
},
{
closed = 1;
nodes = (
(256,-341,ls),
(381,-341,o),
(474,-248,o),
(474,-123,cs),
(474,145,l),
(394,145,l),
(394,-123,ls),
(394,-210,o),
(343,-261,o),
(256,-261,cs),
(253,-261,ls),
(167,-261,o),
(115,-210,o),
(115,-123,cs),
(115,-100,l),
(604,-100,l),
(604,462,l),
(524,462,l),
(524,-20,l),
(35,-20,l),
(35,-123,ls),
(35,-248,o),
(128,-341,o),
(253,-341,cs)
);
},
{
closed = 1;
nodes = (
(474,145,l),
(474,311,o),
(443,386,o),
(315,390,c),
(315,560,l),
(404,560,l),
(404,640,l),
(115,640,l),
(115,379,l),
(69,370,o),
(35,308,o),
(35,248,cs),
(35,132,ls),
(35,51,o),
(95,-10,o),
(175,-10,cs),
(255,-10,o),
(315,51,o),
(315,132,cs),
(315,310,l),
(377,307,o),
(394,285,o),
(394,145,c)
);
},
{
closed = 1;
nodes = (
(95,248,ls),
(95,290,o),
(114,310,o),
(147,310,cs),
(235,310,l),
(235,142,ls),
(235,89,o),
(206,60,o),
(165,60,cs),
(124,60,o),
(95,89,o),
(95,132,cs)
);
},
{
closed = 1;
nodes = (
(175,560,l),
(235,560,l),
(235,400,l),
(175,400,l)
);
}
);
width = 889;
}
);
metricLeft = "ca-tamil";
metricRight = "ca-tamil";
},
{
glyphname = "na_uMatra-tamil";
layers = (
{
anchors = (
{
name = imatra;
pos = (515,600);
},
{
name = top;
pos = (305,600);
}
);
layerId = "F56F9D2B-A44F-43C6-93D8-497EB6405965";
shapes = (
{
closed = 1;
nodes = (
(257,-341,ls),
(382,-341,o),
(475,-248,o),
(475,-123,cs),
(475,176,l),
(395,176,l),
(395,-123,ls),
(395,-210,o),
(344,-261,o),
(257,-261,cs),
(254,-261,ls),
(168,-261,o),
(116,-210,o),
(116,-123,cs),
(116,-100,l),
(605,-100,l),
(605,462,l),
(525,462,l),
(525,-20,l),
(36,-20,l),
(36,-123,l),
(36,-248,o),
(129,-341,o),
(254,-341,cs)
);
},
{
closed = 1;
nodes = (
(475,176,l),
(475,186,o),
(475,195,o),
(475,205,cs),
(475,338,o),
(435,385,o),
(366,385,cs),
(331,385,o),
(304,362,o),
(295,339,c),
(295,560,l),
(425,560,l),
(425,640,l),
(35,640,l),
(35,40,l),
(115,40,l),
(115,560,l),
(215,560,l),
(215,110,l),
(295,110,l),
(295,260,ls),
(295,295,o),
(305,315,o),
(341,315,cs),
(378,315,o),
(395,288,o),
(395,176,c)
);
}
);
width = 640;
}
);
metricLeft = "ca-tamil";
metricRight = "ca-tamil";
},
{
glyphname = "na_uuMatra-tamil";
layers = (
{
anchors = (
{
name = imatra;
pos = (515,600);
},
{
name = top;
pos = (305,600);
}
);
layerId = "F56F9D2B-A44F-43C6-93D8-497EB6405965";
shapes = (
{
closed = 1;
nodes = (
(525,-40,o),
(605,-40,o),
(605,-40,cs),
(605,560,l),
(705,560,l),
(705,-40,l),
(785,-40,l),
(785,560,l),
(855,560,l),
(855,640,l),
(525,640,l),
(525,-40,l)
);
},
{
closed = 1;
nodes = (
(257,-341,ls),
(382,-341,o),
(475,-248,o),
(475,-123,cs),
(475,176,l),
(395,176,l),
(395,-123,ls),
(395,-210,o),
(344,-261,o),
(257,-261,cs),
(254,-261,ls),
(168,-261,o),
(116,-210,o),
(116,-123,cs),
(116,-100,l),
(605,-100,l),
(605,462,l),
(525,462,l),
(525,-20,l),
(36,-20,l),
(36,-123,l),
(36,-248,o),
(129,-341,o),
(254,-341,cs)
);
},
{
closed = 1;
nodes = (
(475,176,l),
(475,186,o),
(475,195,o),
(475,205,cs),
(475,338,o),
(435,385,o),
(366,385,cs),
(331,385,o),
(304,362,o),
(295,339,c),
(295,560,l),
(425,560,l),
(425,640,l),
(35,640,l),
(35,40,l),
(115,40,l),
(115,560,l),
(215,560,l),
(215,110,l),
(295,110,l),
(295,260,ls),
(295,295,o),
(305,315,o),
(341,315,cs),
(378,315,o),
(395,288,o),
(395,176,c)
);
}
);
width = 890;
}
);
metricLeft = "ca-tamil";
metricRight = "ca-tamil";
},
{
glyphname = "nnna_uMatra-tamil";
layers = (
{
anchors = (
{
name = imatra;
pos = (602,600);
},
{
name = top;
pos = (129,600);
}
);
layerId = "F56F9D2B-A44F-43C6-93D8-497EB6405965";
shapes = (
{
closed = 1;
nodes = (
(517,-341,ls),
(645,-341,o),
(741,-245,o),
(741,-130,c),
(901,-130,l),
(901,490,l),
(821,490,l),
(821,-50,l),
(741,-50,l),
(741,448,ls),
(741,571,o),
(672,640,o),
(559,640,c),
(559,560,l),
(633,560,o),
(661,532,o),
(661,448,cs),
(661,-50,l),
(118,-50,l),
(118,-147,ls),
(118,-245,o),
(214,-341,o),
(342,-341,cs)
);
},
{
closed = 1;
nodes = (
(253,-261,o),
(198,-206,o),
(198,-130,c),
(661,-130,l),
(661,-206,o),
(607,-261,o),
(517,-261,cs),
(342,-261,ls)
);
},
{
closed = 1;
nodes = (
(506,-40,o),
(562,16,o),
(562,89,cs),
(562,491,ls),
(562,564,o),
(507,640,o),
(436,640,cs),
(363,640,o),
(307,564,o),
(307,491,cs),
(307,89,ls),
(307,16,o),
(362,-40,o),
(434,-40,cs)
);
},
{
closed = 1;
nodes = (
(399,20,o),
(387,42,o),
(387,109,cs),
(387,491,ls),
(387,539,o),
(402,560,o),
(436,560,cs),
(468,560,o),
(482,539,o),
(482,491,cs),
(482,109,ls),
(482,42,o),
(470,20,o),
(434,20,cs)
);
},
{
closed = 1;
nodes = (
(180,14,l),
(101,14,o),
(105,62,o),
(105,102,cs),
(105,346,ls),
(105,506,o),
(179,560,o),
(299,560,cs),
(559,560,l),
(559,640,l),
(289,640,ls),
(131,640,o),
(35,544,o),
(35,346,cs),
(35,128,ls),
(35,19,o),
(101,-40,o),
(180,-40,c)
);
},
{
closed = 1;
nodes = (
(245,-40,o),
(285,7,o),
(285,82,cs),
(285,108,ls),
(285,193,o),
(250,230,o),
(180,230,cs),
(114,230,o),
(75,166,o),
(75,98,cs),
(75,82,ls),
(75,4,o),
(104,-40,o),
(180,-40,cs)
);
},
{
closed = 1;
nodes = (
(135,20,o),
(125,40,o),
(125,72,cs),
(125,118,ls),
(125,150,o),
(135,170,o),
(160,170,cs),
(185,170,o),
(195,150,o),
(195,118,cs),
(195,72,ls),
(195,40,o),
(186,20,o),
(160,20,cs)
);
}
);
width = 936;
}
);
metricLeft = "ca-tamil";
metricRight = "ca-tamil";
},
{
glyphname = "nnna_uuMatra-tamil";
layers = (
{
anchors = (
{
name = imatra;
pos = (842,600);
},
{
name = top;
pos = (369,600);
}
);
layerId = "F56F9D2B-A44F-43C6-93D8-497EB6405965";
shapes = (
{
closed = 1;
nodes = (
(821,-40,o),
(901,-40,o),
(901,-40,cs),
(901,560,l),
(1001,560,l),
(1001,-40,l),
(1081,-40,l),
(1081,560,l),
(1151,560,l),
(1151,640,l),
(821,640,l),
(821,-40,l)
);
},
{
closed = 1;
nodes = (
(517,-341,ls),
(645,-341,o),
(741,-245,o),
(741,-130,c),
(901,-130,l),
(901,490,l),
(821,490,l),
(821,-50,l),
(741,-50,l),
(741,448,ls),
(741,571,o),
(672,640,o),
(559,640,c),
(559,560,l),
(633,560,o),
(661,532,o),
(661,448,cs),
(661,-50,l),
(118,-50,l),
(118,-147,ls),
(118,-245,o),
(214,-341,o),
(342,-341,cs)
);
},
{
closed = 1;
nodes = (
(253,-261,o),
(198,-206,o),
(198,-130,c),
(661,-130,l),
(661,-206,o),
(607,-261,o),
(517,-261,cs),
(342,-261,ls)
);
},
{
closed = 1;
nodes = (
(506,-40,o),
(562,16,o),
(562,89,cs),
(562,491,ls),
(562,564,o),
(507,640,o),
(436,640,cs),
(363,640,o),
(307,564,o),
(307,491,cs),
(307,89,ls),
(307,16,o),
(362,-40,o),
(434,-40,cs)
);
},
{
closed = 1;
nodes = (
(399,20,o),
(387,42,o),
(387,109,cs),
(387,491,ls),
(387,539,o),
(402,560,o),
(436,560,cs),
(468,560,o),
(482,539,o),
(482,491,cs),
(482,109,ls),
(482,42,o),
(470,20,o),
(434,20,cs)
);
},
{
closed = 1;
nodes = (
(180,14,l),
(101,14,o),
(105,62,o),
(105,102,cs),
(105,346,ls),
(105,506,o),
(179,560,o),
(299,560,cs),
(559,560,l),
(559,640,l),
(289,640,ls),
(131,640,o),
(35,544,o),
(35,346,cs),
(35,128,ls),
(35,19,o),
(101,-40,o),
(180,-40,c)
);
},
{
closed = 1;
nodes = (
(245,-40,o),
(285,7,o),
(285,82,cs),
(285,108,ls),
(285,193,o),
(250,230,o),
(180,230,cs),
(114,230,o),
(75,166,o),
(75,98,cs),
(75,82,ls),
(75,4,o),
(104,-40,o),
(180,-40,cs)
);
},
{
closed = 1;
nodes = (
(135,20,o),
(125,40,o),
(125,72,cs),
(125,118,ls),
(125,150,o),
(135,170,o),
(160,170,cs),
(185,170,o),
(195,150,o),
(195,118,cs),
(195,72,ls),
(195,40,o),
(186,20,o),
(160,20,cs)
);
}
);
width = 1186;
}
);
metricLeft = "ca-tamil";
metricRight = "ca-tamil";
},
{
glyphname = "pa_uMatra-tamil";
layers = (
{
anchors = (
{
name = imatra;
pos = (375,600);
},
{
name = top;
pos = (225,600);
}
);
layerId = "F56F9D2B-A44F-43C6-93D8-497EB6405965";
shapes = (
{
closed = 1;
nodes = (
(335,-340,o),
(415,-340,o),
(415,-340,cs),
(415,640,l),
(335,640,l),
(335,40,l),
(115,40,l),
(115,640,l),
(35,640,l),
(35,-40,l),
(335,-40,l),
(335,-340,ls)
);
}
);
width = 450;
}
);
metricLeft = "ca-tamil";
metricRight = "ca-tamil";
},
{
glyphname = "pa_uuMatra-tamil";
layers = (
{
anchors = (
{
name = imatra;
pos = (435,600);
},
{
name = top;
pos = (265,600);
}
);
layerId = "F56F9D2B-A44F-43C6-93D8-497EB6405965";
shapes = (
{
closed = 1;
nodes = (
(415,-40,l),
(415,640,l),
(335,640,l),
(335,40,l),
(115,40,l),
(115,640,l),
(35,640,l),
(35,-40,l)
);
},
{
closed = 1;
nodes = (
(335,-60,l),
(415,-60,l),
(415,-40,l),
(335,-40,l)
);
},
{
closed = 1;
nodes = (
(350,-250,o),
(391,-209,o),
(391,-160,cs),
(391,-111,o),
(350,-70,o),
(301,-70,cs),
(252,-70,o),
(211,-111,o),
(211,-160,cs),
(211,-209,o),
(252,-250,o),
(301,-250,cs)
);
},
{
closed = 1;
nodes = (
(285,-190,o),
(271,-176,o),
(271,-160,cs),
(271,-143,o),
(285,-130,o),
(303,-130,cs),
(318,-130,o),
(331,-143,o),
(331,-160,cs),
(331,-176,o),
(318,-190,o),
(303,-190,cs)
);
},
{
closed = 1;
nodes = (
(364,-250,ls),
(484,-250,o),
(576,-177,o),
(576,-42,cs),
(576,29,o),
(535,81,o),
(476,81,cs),
(449,81,o),
(428,73,o),
(415,59,c),
(415,9,l),
(441,38,o),
(496,19,o),
(496,-62,cs),
(496,-134,o),
(441,-190,o),
(384,-190,cs),
(353,-190,l),
(301,-230,l),
(301,-250,l)
);
}
);
width = 611;
}
);
metricLeft = "ca-tamil";
metricRight = "ca-tamil";
},
{
glyphname = "ma_uMatra-tamil";
layers = (
{
anchors = (
{
name = imatra;
pos = (525,600);
},
{
name = top;
pos = (320,600);
}
);
layerId = "F56F9D2B-A44F-43C6-93D8-497EB6405965";
shapes = (
{
closed = 1;
nodes = (
(338,-220,o),
(410,-129,o),
(410,-43,cs),
(410,0,l),
(330,0,l),
(330,-53,ls),
(330,-100,o),
(280,-150,o),
(222,-150,cs),
(135,-150,o),
(105,-100,o),
(105,-42,cs),
(105,490,l),
(35,490,l),
(35,-42,ls),
(35,-138,o),
(106,-220,o),
(222,-220,cs)
);
},
{
closed = 1;
nodes = (
(456,-40,ls),
(529,-40,o),
(585,16,o),
(585,89,cs),
(585,511,ls),
(585,584,o),
(530,640,o),
(458,640,cs),
(386,640,o),
(330,584,o),
(330,511,cs),
(330,40,l),
(235,40,l),
(235,640,l),
(155,640,l),
(155,-40,l)
);
},
{
closed = 1;
nodes = (
(410,511,ls),
(410,545,o),
(415,580,o),
(458,580,cs),
(501,580,o),
(505,546,o),
(505,511,cs),
(505,89,ls),
(505,55,o),
(490,40,o),
(456,40,cs),
(410,40,l)
);
}
);
width = 620;
}
);
metricLeft = "ca-tamil";
metricRight = "ca-tamil";
},
{
glyphname = "ma_uuMatra-tamil";
layers = (
{
anchors = (
{
name = imatra;
pos = (565,600);
},
{
name = top;
pos = (360,600);
}
);
layerId = "F56F9D2B-A44F-43C6-93D8-497EB6405965";
shapes = (
{
closed = 1;
nodes = (
(348,-220,o),
(450,-149,o),
(450,-43,cs),
(450,0,l),
(370,0,l),
(370,-43,ls),
(370,-110,o),
(310,-150,o),
(242,-150,cs),
(184,-150,o),
(105,-110,o),
(105,-32,cs),
(105,435,l),
(82,490,l),
(35,490,l),
(35,-32,ls),
(35,-158,o),
(145,-220,o),
(242,-220,cs)
);
},
{
closed = 1;
nodes = (
(496,-40,ls),
(569,-40,o),
(625,16,o),
(625,89,cs),
(625,511,ls),
(625,584,o),
(570,640,o),
(498,640,cs),
(426,640,o),
(370,584,o),
(370,511,cs),
(370,40,l),
(305,40,l),
(305,640,l),
(225,640,l),
(225,-40,l)
);
},
{
closed = 1;
nodes = (
(450,511,ls),
(450,545,o),
(455,580,o),
(498,580,cs),
(541,580,o),
(545,546,o),
(545,511,cs),
(545,89,ls),
(545,55,o),
(530,40,o),
(496,40,cs),
(450,40,l)
);
},
{
closed = 1;
nodes = (
(174,400,o),
(215,441,o),
(215,490,cs),
(215,539,o),
(174,580,o),
(125,580,cs),
(76,580,o),
(35,539,o),
(35,490,cs),
(35,441,o),
(76,400,o),
(125,400,cs)
);
},
{
closed = 1;
nodes = (
(109,460,o),
(95,474,o),
(95,490,cs),
(95,507,o),
(109,520,o),
(127,520,cs),
(142,520,o),
(155,507,o),
(155,490,cs),
(155,474,o),
(142,460,o),
(127,460,cs)
);
}
);
width = 660;
}
);
metricLeft = "ca-tamil";
metricRight = "ca-tamil";
},
{
glyphname = "ya_uMatra-tamil";
layers = (
{
anchors = (
{
name = top;
pos = (254,600);
}
);
layerId = "F56F9D2B-A44F-43C6-93D8-497EB6405965";
shapes = (
{
closed = 1;
nodes = (
(395,-300,l),
(475,-300,l),
(475,0,l),
(395,0,l)
);
},
{
closed = 1;
nodes = (
(183,-40,o),
(202,-29,o),
(215,-11,c),
(215,-40,l),
(475,-40,l),
(475,640,l),
(395,640,l),
(395,40,l),
(295,40,l),
(295,600,l),
(215,600,l),
(215,82,ls),
(215,45,o),
(200,20,o),
(165,20,cs),
(130,20,o),
(110,45,o),
(110,82,cs),
(110,640,l),
(35,640,l),
(35,92,ls),
(35,17,o),
(91,-40,o),
(145,-40,cs)
);
}
);
width = 510;
}
);
metricLeft = "ca-tamil";
metricRight = "ca-tamil";
},
{
glyphname = "ya_uuMatra-tamil";
layers = (
{
anchors = (
{
name = imatra;
pos = (495,600);
},
{
name = top;
pos = (295,600);
}
);
layerId = "F56F9D2B-A44F-43C6-93D8-497EB6405965";
shapes = (
{
closed = 1;
nodes = (
(395,-60,l),
(475,-60,l),
(475,-40,l),
(395,-40,l)
);
},
{
closed = 1;
nodes = (
(183,-40,o),
(202,-29,o),
(215,-11,c),
(215,-40,l),
(475,-40,l),
(475,640,l),
(395,640,l),
(395,40,l),
(295,40,l),
(295,600,l),
(215,600,l),
(215,82,ls),
(215,45,o),
(200,20,o),
(165,20,cs),
(130,20,o),
(110,45,o),
(110,82,cs),
(110,640,l),
(35,640,l),
(35,92,ls),
(35,17,o),
(91,-40,o),
(145,-40,cs)
);
},
{
closed = 1;
nodes = (
(410,-250,o),
(451,-209,o),
(451,-160,cs),
(451,-111,o),
(410,-70,o),
(361,-70,cs),
(312,-70,o),
(271,-111,o),
(271,-160,cs),
(271,-209,o),
(312,-250,o),
(361,-250,cs)
);
},
{
closed = 1;
nodes = (
(345,-190,o),
(331,-176,o),
(331,-160,cs),
(331,-143,o),
(345,-130,o),
(363,-130,cs),
(378,-130,o),
(391,-143,o),
(391,-160,cs),
(391,-176,o),
(378,-190,o),
(363,-190,cs)
);
},
{
closed = 1;
nodes = (
(424,-250,ls),
(544,-250,o),
(636,-177,o),
(636,-42,cs),
(636,29,o),
(595,81,o),
(536,81,cs),
(509,81,o),
(488,73,o),
(475,59,c),
(475,9,l),
(501,38,o),
(556,19,o),
(556,-62,cs),
(556,-134,o),
(501,-190,o),
(444,-190,cs),
(413,-190,l),
(361,-230,l),
(361,-250,l)
);
}
);
width = 671;
}
);
metricLeft = "ca-tamil";
metricRight = "ca-tamil";
},
{
glyphname = "ra_uMatra-tamil";
layers = (
{
anchors = (
{
name = imatra;
pos = (535,600);
},
{
name = top;
pos = (325,600);
}
);
layerId = "F56F9D2B-A44F-43C6-93D8-497EB6405965";
shapes = (
{
closed = 1;
nodes = (
(515,156,l),
(515,104,ls),
(515,-56,o),
(421,-100,o),
(315,-100,cs),
(209,-100,o),
(115,-56,o),
(115,104,cs),
(115,566,ls),
(115,676,o),
(189,740,o),
(315,740,cs),
(441,740,o),
(515,676,o),
(515,566,cs),
(515,550,l),
(555,550,l),
(595,550,l),
(595,566,ls),
(595,714,o),
(479,820,o),
(315,820,cs),
(151,820,o),
(35,714,o),
(35,566,cs),
(35,104,ls),
(35,-94,o),
(171,-180,o),
(315,-180,cs),
(459,-180,o),
(595,-94,o),
(595,104,cs),
(595,156,l)
);
},
{
closed = 1;
nodes = (
(595,156,l),
(595,176,o),
(595,195,o),
(595,205,cs),
(595,338,o),
(555,385,o),
(486,385,cs),
(451,385,o),
(424,362,o),
(415,339,c),
(415,560,l),
(475,560,l),
(475,640,l),
(155,640,l),
(155,60,l),
(235,60,l),
(235,560,l),
(335,560,l),
(335,110,l),
(415,110,l),
(415,260,ls),
(415,295,o),
(425,315,o),
(461,315,cs),
(498,315,o),
(515,288,o),
(515,156,c)
);
}
);
width = 630;
}
);
metricLeft = "ca-tamil";
metricRight = "ca-tamil";
},
{
glyphname = "ra_uuMatra-tamil";
layers = (
{
anchors = (
{
name = imatra;
pos = (535,600);
},
{
name = top;
pos = (325,600);
}
);
layerId = "F56F9D2B-A44F-43C6-93D8-497EB6405965";
shapes = (
{
closed = 1;
nodes = (
(574,377,o),
(615,418,o),
(615,467,cs),
(615,516,o),
(574,557,o),
(525,557,cs),
(476,557,o),
(435,516,o),
(435,467,cs),
(435,418,o),
(476,377,o),
(525,377,cs)
);
},
{
closed = 1;
nodes = (
(509,437,o),
(495,451,o),
(495,467,cs),
(495,484,o),
(509,497,o),
(527,497,cs),
(542,497,o),
(555,484,o),
(555,467,cs),
(555,451,o),
(542,437,o),
(527,437,cs)
);
},
{
closed = 1;
nodes = (
(535,569,l),
(534,557,l),
(575,467,l),
(615,467,l),
(615,569,l)
);
},
{
closed = 1;
nodes = (
(605,185,ls),
(605,318,o),
(565,365,o),
(496,365,cs),
(461,365,o),
(424,342,o),
(415,319,c),
(415,560,l),
(475,560,l),
(475,640,l),
(155,640,l),
(155,60,l),
(235,60,l),
(235,560,l),
(335,560,l),
(335,110,l),
(415,110,l),
(415,240,ls),
(415,275,o),
(435,295,o),
(471,295,cs),
(508,295,o),
(525,268,o),
(525,136,cs),
(525,114,ls),
(525,-35,o),
(464,-100,o),
(325,-100,cs),
(179,-100,o),
(115,-38,o),
(115,104,cs),
(115,566,ls),
(115,676,o),
(199,740,o),
(325,740,cs),
(451,740,o),
(528,676,o),
(535,566,cs),
(536,550,l),
(615,550,l),
(615,566,ls),
(615,714,o),
(489,820,o),
(325,820,cs),
(161,820,o),
(35,714,o),
(35,566,cs),
(35,104,ls),
(35,-74,o),
(123,-180,o),
(325,-180,cs),
(520,-180,o),
(605,-64,o),
(605,114,cs)
);
}
);
width = 650;
}
);
metricLeft = "ca-tamil";
metricRight = "ca-tamil";
},
{
glyphname = "rra_uMatra-tamil";
layers = (
{
anchors = (
{
name = imatra;
pos = (485,600);
},
{
name = top;
pos = (282,600);
}
);
layerId = "F56F9D2B-A44F-43C6-93D8-497EB6405965";
shapes = (
{
closed = 1;
nodes = (
(252,-341,ls),
(362,-341,o),
(445,-258,o),
(445,-148,cs),
(445,-100,l),
(575,-100,l),
(575,460,l),
(495,460,l),
(495,-20,l),
(445,-20,l),
(445,289,l),
(365,289,l),
(365,-20,l),
(35,-20,l),
(35,-148,l),
(35,-258,o),
(118,-341,o),
(228,-341,cs)
);
},
{
closed = 1;
nodes = (
(157,-261,o),
(115,-219,o),
(115,-148,cs),
(115,-100,l),
(365,-100,l),
(365,-148,ls),
(365,-219,o),
(323,-261,o),
(252,-261,cs),
(228,-261,ls)
);
},
{
closed = 1;
nodes = (
(445,289,l),
(445,369,ls),
(445,507,o),
(438,641,o),
(306,641,cs),
(262,641,o),
(230,619,o),
(225,584,c),
(219,618,o),
(186,640,o),
(140,640,cs),
(85,640,o),
(35,590,o),
(35,524,cs),
(35,40,l),
(95,40,l),
(95,514,ls),
(95,551,o),
(114,570,o),
(140,570,cs),
(166,570,o),
(185,551,o),
(185,514,cs),
(185,80,l),
(265,80,l),
(265,516,ls),
(265,551,o),
(280,571,o),
(306,571,cs),
(362,571,o),
(365,505,o),
(365,369,cs),
(365,289,l)
);
}
);
width = 610;
}
);
metricLeft = "ca-tamil";
metricRight = "ca-tamil";
},
{
glyphname = "rra_uuMatra-tamil";
layers = (
{
anchors = (
{
name = imatra;
pos = (485,600);
},
{
name = top;
pos = (282,600);
}
);
layerId = "F56F9D2B-A44F-43C6-93D8-497EB6405965";
shapes = (
{
closed = 1;
nodes = (
(495,-40,o),
(575,-40,o),
(575,-40,cs),
(575,560,l),
(675,560,l),
(675,-40,l),
(755,-40,l),
(755,560,l),
(825,560,l),
(825,640,l),
(495,640,l),
(495,-40,l)
);
},
{
closed = 1;
nodes = (
(252,-341,ls),
(362,-341,o),
(445,-258,o),
(445,-148,cs),
(445,-100,l),
(575,-100,l),
(575,460,l),
(495,460,l),
(495,-20,l),
(445,-20,l),
(445,289,l),
(365,289,l),
(365,-20,l),
(35,-20,l),
(35,-148,l),
(35,-258,o),
(118,-341,o),
(228,-341,cs)
);
},
{
closed = 1;
nodes = (
(157,-261,o),
(115,-219,o),
(115,-148,cs),
(115,-100,l),
(365,-100,l),
(365,-148,ls),
(365,-219,o),
(323,-261,o),
(252,-261,cs),
(228,-261,ls)
);
},
{
closed = 1;
nodes = (
(445,289,l),
(445,369,ls),
(445,507,o),
(438,641,o),
(306,641,cs),
(262,641,o),
(230,619,o),
(225,584,c),
(219,618,o),
(186,640,o),
(140,640,cs),
(85,640,o),
(35,590,o),
(35,524,cs),
(35,40,l),
(95,40,l),
(95,514,ls),
(95,551,o),
(114,570,o),
(140,570,cs),
(166,570,o),
(185,551,o),
(185,514,cs),
(185,80,l),
(265,80,l),
(265,516,ls),
(265,551,o),
(280,571,o),
(306,571,cs),
(362,571,o),
(365,505,o),
(365,369,cs),
(365,289,l)
);
}
);
width = 860;
}
);
metricLeft = "ca-tamil";
metricRight = "ca-tamil";
},
{
glyphname = "la_iMatra-tamil";
layers = (
{
anchors = (
{
name = imatra;
pos = (403,600);
},
{
name = top;
pos = (313,600);
}
);
layerId = "F56F9D2B-A44F-43C6-93D8-497EB6405965";
shapes = (
{
closed = 1;
nodes = (
(652,-40,l),
(652,608,ls),
(652,782,o),
(575,810,o),
(502,810,cs),
(429,810,o),
(372,753,o),
(372,655,cs),
(372,547,o),
(439,464,o),
(504,464,cs),
(532,464,l),
(532,524,l),
(504,524,ls),
(468,524,o),
(432,578,o),
(432,645,cs),
(432,699,o),
(451,740,o),
(502,740,cs),
(547,740,o),
(572,714,o),
(572,608,cs),
(572,-40,l)
);
},
{
closed = 1;
nodes = (
(215,-40,o),
(255,7,o),
(255,82,cs),
(255,108,ls),
(255,193,o),
(220,230,o),
(150,230,cs),
(84,230,o),
(45,166,o),
(45,98,cs),
(45,82,ls),
(45,7,o),
(85,-40,o),
(150,-40,cs)
);
},
{
closed = 1;
nodes = (
(115,20,o),
(105,40,o),
(105,72,cs),
(105,118,ls),
(105,150,o),
(115,170,o),
(140,170,cs),
(165,170,o),
(175,150,o),
(175,118,cs),
(175,72,ls),
(175,40,o),
(166,20,o),
(140,20,cs)
);
},
{
closed = 1;
nodes = (
(452,607,l),
(452,66,ls),
(452,35,o),
(440,20,o),
(417,20,cs),
(394,20,o),
(382,35,o),
(382,66,cs),
(382,443,ls),
(382,580,o),
(328,640,o),
(204,640,cs),
(96,640,o),
(35,571,o),
(35,448,cs),
(35,104,ls),
(35,40,o),
(56,-36,o),
(150,-40,c),
(150,7,l),
(101,7,o),
(93,23,o),
(93,152,cs),
(93,448,ls),
(93,536,o),
(130,580,o),
(204,580,cs),
(270,580,o),
(302,535,o),
(302,443,cs),
(302,96,ls),
(302,5,o),
(340,-40,o),
(417,-40,cs),
(494,-40,o),
(532,5,o),
(532,96,cs),
(532,607,l)
);
}
);
width = 687;
}
);
metricLeft = "ca-tamil";
metricRight = "ca-tamil";
},
{
glyphname = "la_iiMatra-tamil";
layers = (
{
anchors = (
{
name = imatra;
pos = (215,600);
},
{
name = top;
pos = (-13,600);
}
);
layerId = "F56F9D2B-A44F-43C6-93D8-497EB6405965";
shapes = (
{
closed = 1;
nodes = (
(215,-40,o),
(255,7,o),
(255,82,cs),
(255,108,ls),
(255,193,o),
(220,230,o),
(150,230,cs),
(84,230,o),
(45,166,o),
(45,98,cs),
(45,82,ls),
(45,7,o),
(85,-40,o),
(150,-40,cs)
);
},
{
closed = 1;
nodes = (
(115,20,o),
(105,40,o),
(105,72,cs),
(105,118,ls),
(105,150,o),
(115,170,o),
(140,170,cs),
(165,170,o),
(175,150,o),
(175,118,cs),
(175,72,ls),
(175,40,o),
(166,20,o),
(140,20,cs)
);
},
{
closed = 1;
nodes = (
(492,570,l),
(454,570,o),
(426,614,o),
(426,658,cs),
(426,712,o),
(455,746,o),
(492,758,c),
(441,702,o),
(474,618,o),
(552,618,cs),
(601,618,o),
(637,659,o),
(637,708,cs),
(637,768,o),
(587,810,o),
(515,810,cs),
(441,810,o),
(380,759,o),
(368,686,cs),
(353,593,o),
(407,510,o),
(492,510,c)
);
},
{
closed = 1;
nodes = (
(534,675,o),
(520,689,o),
(520,705,cs),
(520,722,o),
(534,735,o),
(552,735,cs),
(567,735,o),
(580,722,o),
(580,705,cs),
(580,689,o),
(567,675,o),
(552,675,cs)
);
},
{
closed = 1;
nodes = (
(452,607,l),
(452,66,ls),
(452,35,o),
(440,20,o),
(417,20,cs),
(394,20,o),
(382,35,o),
(382,66,cs),
(382,443,ls),
(382,580,o),
(328,640,o),
(204,640,cs),
(96,640,o),
(35,571,o),
(35,448,cs),
(35,104,ls),
(35,40,o),
(56,-36,o),
(150,-40,c),
(150,7,l),
(101,7,o),
(93,23,o),
(93,152,cs),
(93,448,ls),
(93,536,o),
(130,580,o),
(204,580,cs),
(270,580,o),
(302,535,o),
(302,443,cs),
(302,96,ls),
(302,5,o),
(340,-40,o),
(417,-40,cs),
(494,-40,o),
(532,5,o),
(532,96,cs),
(532,607,l)
);
}
);
width = 582;
}
);
metricLeft = "ca-tamil";
},
{
glyphname = "la_uMatra-tamil";
layers = (
{
anchors = (
{
name = imatra;
pos = (572,600);
},
{
name = top;
pos = (333,600);
}
);
layerId = "F56F9D2B-A44F-43C6-93D8-497EB6405965";
shapes = (
{
closed = 1;
nodes = (
(377,-341,o),
(460,-248,o),
(460,-133,cs),
(460,4,l),
(380,4,l),
(380,-133,ls),
(380,-210,o),
(339,-261,o),
(248,-261,cs),
(157,-261,o),
(115,-210,o),
(115,-133,cs),
(115,-130,l),
(670,-130,l),
(670,450,l),
(590,450,l),
(590,-50,l),
(35,-50,l),
(35,-133,ls),
(35,-248,o),
(118,-341,o),
(248,-341,cs)
);
},
{
closed = 1;
nodes = (
(494,-40,o),
(532,5,o),
(532,96,cs),
(532,523,ls),
(532,598,o),
(486,640,o),
(403,640,c),
(403,560,l),
(436,560,o),
(452,544,o),
(452,513,cs),
(452,66,ls),
(452,35,o),
(440,20,o),
(417,20,cs),
(394,20,o),
(382,35,o),
(382,66,cs),
(382,443,ls),
(382,580,o),
(328,640,o),
(204,640,cs),
(96,640,o),
(35,571,o),
(35,448,cs),
(35,104,ls),
(35,40,o),
(56,-36,o),
(150,-40,c),
(150,7,l),
(101,7,o),
(93,23,o),
(93,152,cs),
(93,448,ls),
(93,536,o),
(130,580,o),
(204,580,cs),
(270,580,o),
(302,535,o),
(302,443,cs),
(302,96,ls),
(302,5,o),
(340,-40,o),
(417,-40,cs)
);
},
{
closed = 1;
nodes = (
(215,-40,o),
(255,7,o),
(255,82,cs),
(255,108,ls),
(255,193,o),
(220,230,o),
(150,230,cs),
(84,230,o),
(45,166,o),
(45,98,cs),
(45,82,ls),
(45,7,o),
(85,-40,o),
(150,-40,cs)
);
},
{
closed = 1;
nodes = (
(115,20,o),
(105,40,o),
(105,72,cs),
(105,118,ls),
(105,150,o),
(115,170,o),
(140,170,cs),
(165,170,o),
(175,150,o),
(175,118,cs),
(175,72,ls),
(175,40,o),
(166,20,o),
(140,20,cs)
);
}
);
width = 705;
}
);
metricLeft = "ca-tamil";
metricRight = "ca-tamil";
},
{
glyphname = "la_uuMatra-tamil";
layers = (
{
anchors = (
{
name = imatra;
pos = (550,600);
},
{
name = top;
pos = (311,600);
}
);
layerId = "F56F9D2B-A44F-43C6-93D8-497EB6405965";
shapes = (
{
closed = 1;
nodes = (
(590,-40,o),
(670,-40,o),
(670,-40,cs),
(670,560,l),
(770,560,l),
(770,-40,l),
(850,-40,l),
(850,560,l),
(920,560,l),
(920,640,l),
(590,640,l),
(590,-40,l)
);
},
{
closed = 1;
nodes = (
(377,-341,o),
(460,-248,o),
(460,-133,cs),
(460,4,l),
(380,4,l),
(380,-133,ls),
(380,-210,o),
(339,-261,o),
(248,-261,cs),
(157,-261,o),
(115,-210,o),
(115,-133,cs),
(115,-130,l),
(670,-130,l),
(670,450,l),
(590,450,l),
(590,-50,l),
(35,-50,l),
(35,-133,ls),
(35,-248,o),
(118,-341,o),
(248,-341,cs)
);
},
{
closed = 1;
nodes = (
(494,-40,o),
(532,5,o),
(532,96,cs),
(532,523,ls),
(532,598,o),
(486,640,o),
(403,640,c),
(403,560,l),
(436,560,o),
(452,544,o),
(452,513,cs),
(452,66,ls),
(452,35,o),
(440,20,o),
(417,20,cs),
(394,20,o),
(382,35,o),
(382,66,cs),
(382,443,ls),
(382,580,o),
(328,640,o),
(204,640,cs),
(96,640,o),
(35,571,o),
(35,448,cs),
(35,104,ls),
(35,40,o),
(56,-36,o),
(150,-40,c),
(150,7,l),
(101,7,o),
(93,23,o),
(93,152,cs),
(93,448,ls),
(93,536,o),
(130,580,o),
(204,580,cs),
(270,580,o),
(302,535,o),
(302,443,cs),
(302,96,ls),
(302,5,o),
(340,-40,o),
(417,-40,cs)
);
},
{
closed = 1;
nodes = (
(215,-40,o),
(255,7,o),
(255,82,cs),
(255,108,ls),
(255,193,o),
(220,230,o),
(150,230,cs),
(84,230,o),
(45,166,o),
(45,98,cs),
(45,82,ls),
(45,7,o),
(85,-40,o),
(150,-40,cs)
);
},
{
closed = 1;
nodes = (
(115,20,o),
(105,40,o),
(105,72,cs),
(105,118,ls),
(105,150,o),
(115,170,o),
(140,170,cs),
(165,170,o),
(175,150,o),
(175,118,cs),
(175,72,ls),
(175,40,o),
(166,20,o),
(140,20,cs)
);
}
);
width = 955;
}
);
metricLeft = "ca-tamil";
metricRight = "ca-tamil";
},
{
glyphname = "lla_uMatra-tamil";
layers = (
{
layerId = "F56F9D2B-A44F-43C6-93D8-497EB6405965";
shapes = (
{
closed = 1;
nodes = (
(852,79,l),
(852,89,o),
(852,98,o),
(852,108,cs),
(852,241,o),
(812,288,o),
(743,288,cs),
(708,288,o),
(681,265,o),
(672,242,c),
(672,163,l),
(672,198,o),
(682,218,o),
(718,218,cs),
(755,218,o),
(772,191,o),
(772,79,c)
);
},
{
closed = 1;
nodes = (
(772,79,l),
(772,73,o),
(772,43,o),
(772,37,cs),
(772,-41,o),
(752,-110,o),
(654,-110,cs),
(268,-110,ls),
(155,-110,o),
(105,-61,o),
(105,73,cs),
(105,287,l),
(35,287,l),
(35,73,ls),
(35,-97,o),
(118,-180,o),
(278,-180,cs),
(654,-180,ls),
(812,-180,o),
(852,-58,o),
(852,37,cs),
(852,43,o),
(852,73,o),
(852,79,c)
);
},
{
closed = 1;
nodes = (
(195,30,l),
(195,117,l),
(195,438,ls),
(195,520,o),
(229,560,o),
(299,560,cs),
(368,560,o),
(402,520,o),
(402,438,cs),
(402,190,l),
(482,190,l),
(482,560,l),
(592,560,l),
(592,-40,l),
(672,-40,l),
(672,560,l),
(742,560,l),
(742,640,l),
(402,640,l),
(402,580,l),
(385,620,o),
(348,640,o),
(289,640,cs),
(196,640,o),
(135,580,o),
(135,478,cs),
(135,104,ls),
(135,49,o),
(159,-40,o),
(250,-40,c)
);
},
{
closed = 1;
nodes = (
(315,-40,o),
(355,7,o),
(355,82,cs),
(355,108,ls),
(355,193,o),
(320,230,o),
(250,230,cs),
(184,230,o),
(145,166,o),
(145,98,cs),
(145,82,ls),
(145,7,o),
(185,-40,o),
(250,-40,cs)
);
},
{
closed = 1;
nodes = (
(215,20,o),
(205,40,o),
(205,72,cs),
(205,118,ls),
(205,150,o),
(215,170,o),
(240,170,cs),
(265,170,o),
(275,150,o),
(275,118,cs),
(275,72,ls),
(275,40,o),
(266,20,o),
(240,20,cs)
);
}
);
width = 887;
}
);
metricLeft = "ca-tamil";
metricRight = "ca-tamil";
},
{
glyphname = "lla_uuMatra-tamil";
layers = (
{
layerId = "F56F9D2B-A44F-43C6-93D8-497EB6405965";
shapes = (
{
closed = 1;
nodes = (
(174,197,o),
(215,238,o),
(215,287,cs),
(215,336,o),
(174,377,o),
(125,377,cs),
(76,377,o),
(35,336,o),
(35,287,cs),
(35,238,o),
(76,197,o),
(125,197,cs)
);
},
{
closed = 1;
nodes = (
(109,257,o),
(95,271,o),
(95,287,cs),
(95,304,o),
(109,317,o),
(127,317,cs),
(142,317,o),
(155,304,o),
(155,287,cs),
(155,271,o),
(142,257,o),
(127,257,cs)
);
},
{
closed = 1;
nodes = (
(942,79,l),
(942,89,o),
(942,98,o),
(942,108,cs),
(942,241,o),
(902,288,o),
(833,288,cs),
(798,288,o),
(771,265,o),
(762,242,c),
(762,163,l),
(762,198,o),
(772,218,o),
(808,218,cs),
(845,218,o),
(862,191,o),
(862,79,c)
);
},
{
closed = 1;
nodes = (
(862,79,l),
(862,73,o),
(862,43,o),
(862,37,cs),
(862,-41,o),
(842,-110,o),
(744,-110,cs),
(258,-110,ls),
(164,-110,o),
(105,-36,o),
(105,83,cs),
(105,247,l),
(35,287,l),
(35,73,ls),
(35,-82,o),
(129,-180,o),
(278,-180,cs),
(744,-180,ls),
(902,-180,o),
(942,-58,o),
(942,37,cs),
(942,43,o),
(942,73,o),
(942,79,c)
);
},
{
closed = 1;
nodes = (
(285,30,l),
(285,117,l),
(285,438,ls),
(285,520,o),
(319,560,o),
(389,560,cs),
(458,560,o),
(492,520,o),
(492,438,cs),
(492,190,l),
(572,190,l),
(572,560,l),
(682,560,l),
(682,-40,l),
(762,-40,l),
(762,560,l),
(832,560,l),
(832,640,l),
(492,640,l),
(492,580,l),
(475,620,o),
(438,640,o),
(379,640,cs),
(286,640,o),
(225,580,o),
(225,478,cs),
(225,104,ls),
(225,49,o),
(249,-40,o),
(340,-40,c)
);
},
{
closed = 1;
nodes = (
(405,-40,o),
(445,7,o),
(445,82,cs),
(445,108,ls),
(445,193,o),
(410,230,o),
(340,230,cs),
(274,230,o),
(235,166,o),
(235,98,cs),
(235,82,ls),
(235,7,o),
(275,-40,o),
(340,-40,cs)
);
},
{
closed = 1;
nodes = (
(305,20,o),
(295,40,o),
(295,72,cs),
(295,118,ls),
(295,150,o),
(305,170,o),
(330,170,cs),
(355,170,o),
(365,150,o),
(365,118,cs),
(365,72,ls),
(365,40,o),
(356,20,o),
(330,20,cs)
);
}
);
width = 977;
}
);
metricLeft = "ca-tamil";
metricRight = "ca-tamil";
},
{
glyphname = "llla_uMatra-tamil";
layers = (
{
anchors = (
{
name = imatra;
pos = (505,600);
},
{
name = top;
pos = (300,600);
}
);
layerId = "F56F9D2B-A44F-43C6-93D8-497EB6405965";
shapes = (
{
closed = 1;
nodes = (
(403,-312,o),
(457,-256,o),
(457,-183,cs),
(457,-138,o),
(481,-124,o),
(514,-124,cs),
(515,-124,l),
(515,-54,l),
(482,-54,ls),
(445,-54,o),
(430,-38,o),
(430,-2,c),
(350,-2,l),
(350,-49,o),
(371,-93,o),
(417,-102,c),
(387,-118,o),
(387,-156,o),
(387,-183,cs),
(387,-228,o),
(343,-242,o),
(259,-242,cs),
(145,-242,o),
(105,-197,o),
(105,-70,cs),
(105,488,l),
(35,488,l),
(35,-90,ls),
(35,-218,o),
(99,-312,o),
(249,-312,cs)
);
},
{
closed = 1;
nodes = (
(476,-40,ls),
(549,-40,o),
(605,16,o),
(605,89,cs),
(605,511,ls),
(605,584,o),
(550,640,o),
(478,640,cs),
(406,640,o),
(350,584,o),
(350,511,cs),
(350,40,l),
(255,40,l),
(255,640,l),
(175,640,l),
(175,-40,l)
);
},
{
closed = 1;
nodes = (
(430,511,ls),
(430,545,o),
(435,580,o),
(478,580,cs),
(521,580,o),
(525,546,o),
(525,511,cs),
(525,89,ls),
(525,55,o),
(510,40,o),
(476,40,cs),
(430,40,l)
);
}
);
width = 640;
}
);
metricLeft = "ca-tamil";
metricRight = "ca-tamil";
},
{
glyphname = "llla_uuMatra-tamil";
layers = (
{
anchors = (
{
name = imatra;
pos = (605,600);
},
{
name = top;
pos = (400,600);
}
);
layerId = "F56F9D2B-A44F-43C6-93D8-497EB6405965";
shapes = (
{
closed = 1;
nodes = (
(174,398,o),
(215,439,o),
(215,488,cs),
(215,537,o),
(174,578,o),
(125,578,cs),
(76,578,o),
(35,537,o),
(35,488,cs),
(35,439,o),
(76,398,o),
(125,398,cs)
);
},
{
closed = 1;
nodes = (
(109,458,o),
(95,472,o),
(95,488,cs),
(95,505,o),
(109,518,o),
(127,518,cs),
(142,518,o),
(155,505,o),
(155,488,cs),
(155,472,o),
(142,458,o),
(127,458,cs)
);
},
{
closed = 1;
nodes = (
(408,-312,o),
(507,-269,o),
(507,-183,cs),
(507,-138,o),
(531,-124,o),
(564,-124,cs),
(565,-124,l),
(565,-54,l),
(532,-54,ls),
(495,-54,o),
(480,-38,o),
(480,-2,c),
(400,-2,l),
(400,-49,o),
(425,-94,o),
(467,-102,c),
(443,-118,o),
(437,-146,o),
(437,-173,cs),
(437,-230,o),
(369,-242,o),
(274,-242,c),
(165,-242,o),
(105,-197,o),
(105,-70,cs),
(105,428,l),
(35,488,l),
(35,-90,ls),
(35,-218,o),
(119,-312,o),
(274,-312,cs)
);
},
{
closed = 1;
nodes = (
(526,-40,ls),
(599,-40,o),
(655,16,o),
(655,89,cs),
(655,511,ls),
(655,584,o),
(600,640,o),
(528,640,cs),
(456,640,o),
(400,584,o),
(400,511,cs),
(400,40,l),
(315,40,l),
(315,640,l),
(235,640,l),
(235,-40,l)
);
},
{
closed = 1;
nodes = (
(480,511,ls),
(480,545,o),
(485,580,o),
(528,580,cs),
(571,580,o),
(575,546,o),
(575,511,cs),
(575,89,ls),
(575,55,o),
(560,40,o),
(526,40,cs),
(480,40,l)
);
}
);
width = 690;
}
);
metricLeft = "ca-tamil";
metricRight = "ca-tamil";
},
{
glyphname = "va_iiMatra-tamil";
layers = (
{
anchors = (
{
name = imatra;
pos = (474,580);
},
{
name = top;
pos = (354,600);
}
);
layerId = "F56F9D2B-A44F-43C6-93D8-497EB6405965";
shapes = (
{
closed = 1;
nodes = (
(434,-40,l),
(517,-40,l),
(517,607,l),
(437,607,l)
);
},
{
closed = 1;
nodes = (
(517,40,l),
(135,40,ls),
(124,40,o),
(114,40,o),
(114,50,cs),
(114,60,o),
(124,60,o),
(135,60,cs),
(223,60,ls),
(316,60,o),
(385,129,o),
(385,222,cs),
(385,468,ls),
(385,571,o),
(306,640,o),
(210,640,cs),
(114,640,o),
(35,571,o),
(35,468,cs),
(35,295,ls),
(35,220,o),
(66,178,o),
(140,178,cs),
(213,178,o),
(245,212,o),
(245,300,cs),
(245,336,ls),
(245,421,o),
(210,458,o),
(150,458,cs),
(119,458,o),
(101,443,o),
(95,420,c),
(95,468,ls),
(95,537,o),
(135,580,o),
(200,580,cs),
(267,580,o),
(305,532,o),
(305,468,cs),
(305,222,ls),
(305,168,o),
(277,140,o),
(223,140,cs),
(135,140,ls),
(84,140,o),
(44,101,o),
(44,50,cs),
(44,-1,o),
(84,-40,o),
(135,-40,cs),
(517,-40,l)
);
},
{
closed = 1;
nodes = (
(95,346,ls),
(95,378,o),
(105,398,o),
(130,398,cs),
(155,398,o),
(165,378,o),
(165,346,cs),
(165,290,ls),
(165,258,o),
(156,238,o),
(130,238,cs),
(105,238,o),
(95,258,o),
(95,290,cs)
);
},
{
closed = 1;
nodes = (
(477,570,l),
(439,570,o),
(411,614,o),
(411,658,cs),
(411,712,o),
(440,746,o),
(477,758,c),
(426,702,o),
(459,618,o),
(537,618,cs),
(586,618,o),
(622,659,o),
(622,708,cs),
(622,768,o),
(572,810,o),
(500,810,cs),
(426,810,o),
(365,759,o),
(353,686,cs),
(338,593,o),
(392,510,o),
(477,510,c)
);
},
{
closed = 1;
nodes = (
(519,675,o),
(505,689,o),
(505,705,cs),
(505,722,o),
(519,735,o),
(537,735,cs),
(552,735,o),
(565,722,o),
(565,705,cs),
(565,689,o),
(552,675,o),
(537,675,cs)
);
}
);
width = 657;
}
);
metricLeft = "ca-tamil";
metricRight = "ca-tamil";
},
{
glyphname = "va_uMatra-tamil";
layers = (
{
anchors = (
{
name = imatra;
pos = (464,500);
},
{
name = top;
pos = (364,600);
}
);
layerId = "F56F9D2B-A44F-43C6-93D8-497EB6405965";
shapes = (
{
closed = 1;
nodes = (
(424,-300,l),
(504,-300,l),
(504,0,l),
(424,0,l)
);
},
{
closed = 1;
nodes = (
(424,-40,l),
(504,-40,l),
(507,500,l),
(427,500,l)
);
},
{
closed = 1;
nodes = (
(504,40,l),
(135,40,ls),
(124,40,o),
(114,40,o),
(114,50,cs),
(114,60,o),
(124,60,o),
(135,60,cs),
(223,60,ls),
(316,60,o),
(385,129,o),
(385,222,cs),
(385,468,ls),
(385,571,o),
(306,640,o),
(210,640,cs),
(114,640,o),
(35,571,o),
(35,468,cs),
(35,295,ls),
(35,220,o),
(66,178,o),
(140,178,cs),
(213,178,o),
(245,212,o),
(245,300,cs),
(245,336,ls),
(245,421,o),
(210,458,o),
(150,458,cs),
(119,458,o),
(101,443,o),
(95,420,c),
(95,468,ls),
(95,537,o),
(135,580,o),
(200,580,cs),
(267,580,o),
(305,532,o),
(305,468,cs),
(305,222,ls),
(305,168,o),
(277,140,o),
(223,140,cs),
(135,140,ls),
(84,140,o),
(44,101,o),
(44,50,cs),
(44,-1,o),
(84,-40,o),
(135,-40,cs),
(504,-40,l)
);
},
{
closed = 1;
nodes = (
(95,346,ls),
(95,378,o),
(105,398,o),
(130,398,cs),
(155,398,o),
(165,378,o),
(165,346,cs),
(165,290,ls),
(165,258,o),
(156,238,o),
(130,238,cs),
(105,238,o),
(95,258,o),
(95,290,cs)
);
}
);
width = 542;
}
);
metricLeft = "ca-tamil";
metricRight = "ca-tamil";
},
{
glyphname = "va_uuMatra-tamil";
layers = (
{
layerId = "F56F9D2B-A44F-43C6-93D8-497EB6405965";
shapes = (
{
closed = 1;
nodes = (
(424,-60,l),
(504,-60,l),
(504,-40,l),
(424,-40,l)
);
},
{
closed = 1;
nodes = (
(439,-250,o),
(480,-209,o),
(480,-160,cs),
(480,-111,o),
(439,-70,o),
(390,-70,cs),
(341,-70,o),
(300,-111,o),
(300,-160,cs),
(300,-209,o),
(341,-250,o),
(390,-250,cs)
);
},
{
closed = 1;
nodes = (
(374,-190,o),
(360,-176,o),
(360,-160,cs),
(360,-143,o),
(374,-130,o),
(392,-130,cs),
(407,-130,o),
(420,-143,o),
(420,-160,cs),
(420,-176,o),
(407,-190,o),
(392,-190,cs)
);
},
{
closed = 1;
nodes = (
(453,-250,ls),
(573,-250,o),
(665,-177,o),
(665,-42,cs),
(665,29,o),
(624,81,o),
(565,81,cs),
(538,81,o),
(517,73,o),
(504,59,c),
(504,9,l),
(530,38,o),
(585,19,o),
(585,-62,cs),
(585,-134,o),
(530,-190,o),
(473,-190,cs),
(442,-190,l),
(390,-230,l),
(390,-250,l)
);
},
{
closed = 1;
nodes = (
(424,-40,l),
(504,-40,l),
(507,500,l),
(427,500,l)
);
},
{
closed = 1;
nodes = (
(504,40,l),
(135,40,ls),
(124,40,o),
(114,40,o),
(114,50,cs),
(114,60,o),
(124,60,o),
(135,60,cs),
(223,60,ls),
(316,60,o),
(385,129,o),
(385,222,cs),
(385,468,ls),
(385,571,o),
(306,640,o),
(210,640,cs),
(114,640,o),
(35,571,o),
(35,468,cs),
(35,295,ls),
(35,220,o),
(66,178,o),
(140,178,cs),
(213,178,o),
(245,212,o),
(245,300,cs),
(245,336,ls),
(245,421,o),
(210,458,o),
(150,458,cs),
(119,458,o),
(101,443,o),
(95,420,c),
(95,468,ls),
(95,537,o),
(135,580,o),
(200,580,cs),
(267,580,o),
(305,532,o),
(305,468,cs),
(305,222,ls),
(305,168,o),
(277,140,o),
(223,140,cs),
(135,140,ls),
(84,140,o),
(44,101,o),
(44,50,cs),
(44,-1,o),
(84,-40,o),
(135,-40,cs),
(504,-40,l)
);
},
{
closed = 1;
nodes = (
(95,346,ls),
(95,378,o),
(105,398,o),
(130,398,cs),
(155,398,o),
(165,378,o),
(165,346,cs),
(165,290,ls),
(165,258,o),
(156,238,o),
(130,238,cs),
(105,238,o),
(95,258,o),
(95,290,cs)
);
}
);
width = 700;
}
);
metricLeft = "ca-tamil";
metricRight = "ca-tamil";
},
{
glyphname = "ssa_iMatra-tamil";
layers = (
{
anchors = (
{
name = imatra;
pos = (525,295);
},
{
name = top;
pos = (355,600);
}
);
layerId = "F56F9D2B-A44F-43C6-93D8-497EB6405965";
shapes = (
{
closed = 1;
nodes = (
(685,-40,o),
(765,-40,o),
(765,-40,cs),
(765,398,ls),
(765,487,o),
(707,550,o),
(625,550,cs),
(543,550,o),
(485,487,o),
(485,398,cs),
(485,310,l),
(565,310,l),
(565,408,ls),
(565,458,o),
(588,490,o),
(625,490,cs),
(662,490,o),
(685,458,o),
(685,408,cs),
(685,-40,ls)
);
},
{
closed = 1;
nodes = (
(645,-300,l),
(645,-40,l),
(665,-40,l),
(665,40,l),
(645,40,l),
(645,198,ls),
(645,268,o),
(593,320,o),
(525,320,cs),
(457,320,o),
(405,268,o),
(405,198,cs),
(405,102,ls),
(405,60,o),
(419,44,o),
(432,40,c),
(135,40,ls),
(124,40,o),
(114,40,o),
(114,50,cs),
(114,60,o),
(124,60,o),
(135,60,cs),
(223,60,ls),
(316,60,o),
(385,129,o),
(385,222,cs),
(385,468,ls),
(385,571,o),
(306,640,o),
(210,640,cs),
(114,640,o),
(35,571,o),
(35,468,cs),
(35,295,ls),
(35,220,o),
(66,178,o),
(140,178,cs),
(213,178,o),
(245,212,o),
(245,300,cs),
(245,336,ls),
(245,421,o),
(210,458,o),
(150,458,cs),
(119,458,o),
(101,443,o),
(95,420,c),
(95,468,ls),
(95,537,o),
(135,580,o),
(200,580,cs),
(267,580,o),
(305,532,o),
(305,468,cs),
(305,222,ls),
(305,168,o),
(277,140,o),
(223,140,cs),
(135,140,ls),
(84,140,o),
(44,101,o),
(44,50,cs),
(44,-1,o),
(84,-40,o),
(135,-40,cs),
(565,-40,l),
(565,-300,l)
);
},
{
closed = 1;
nodes = (
(95,346,ls),
(95,378,o),
(105,398,o),
(130,398,cs),
(155,398,o),
(165,378,o),
(165,346,cs),
(165,290,ls),
(165,258,o),
(156,238,o),
(130,238,cs),
(105,238,o),
(95,258,o),
(95,290,cs)
);
},
{
closed = 1;
nodes = (
(485,208,ls),
(485,243,o),
(498,260,o),
(525,260,cs),
(552,260,o),
(565,243,o),
(565,208,cs),
(565,40,l),
(519,40,ls),
(495,40,o),
(485,50,o),
(485,82,cs)
);
}
);
width = 800;
}
);
metricLeft = "ca-tamil";
metricRight = "ca-tamil";
},
{
glyphname = "ssa_iiMatra-tamil";
layers = (
{
anchors = (
{
name = imatra;
pos = (525,295);
},
{
name = top;
pos = (355,600);
}
);
layerId = "F56F9D2B-A44F-43C6-93D8-497EB6405965";
shapes = (
{
closed = 1;
nodes = (
(525,320,l),
(477,320,o),
(451,373,o),
(459,428,cs),
(468,487,o),
(521,518,o),
(568,518,c),
(620,490,l),
(630,448,l),
(675,448,l),
(675,515,o),
(629,560,o),
(548,560,cs),
(492,560,o),
(417,530,o),
(401,436,cs),
(386,343,o),
(440,266,o),
(525,260,c)
);
},
{
closed = 1;
nodes = (
(634,358,o),
(675,399,o),
(675,448,cs),
(675,497,o),
(634,538,o),
(585,538,cs),
(536,538,o),
(495,497,o),
(495,448,cs),
(495,399,o),
(536,358,o),
(585,358,cs)
);
},
{
closed = 1;
nodes = (
(569,418,o),
(555,432,o),
(555,448,cs),
(555,465,o),
(569,478,o),
(587,478,cs),
(602,478,o),
(615,465,o),
(615,448,cs),
(615,432,o),
(602,418,o),
(587,418,cs)
);
},
{
closed = 1;
nodes = (
(645,-300,l),
(645,-40,l),
(695,-40,l),
(695,40,l),
(645,40,l),
(645,198,ls),
(645,268,o),
(593,320,o),
(525,320,cs),
(457,320,o),
(405,268,o),
(405,198,cs),
(405,102,ls),
(405,60,o),
(419,44,o),
(432,40,c),
(135,40,ls),
(124,40,o),
(114,40,o),
(114,50,cs),
(114,60,o),
(124,60,o),
(135,60,cs),
(223,60,ls),
(316,60,o),
(385,129,o),
(385,222,cs),
(385,468,ls),
(385,571,o),
(306,640,o),
(210,640,cs),
(114,640,o),
(35,571,o),
(35,468,cs),
(35,295,ls),
(35,220,o),
(66,178,o),
(140,178,cs),
(213,178,o),
(245,212,o),
(245,300,cs),
(245,336,ls),
(245,421,o),
(210,458,o),
(150,458,cs),
(119,458,o),
(101,443,o),
(95,420,c),
(95,468,ls),
(95,537,o),
(135,580,o),
(200,580,cs),
(267,580,o),
(305,532,o),
(305,468,cs),
(305,222,ls),
(305,168,o),
(277,140,o),
(223,140,cs),
(135,140,ls),
(84,140,o),
(44,101,o),
(44,50,cs),
(44,-1,o),
(84,-40,o),
(135,-40,cs),
(565,-40,l),
(565,-300,l)
);
},
{
closed = 1;
nodes = (
(95,346,ls),
(95,378,o),
(105,398,o),
(130,398,cs),
(155,398,o),
(165,378,o),
(165,346,cs),
(165,290,ls),
(165,258,o),
(156,238,o),
(130,238,cs),
(105,238,o),
(95,258,o),
(95,290,cs)
);
},
{
closed = 1;
nodes = (
(485,208,ls),
(485,243,o),
(498,260,o),
(525,260,cs),
(552,260,o),
(565,243,o),
(565,208,cs),
(565,40,l),
(519,40,ls),
(495,40,o),
(485,50,o),
(485,82,cs)
);
}
);
width = 730;
}
);
metricLeft = "ca-tamil";
metricRight = "ca-tamil";
},
{
glyphname = "sa_iMatra-tamil";
layers = (
{
anchors = (
{
name = imatra;
pos = (667,600);
},
{
name = top;
pos = (369,600);
}
);
layerId = "F56F9D2B-A44F-43C6-93D8-497EB6405965";
shapes = (
{
closed = 1;
nodes = (
(789,-40,l),
(789,608,ls),
(789,782,o),
(712,810,o),
(639,810,cs),
(566,810,o),
(509,753,o),
(509,655,cs),
(509,547,o),
(576,464,o),
(641,464,cs),
(669,464,l),
(669,524,l),
(641,524,ls),
(605,524,o),
(569,578,o),
(569,645,cs),
(569,699,o),
(588,740,o),
(639,740,cs),
(684,740,o),
(709,714,o),
(709,608,cs),
(709,-40,l)
);
},
{
closed = 1;
nodes = (
(367,87,l),
(367,443,ls),
(367,545,o),
(325,640,o),
(199,640,cs),
(91,640,o),
(30,562,o),
(30,448,cs),
(30,104,ls),
(30,40,o),
(51,-36,o),
(145,-40,c),
(145,7,l),
(90,7,o),
(90,73,o),
(90,152,cs),
(90,448,ls),
(90,536,o),
(123,580,o),
(189,580,cs),
(255,580,o),
(287,535,o),
(287,443,cs),
(287,87,l)
);
},
{
closed = 1;
nodes = (
(210,-40,o),
(250,7,o),
(250,82,cs),
(250,108,ls),
(250,193,o),
(215,230,o),
(145,230,cs),
(79,230,o),
(40,166,o),
(40,98,cs),
(40,82,ls),
(40,7,o),
(80,-40,o),
(145,-40,cs)
);
},
{
closed = 1;
nodes = (
(110,20,o),
(100,40,o),
(100,72,cs),
(100,118,ls),
(100,150,o),
(110,170,o),
(135,170,cs),
(160,170,o),
(170,150,o),
(170,118,cs),
(170,72,ls),
(170,40,o),
(161,20,o),
(135,20,cs)
);
},
{
closed = 1;
nodes = (
(589,599,l),
(589,66,ls),
(589,36,o),
(576,20,o),
(554,20,cs),
(532,20,o),
(519,36,o),
(519,66,cs),
(519,524,ls),
(519,595,o),
(477,640,o),
(409,640,cs),
(365,640,o),
(314,622,o),
(319,548,c),
(357,516,l),
(342,567,o),
(373,580,o),
(396,580,cs),
(428,580,o),
(439,554,o),
(439,504,cs),
(439,96,ls),
(439,5,o),
(477,-40,o),
(554,-40,cs),
(631,-40,o),
(669,5,o),
(669,96,cs),
(669,599,l)
);
}
);
width = 824;
}
);
metricRight = "ca-tamil";
},
{
glyphname = "sa_iiMatra-tamil";
layers = (
{
layerId = "F56F9D2B-A44F-43C6-93D8-497EB6405965";
shapes = (
{
closed = 1;
nodes = (
(634,570,l),
(596,570,o),
(568,614,o),
(568,658,cs),
(568,712,o),
(597,746,o),
(634,758,c),
(583,702,o),
(616,618,o),
(694,618,cs),
(743,618,o),
(779,659,o),
(779,708,cs),
(779,768,o),
(729,810,o),
(657,810,cs),
(583,810,o),
(522,759,o),
(510,686,cs),
(495,593,o),
(549,510,o),
(634,510,c)
);
},
{
closed = 1;
nodes = (
(676,672,o),
(662,686,o),
(662,702,cs),
(662,719,o),
(676,732,o),
(694,732,cs),
(709,732,o),
(722,719,o),
(722,702,cs),
(722,686,o),
(709,672,o),
(694,672,cs)
);
},
{
closed = 1;
nodes = (
(372,87,l),
(372,443,ls),
(372,545,o),
(330,640,o),
(204,640,cs),
(96,640,o),
(35,562,o),
(35,448,cs),
(35,104,ls),
(35,40,o),
(56,-36,o),
(150,-40,c),
(150,7,l),
(95,7,o),
(95,73,o),
(95,152,cs),
(95,448,ls),
(95,536,o),
(128,580,o),
(194,580,cs),
(260,580,o),
(292,535,o),
(292,443,cs),
(292,87,l)
);
},
{
closed = 1;
nodes = (
(215,-40,o),
(255,7,o),
(255,82,cs),
(255,108,ls),
(255,193,o),
(220,230,o),
(150,230,cs),
(84,230,o),
(45,166,o),
(45,98,cs),
(45,82,ls),
(45,7,o),
(85,-40,o),
(150,-40,cs)
);
},
{
closed = 1;
nodes = (
(115,20,o),
(105,40,o),
(105,72,cs),
(105,118,ls),
(105,150,o),
(115,170,o),
(140,170,cs),
(165,170,o),
(175,150,o),
(175,118,cs),
(175,72,ls),
(175,40,o),
(166,20,o),
(140,20,cs)
);
},
{
closed = 1;
nodes = (
(594,607,l),
(594,66,ls),
(594,36,o),
(581,20,o),
(559,20,cs),
(537,20,o),
(524,36,o),
(524,66,cs),
(524,524,ls),
(524,595,o),
(482,640,o),
(414,640,cs),
(370,640,o),
(319,622,o),
(324,548,c),
(362,516,l),
(347,567,o),
(378,580,o),
(401,580,cs),
(433,580,o),
(444,554,o),
(444,504,cs),
(444,96,ls),
(444,5,o),
(482,-40,o),
(559,-40,cs),
(636,-40,o),
(674,5,o),
(674,96,cs),
(674,607,l)
);
}
);
width = 814;
}
);
metricLeft = "ca-tamil";
metricRight = "ca-tamil";
},
{
glyphname = "k_ssa-tamil";
layers = (
{
anchors = (
{
name = imatra;
pos = (227,600);
},
{
name = top;
pos = (227,600);
}
);
layerId = "F56F9D2B-A44F-43C6-93D8-497EB6405965";
shapes = (
{
closed = 1;
nodes = (
(715,-40,l),
(715,40,l),
(425,40,ls),
(404,40,o),
(394,40,o),
(394,50,cs),
(394,60,o),
(404,60,o),
(425,60,cs),
(543,60,ls),
(626,60,o),
(695,129,o),
(695,225,cs),
(695,320,o),
(626,390,o),
(543,390,cs),
(315,390,ls),
(289,390,o),
(275,386,o),
(275,360,cs),
(275,334,o),
(289,330,o),
(315,330,cs),
(543,330,ls),
(587,330,o),
(615,282,o),
(615,225,cs),
(615,168,o),
(587,140,o),
(543,140,cs),
(425,140,ls),
(374,140,o),
(334,101,o),
(334,50,cs),
(334,-1,o),
(374,-40,o),
(425,-40,cs)
);
},
{
closed = 1;
nodes = (
(255,-40,o),
(315,10,o),
(315,122,cs),
(315,330,l),
(435,330,l),
(435,390,l),
(315,390,l),
(315,560,l),
(425,560,l),
(425,640,l),
(115,640,l),
(115,389,l),
(59,371,o),
(35,328,o),
(35,268,cs),
(35,102,ls),
(35,21,o),
(95,-40,o),
(175,-40,cs)
);
},
{
closed = 1;
nodes = (
(124,30,o),
(95,59,o),
(95,102,cs),
(95,268,ls),
(95,310,o),
(115,330,o),
(147,330,cs),
(235,330,l),
(235,122,ls),
(235,51,o),
(206,30,o),
(162,30,cs)
);
},
{
closed = 1;
nodes = (
(175,560,l),
(235,560,l),
(235,390,l),
(175,390,l)
);
},
{
closed = 1;
nodes = (
(513,120,o),
(545,154,o),
(545,242,cs),
(545,258,ls),
(545,343,o),
(510,380,o),
(440,380,cs),
(374,380,o),
(335,331,o),
(335,250,cs),
(335,169,o),
(364,120,o),
(440,120,cs)
);
},
{
closed = 1;
nodes = (
(395,170,o),
(385,190,o),
(385,222,cs),
(385,278,ls),
(385,310,o),
(395,330,o),
(420,330,cs),
(445,330,o),
(455,310,o),
(455,278,cs),
(455,222,ls),
(455,190,o),
(446,170,o),
(420,170,cs)
);
},
{
closed = 1;
nodes = (
(945,-300,l),
(945,-40,l),
(995,-40,l),
(995,40,l),
(945,40,l),
(945,198,ls),
(945,268,o),
(893,320,o),
(825,320,cs),
(757,320,o),
(705,268,o),
(705,198,cs),
(705,102,ls),
(705,60,o),
(719,44,o),
(732,40,c),
(715,40,ls),
(715,40,o),
(715,-40,o),
(715,-40,cs),
(865,-40,l),
(865,-300,l)
);
},
{
closed = 1;
nodes = (
(785,208,ls),
(785,243,o),
(798,260,o),
(825,260,cs),
(852,260,o),
(865,243,o),
(865,208,cs),
(865,40,l),
(819,40,ls),
(795,40,o),
(785,50,o),
(785,82,cs)
);
}
);
width = 1030;
}
);
metricLeft = "ca-tamil";
metricRight = "ca-tamil";
},
{
glyphname = "k_ssa_iMatra-tamil";
layers = (
{
anchors = (
{
name = imatra;
pos = (226,600);
},
{
name = top;
pos = (505,600);
}
);
layerId = "F56F9D2B-A44F-43C6-93D8-497EB6405965";
shapes = (
{
closed = 1;
nodes = (
(985,-40,o),
(1065,-40,o),
(1065,-40,cs),
(1065,398,ls),
(1065,487,o),
(1007,550,o),
(925,550,cs),
(843,550,o),
(785,487,o),
(785,398,cs),
(785,310,l),
(865,310,l),
(865,408,ls),
(865,458,o),
(888,490,o),
(925,490,cs),
(962,490,o),
(985,458,o),
(985,408,cs),
(985,-40,ls)
);
},
{
closed = 1;
nodes = (
(715,-40,l),
(715,40,l),
(425,40,ls),
(404,40,o),
(394,40,o),
(394,50,cs),
(394,60,o),
(404,60,o),
(425,60,cs),
(543,60,ls),
(626,60,o),
(695,129,o),
(695,225,cs),
(695,320,o),
(626,390,o),
(543,390,cs),
(315,390,ls),
(289,390,o),
(275,386,o),
(275,360,cs),
(275,334,o),
(289,330,o),
(315,330,cs),
(543,330,ls),
(587,330,o),
(615,282,o),
(615,225,cs),
(615,168,o),
(587,140,o),
(543,140,cs),
(425,140,ls),
(374,140,o),
(334,101,o),
(334,50,cs),
(334,-1,o),
(374,-40,o),
(425,-40,cs)
);
},
{
closed = 1;
nodes = (
(255,-40,o),
(315,10,o),
(315,122,cs),
(315,330,l),
(435,330,l),
(435,390,l),
(315,390,l),
(315,560,l),
(425,560,l),
(425,640,l),
(115,640,l),
(115,389,l),
(59,371,o),
(35,328,o),
(35,268,cs),
(35,102,ls),
(35,21,o),
(95,-40,o),
(175,-40,cs)
);
},
{
closed = 1;
nodes = (
(124,30,o),
(95,59,o),
(95,102,cs),
(95,268,ls),
(95,310,o),
(115,330,o),
(147,330,cs),
(235,330,l),
(235,122,ls),
(235,51,o),
(206,30,o),
(162,30,cs)
);
},
{
closed = 1;
nodes = (
(175,560,l),
(235,560,l),
(235,390,l),
(175,390,l)
);
},
{
closed = 1;
nodes = (
(513,120,o),
(545,154,o),
(545,242,cs),
(545,258,ls),
(545,343,o),
(510,380,o),
(440,380,cs),
(374,380,o),
(335,331,o),
(335,250,cs),
(335,169,o),
(364,120,o),
(440,120,cs)
);
},
{
closed = 1;
nodes = (
(395,170,o),
(385,190,o),
(385,222,cs),
(385,278,ls),
(385,310,o),
(395,330,o),
(420,330,cs),
(445,330,o),
(455,310,o),
(455,278,cs),
(455,222,ls),
(455,190,o),
(446,170,o),
(420,170,cs)
);
},
{
closed = 1;
nodes = (
(945,-300,l),
(945,-40,l),
(975,-40,l),
(975,40,l),
(945,40,l),
(945,198,ls),
(945,268,o),
(893,320,o),
(825,320,cs),
(757,320,o),
(705,268,o),
(705,198,cs),
(705,102,ls),
(705,60,o),
(719,44,o),
(732,40,c),
(715,40,ls),
(715,40,o),
(715,-40,o),
(715,-40,cs),
(865,-40,l),
(865,-300,l)
);
},
{
closed = 1;
nodes = (
(785,208,ls),
(785,243,o),
(798,260,o),
(825,260,cs),
(852,260,o),
(865,243,o),
(865,208,cs),
(865,40,l),
(819,40,ls),
(795,40,o),
(785,50,o),
(785,82,cs)
);
}
);
width = 1100;
}
);
metricLeft = "ca-tamil";
metricRight = "ca-tamil";
},
{
glyphname = "k_ssa_iiMatra-tamil";
layers = (
{
anchors = (
{
name = imatra;
pos = (226,600);
},
{
name = top;
pos = (505,600);
}
);
layerId = "F56F9D2B-A44F-43C6-93D8-497EB6405965";
shapes = (
{
closed = 1;
nodes = (
(715,-40,l),
(715,40,l),
(425,40,ls),
(404,40,o),
(394,40,o),
(394,50,cs),
(394,60,o),
(404,60,o),
(425,60,cs),
(543,60,ls),
(626,60,o),
(695,129,o),
(695,225,cs),
(695,320,o),
(626,390,o),
(543,390,cs),
(315,390,ls),
(289,390,o),
(275,386,o),
(275,360,cs),
(275,334,o),
(289,330,o),
(315,330,cs),
(543,330,ls),
(587,330,o),
(615,282,o),
(615,225,cs),
(615,168,o),
(587,140,o),
(543,140,cs),
(425,140,ls),
(374,140,o),
(334,101,o),
(334,50,cs),
(334,-1,o),
(374,-40,o),
(425,-40,cs)
);
},
{
closed = 1;
nodes = (
(255,-40,o),
(315,10,o),
(315,122,cs),
(315,330,l),
(435,330,l),
(435,390,l),
(315,390,l),
(315,560,l),
(425,560,l),
(425,640,l),
(115,640,l),
(115,389,l),
(59,371,o),
(35,328,o),
(35,268,cs),
(35,102,ls),
(35,21,o),
(95,-40,o),
(175,-40,cs)
);
},
{
closed = 1;
nodes = (
(124,30,o),
(95,59,o),
(95,102,cs),
(95,268,ls),
(95,310,o),
(115,330,o),
(147,330,cs),
(235,330,l),
(235,122,ls),
(235,51,o),
(206,30,o),
(162,30,cs)
);
},
{
closed = 1;
nodes = (
(175,560,l),
(235,560,l),
(235,390,l),
(175,390,l)
);
},
{
closed = 1;
nodes = (
(513,120,o),
(545,154,o),
(545,242,cs),
(545,258,ls),
(545,343,o),
(510,380,o),
(440,380,cs),
(374,380,o),
(335,331,o),
(335,250,cs),
(335,169,o),
(364,120,o),
(440,120,cs)
);
},
{
closed = 1;
nodes = (
(395,170,o),
(385,190,o),
(385,222,cs),
(385,278,ls),
(385,310,o),
(395,330,o),
(420,330,cs),
(445,330,o),
(455,310,o),
(455,278,cs),
(455,222,ls),
(455,190,o),
(446,170,o),
(420,170,cs)
);
},
{
closed = 1;
nodes = (
(945,-300,l),
(945,-40,l),
(975,-40,l),
(975,40,l),
(945,40,l),
(945,198,ls),
(945,268,o),
(893,320,o),
(825,320,cs),
(757,320,o),
(705,268,o),
(705,198,cs),
(705,102,ls),
(705,60,o),
(719,44,o),
(732,40,c),
(715,40,ls),
(715,40,o),
(715,-40,o),
(715,-40,cs),
(865,-40,l),
(865,-300,l)
);
},
{
closed = 1;
nodes = (
(785,208,ls),
(785,243,o),
(798,260,o),
(825,260,cs),
(852,260,o),
(865,243,o),
(865,208,cs),
(865,40,l),
(819,40,ls),
(795,40,o),
(785,50,o),
(785,82,cs)
);
},
{
closed = 1;
nodes = (
(825,320,l),
(777,331,o),
(758,372,o),
(769,428,cs),
(778,474,o),
(821,490,o),
(868,490,c),
(920,490,l),
(930,448,l),
(985,448,l),
(985,515,o),
(929,560,o),
(858,560,cs),
(792,560,o),
(717,530,o),
(701,436,cs),
(686,343,o),
(740,266,o),
(825,260,c)
);
},
{
closed = 1;
nodes = (
(944,358,o),
(985,399,o),
(985,448,cs),
(985,497,o),
(944,538,o),
(895,538,cs),
(846,538,o),
(805,497,o),
(805,448,cs),
(805,399,o),
(846,358,o),
(895,358,cs)
);
},
{
closed = 1;
nodes = (
(879,418,o),
(865,432,o),
(865,448,cs),
(865,465,o),
(879,478,o),
(897,478,cs),
(912,478,o),
(925,465,o),
(925,448,cs),
(925,432,o),
(912,418,o),
(897,418,cs)
);
}
);
width = 1020;
}
);
metricLeft = "ca-tamil";
metricRight = "ca-tamil";
},
{
glyphname = "sh_ra_iiMatra-tamil";
layers = (
{
anchors = (
{
name = imatra;
pos = (884,600);
},
{
name = top;
pos = (505,600);
}
);
layerId = "F56F9D2B-A44F-43C6-93D8-497EB6405965";
shapes = (
{
closed = 1;
nodes = (
(745,220,ls),
(745,255,o),
(755,275,o),
(791,275,cs),
(828,275,o),
(845,248,o),
(845,136,cs),
(845,127,ls),
(845,-38,o),
(788,-110,o),
(657,-110,cs),
(218,-110,ls),
(147,-110,o),
(105,-48,o),
(105,23,cs),
(105,490,l),
(35,490,l),
(35,13,ls),
(35,-97,o),
(118,-180,o),
(228,-180,cs),
(657,-180,ls),
(814,-180,o),
(925,-66,o),
(925,97,cs),
(925,165,ls),
(925,298,o),
(885,345,o),
(816,345,cs),
(781,345,o),
(754,322,o),
(745,299,c),
(745,560,l),
(795,560,l),
(795,640,l),
(744,640,l),
(744,678,ls),
(744,743,o),
(774,780,o),
(829,780,cs),
(860,780,o),
(890,762,o),
(899,740,c),
(852,738,o),
(813,698,o),
(813,650,cs),
(813,601,o),
(854,560,o),
(903,560,cs),
(952,560,o),
(993,603,o),
(993,660,cs),
(993,772,o),
(930,840,o),
(829,840,cs),
(732,840,o),
(664,773,o),
(664,678,cs),
(664,640,l),
(627,640,ls),
(594,640,o),
(556,637,o),
(540,602,c),
(528,624,o),
(500,640,o),
(470,640,cs),
(415,640,o),
(375,600,o),
(375,549,cs),
(375,40,l),
(255,40,l),
(255,640,l),
(175,640,l),
(175,-40,l),
(455,-40,l),
(455,549,ls),
(455,565,o),
(455,580,o),
(470,580,cs),
(485,580,o),
(485,565,o),
(485,549,cs),
(485,-40,l),
(565,-40,l),
(565,498,ls),
(565,540,o),
(585,560,o),
(627,560,cs),
(665,560,l),
(665,120,l),
(745,120,l)
);
},
{
closed = 1;
nodes = (
(873,667,o),
(887,680,o),
(905,680,cs),
(920,680,o),
(933,667,o),
(933,650,cs),
(933,634,o),
(920,620,o),
(905,620,cs),
(887,620,o),
(873,634,o),
(873,650,cs)
);
}
);
width = 1028;
}
);
metricLeft = "ca-tamil";
metricRight = "ca-tamil";
},
{
glyphname = "a-tamil";
layers = (
{
layerId = "F56F9D2B-A44F-43C6-93D8-497EB6405965";
shapes = (
{
closed = 1;
nodes = (
(411,244,o),
(425,258,o),
(425,284,cs),
(425,458,ls),
(425,561,o),
(346,640,o),
(245,640,cs),
(144,640,o),
(65,561,o),
(65,478,cs),
(65,454,l),
(115,454,l),
(115,478,ls),
(115,532,o),
(143,570,o),
(215,570,cs),
(307,570,o),
(345,532,o),
(345,458,cs),
(345,284,ls),
(345,258,o),
(359,244,o),
(385,244,cs)
);
},
{
closed = 1;
nodes = (
(356,-40,o),
(425,39,o),
(425,142,cs),
(425,250,ls),
(425,276,o),
(411,290,o),
(385,290,cs),
(35,290,l),
(35,142,ls),
(35,39,o),
(104,-40,o),
(230,-40,cs)
);
},
{
closed = 1;
nodes = (
(143,30,o),
(115,88,o),
(115,142,cs),
(115,210,l),
(345,210,l),
(345,142,ls),
(345,88,o),
(317,30,o),
(230,30,cs)
);
},
{
closed = 1;
nodes = (
(228,328,o),
(265,372,o),
(265,440,cs),
(265,466,ls),
(265,544,o),
(226,588,o),
(160,588,cs),
(104,588,o),
(65,544,o),
(65,466,cs),
(65,440,ls),
(65,372,o),
(94,328,o),
(160,328,cs)
);
},
{
closed = 1;
nodes = (
(135,388,o),
(125,408,o),
(125,440,cs),
(125,476,ls),
(125,508,o),
(135,528,o),
(160,528,cs),
(185,528,o),
(195,508,o),
(195,476,cs),
(195,440,ls),
(195,408,o),
(186,388,o),
(160,388,cs)
);
},
{
closed = 1;
nodes = (
(455,210,ls),
(481,210,o),
(495,224,o),
(495,250,cs),
(495,276,o),
(481,290,o),
(455,290,cs),
(425,290,ls),
(399,290,o),
(385,276,o),
(385,250,cs),
(385,224,o),
(399,210,o),
(425,210,cs)
);
},
{
closed = 1;
nodes = (
(535,-40,l),
(535,450,l),
(455,450,l),
(455,-40,l)
);
}
);
width = 570;
}
);
metricLeft = "ca-tamil";
metricRight = "ca-tamil";
unicode = 2949;
},
{
glyphname = "aa-tamil";
layers = (
{
layerId = "F56F9D2B-A44F-43C6-93D8-497EB6405965";
shapes = (
{
closed = 1;
nodes = (
(411,244,o),
(425,258,o),
(425,284,cs),
(425,458,ls),
(425,561,o),
(346,640,o),
(245,640,cs),
(144,640,o),
(65,561,o),
(65,478,cs),
(65,454,l),
(115,454,l),
(115,478,ls),
(115,532,o),
(143,570,o),
(215,570,cs),
(307,570,o),
(345,532,o),
(345,458,cs),
(345,284,ls),
(345,258,o),
(359,244,o),
(385,244,cs)
);
},
{
closed = 1;
nodes = (
(356,-40,o),
(425,39,o),
(425,142,cs),
(425,250,ls),
(425,276,o),
(411,290,o),
(385,290,cs),
(35,290,l),
(35,142,ls),
(35,39,o),
(104,-40,o),
(230,-40,cs)
);
},
{
closed = 1;
nodes = (
(143,30,o),
(115,88,o),
(115,142,cs),
(115,210,l),
(345,210,l),
(345,142,ls),
(345,88,o),
(317,30,o),
(230,30,cs)
);
},
{
closed = 1;
nodes = (
(228,328,o),
(265,372,o),
(265,440,cs),
(265,466,ls),
(265,544,o),
(226,588,o),
(160,588,cs),
(104,588,o),
(65,544,o),
(65,466,cs),
(65,440,ls),
(65,372,o),
(94,328,o),
(160,328,cs)
);
},
{
closed = 1;
nodes = (
(135,388,o),
(125,408,o),
(125,440,cs),
(125,476,ls),
(125,508,o),
(135,528,o),
(160,528,cs),
(185,528,o),
(195,508,o),
(195,476,cs),
(195,440,ls),
(195,408,o),
(186,388,o),
(160,388,cs)
);
},
{
closed = 1;
nodes = (
(455,210,ls),
(481,210,o),
(495,224,o),
(495,250,cs),
(495,276,o),
(481,290,o),
(455,290,cs),
(425,290,ls),
(399,290,o),
(385,276,o),
(385,250,cs),
(385,224,o),
(399,210,o),
(425,210,cs)
);
},
{
closed = 1;
nodes = (
(535,-40,l),
(535,450,l),
(455,450,l),
(455,-40,l)
);
},
{
closed = 1;
nodes = (
(470,-250,o),
(511,-209,o),
(511,-160,cs),
(511,-111,o),
(470,-70,o),
(421,-70,cs),
(372,-70,o),
(331,-111,o),
(331,-160,cs),
(331,-209,o),
(372,-250,o),
(421,-250,cs)
);
},
{
closed = 1;
nodes = (
(405,-190,o),
(391,-176,o),
(391,-160,cs),
(391,-143,o),
(405,-130,o),
(423,-130,cs),
(438,-130,o),
(451,-143,o),
(451,-160,cs),
(451,-176,o),
(438,-190,o),
(423,-190,cs)
);
},
{
closed = 1;
nodes = (
(484,-250,ls),
(604,-250,o),
(696,-177,o),
(696,-42,cs),
(696,29,o),
(655,81,o),
(596,81,cs),
(569,81,o),
(548,73,o),
(535,59,c),
(535,9,l),
(561,38,o),
(616,19,o),
(616,-62,cs),
(616,-134,o),
(561,-190,o),
(504,-190,cs),
(473,-190,l),
(421,-230,l),
(421,-250,l)
);
}
);
width = 706;
}
);
metricLeft = "ca-tamil";
unicode = 2950;
},
{
glyphname = "i-tamil";
layers = (
{
layerId = "F56F9D2B-A44F-43C6-93D8-497EB6405965";
shapes = (
{
closed = 1;
nodes = (
(553,-40,ls),
(646,-40,o),
(715,49,o),
(715,162,cs),
(715,290,l),
(595,290,ls),
(569,290,o),
(555,276,o),
(555,250,cs),
(555,224,o),
(569,210,o),
(595,210,cs),
(635,210,l),
(635,162,ls),
(635,88,o),
(607,40,o),
(553,40,cs),
(370,40,ls),
(293,40,o),
(225,98,o),
(225,192,cs),
(225,464,ls),
(225,573,o),
(304,660,o),
(430,660,cs),
(549,660,o),
(625,564,o),
(625,464,cs),
(625,330,l),
(705,330,l),
(705,464,ls),
(705,613,o),
(588,730,o),
(430,730,cs),
(257,730,o),
(145,620,o),
(145,464,cs),
(145,182,ls),
(145,39,o),
(279,-40,o),
(370,-40,cs)
);
},
{
closed = 1;
nodes = (
(370,-40,ls),
(462,-40,o),
(605,39,o),
(605,182,cs),
(605,250,ls),
(605,276,o),
(591,290,o),
(565,290,cs),
(35,290,l),
(35,162,ls),
(35,49,o),
(104,-40,o),
(197,-40,cs)
);
},
{
closed = 1;
nodes = (
(133,40,o),
(115,88,o),
(115,162,cs),
(115,210,l),
(525,210,l),
(525,192,ls),
(525,98,o),
(457,40,o),
(370,40,cs),
(187,40,ls)
);
},
{
closed = 1;
nodes = (
(305,388,o),
(295,408,o),
(295,440,cs),
(295,476,ls),
(295,508,o),
(305,528,o),
(330,528,cs),
(355,528,o),
(365,508,o),
(365,476,cs),
(365,440,ls),
(365,408,o),
(356,388,o),
(330,388,cs)
);
},
{
closed = 1;
nodes = (
(408,328,o),
(445,372,o),
(445,440,cs),
(445,466,ls),
(445,544,o),
(406,588,o),
(340,588,cs),
(284,588,o),
(245,544,o),
(245,466,cs),
(245,440,ls),
(245,372,o),
(274,328,o),
(340,328,cs)
);
},
{
closed = 1;
nodes = (
(591,244,o),
(605,258,o),
(605,284,c),
(525,284,l),
(525,258,o),
(539,244,o),
(565,244,cs)
);
},
{
closed = 1;
nodes = (
(605,284,l),
(605,458,ls),
(605,561,o),
(526,640,o),
(425,640,cs),
(324,640,o),
(245,561,o),
(245,478,cs),
(245,454,l),
(295,454,l),
(295,478,ls),
(295,532,o),
(323,570,o),
(395,570,cs),
(487,570,o),
(525,532,o),
(525,458,cs),
(525,284,l)
);
}
);
width = 750;
}
);
metricLeft = "ca-tamil";
metricRight = "ca-tamil";
unicode = 2951;
},
{
glyphname = "ii-tamil";
layers = (
{
layerId = "F56F9D2B-A44F-43C6-93D8-497EB6405965";
shapes = (
{
closed = 1;
nodes = (
(115,0,l),
(115,560,l),
(325,560,l),
(325,0,l),
(365,0,l),
(405,0,l),
(405,600,ls),
(405,626,o),
(391,640,o),
(365,640,cs),
(35,640,l),
(35,0,l)
);
},
{
closed = 1;
nodes = (
(269,210,o),
(310,251,o),
(310,300,cs),
(310,349,o),
(269,390,o),
(220,390,cs),
(171,390,o),
(130,349,o),
(130,300,cs),
(130,251,o),
(171,210,o),
(220,210,cs)
);
},
{
closed = 1;
nodes = (
(204,270,o),
(190,284,o),
(190,300,cs),
(190,317,o),
(204,330,o),
(222,330,cs),
(237,330,o),
(250,317,o),
(250,300,cs),
(250,284,o),
(237,270,o),
(222,270,cs)
);
},
{
closed = 1;
nodes = (
(569,210,o),
(610,251,o),
(610,300,cs),
(610,349,o),
(569,390,o),
(520,390,cs),
(471,390,o),
(430,349,o),
(430,300,cs),
(430,251,o),
(471,210,o),
(520,210,cs)
);
},
{
closed = 1;
nodes = (
(504,270,o),
(490,284,o),
(490,300,cs),
(490,317,o),
(504,330,o),
(522,330,cs),
(537,330,o),
(550,317,o),
(550,300,cs),
(550,284,o),
(537,270,o),
(522,270,cs)
);
},
{
closed = 1;
nodes = (
(515,560,l),
(515,600,l),
(515,640,l),
(365,640,l),
(365,560,l)
);
}
);
width = 645;
}
);
metricLeft = "ca-tamil";
metricRight = "ca-tamil";
unicode = 2952;
},
{
glyphname = "u-tamil";
layers = (
{
layerId = "F56F9D2B-A44F-43C6-93D8-497EB6405965";
shapes = (
{
closed = 1;
nodes = (
(495,-40,l),
(495,40,l),
(135,40,ls),
(124,40,o),
(114,40,o),
(114,50,cs),
(114,60,o),
(124,60,o),
(135,60,cs),
(223,60,ls),
(316,60,o),
(385,129,o),
(385,222,cs),
(385,468,ls),
(385,571,o),
(306,640,o),
(210,640,cs),
(114,640,o),
(35,571,o),
(35,468,cs),
(35,295,l),
(95,295,l),
(95,468,ls),
(95,537,o),
(135,580,o),
(200,580,cs),
(267,580,o),
(305,532,o),
(305,468,cs),
(305,222,ls),
(305,168,o),
(277,140,o),
(223,140,cs),
(135,140,ls),
(84,140,o),
(44,101,o),
(44,50,cs),
(44,-1,o),
(84,-40,o),
(135,-40,cs)
);
},
{
closed = 1;
nodes = (
(213,178,o),
(245,212,o),
(245,300,cs),
(245,336,ls),
(245,421,o),
(210,458,o),
(140,458,cs),
(74,458,o),
(35,394,o),
(35,316,cs),
(35,300,ls),
(35,222,o),
(64,178,o),
(140,178,cs)
);
},
{
closed = 1;
nodes = (
(105,238,o),
(95,258,o),
(95,290,cs),
(95,346,ls),
(95,378,o),
(105,398,o),
(130,398,cs),
(155,398,o),
(165,378,o),
(165,346,cs),
(165,290,ls),
(165,258,o),
(156,238,o),
(130,238,cs)
);
}
);
width = 530;
}
);
metricLeft = "ca-tamil";
metricRight = "ca-tamil";
unicode = 2953;
},
{
glyphname = "uu-tamil";
layers = (
{
layerId = "F56F9D2B-A44F-43C6-93D8-497EB6405965";
shapes = (
{
closed = 1;
nodes = (
(485,212,l),
(485,425,ls),
(485,496,o),
(515,520,o),
(555,520,cs),
(585,520,o),
(625,496,o),
(625,435,cs),
(625,350,l),
(685,350,l),
(685,435,ls),
(685,537,o),
(617,590,o),
(555,590,cs),
(493,590,o),
(425,534,o),
(425,435,cs),
(425,212,l)
);
},
{
closed = 1;
nodes = (
(840,78,l),
(840,590,l),
(645,590,l),
(645,350,l),
(705,350,l),
(705,510,l),
(760,510,l),
(760,78,l)
);
},
{
closed = 1;
nodes = (
(880,510,l),
(880,590,l),
(793,590,l),
(793,510,l)
);
},
{
closed = 1;
nodes = (
(895,-40,l),
(895,40,l),
(135,40,ls),
(124,40,o),
(114,40,o),
(114,50,cs),
(114,60,o),
(124,60,o),
(135,60,cs),
(223,60,ls),
(316,60,o),
(385,129,o),
(385,222,cs),
(385,468,ls),
(385,571,o),
(306,640,o),
(210,640,cs),
(114,640,o),
(35,571,o),
(35,468,cs),
(35,295,l),
(95,295,l),
(95,468,ls),
(95,537,o),
(135,580,o),
(200,580,cs),
(267,580,o),
(305,532,o),
(305,468,cs),
(305,222,ls),
(305,168,o),
(277,140,o),
(223,140,cs),
(135,140,ls),
(84,140,o),
(44,101,o),
(44,50,cs),
(44,-1,o),
(84,-40,o),
(135,-40,cs)
);
},
{
closed = 1;
nodes = (
(213,178,o),
(245,212,o),
(245,300,cs),
(245,336,ls),
(245,421,o),
(210,458,o),
(140,458,cs),
(74,458,o),
(35,394,o),
(35,316,cs),
(35,300,ls),
(35,222,o),
(64,178,o),
(140,178,cs)
);
},
{
closed = 1;
nodes = (
(105,238,o),
(95,258,o),
(95,290,cs),
(95,346,ls),
(95,378,o),
(105,398,o),
(130,398,cs),
(155,398,o),
(165,378,o),
(165,346,cs),
(165,290,ls),
(165,258,o),
(156,238,o),
(130,238,cs)
);
},
{
closed = 1;
nodes = (
(595,78,o),
(635,125,o),
(635,200,cs),
(635,226,ls),
(635,311,o),
(600,348,o),
(530,348,cs),
(464,348,o),
(425,284,o),
(425,216,cs),
(425,200,ls),
(425,125,o),
(465,78,o),
(530,78,cs)
);
},
{
closed = 1;
nodes = (
(495,138,o),
(485,158,o),
(485,190,cs),
(485,236,ls),
(485,268,o),
(495,288,o),
(520,288,cs),
(545,288,o),
(555,268,o),
(555,236,cs),
(555,190,ls),
(555,158,o),
(546,138,o),
(520,138,cs)
);
}
);
width = 930;
}
);
metricLeft = "ca-tamil";
metricRight = "ca-tamil";
unicode = 2954;
},
{
glyphname = "e-tamil";
layers = (
{
layerId = "F56F9D2B-A44F-43C6-93D8-497EB6405965";
shapes = (
{
closed = 1;
nodes = (
(435,0,l),
(435,600,ls),
(435,626,o),
(421,640,o),
(395,640,cs),
(299,640,ls),
(116,640,o),
(35,543,o),
(35,366,cs),
(35,130,ls),
(35,130,o),
(95,130,o),
(95,130,cs),
(95,346,ls),
(95,488,o),
(157,560,o),
(259,560,cs),
(355,560,l),
(355,0,l)
);
},
{
closed = 1;
nodes = (
(515,560,l),
(515,640,l),
(375,640,ls),
(349,640,o),
(335,626,o),
(335,600,cs),
(335,574,o),
(349,560,o),
(375,560,cs)
);
},
{
closed = 1;
nodes = (
(213,0,o),
(245,34,o),
(245,122,cs),
(245,148,ls),
(245,233,o),
(210,270,o),
(140,270,cs),
(74,270,o),
(35,206,o),
(35,138,cs),
(35,122,ls),
(35,44,o),
(64,0,o),
(140,0,cs)
);
},
{
closed = 1;
nodes = (
(105,60,o),
(95,80,o),
(95,112,cs),
(95,158,ls),
(95,190,o),
(105,210,o),
(130,210,cs),
(155,210,o),
(165,190,o),
(165,158,cs),
(165,112,ls),
(165,80,o),
(156,60,o),
(130,60,cs)
);
}
);
width = 540;
}
);
metricLeft = "ca-tamil";
unicode = 2958;
},
{
glyphname = "ee-tamil";
layers = (
{
layerId = "F56F9D2B-A44F-43C6-93D8-497EB6405965";
shapes = (
{
closed = 1;
nodes = (
(262,-300,l),
(435,0,l),
(355,0,l),
(182,-300,l)
);
},
{
closed = 1;
nodes = (
(435,0,l),
(435,600,ls),
(435,626,o),
(421,640,o),
(395,640,cs),
(299,640,ls),
(116,640,o),
(35,543,o),
(35,366,cs),
(35,130,ls),
(35,130,o),
(95,130,o),
(95,130,cs),
(95,346,ls),
(95,488,o),
(157,560,o),
(259,560,cs),
(355,560,l),
(355,0,l)
);
},
{
closed = 1;
nodes = (
(515,560,l),
(515,640,l),
(375,640,ls),
(349,640,o),
(335,626,o),
(335,600,cs),
(335,574,o),
(349,560,o),
(375,560,cs)
);
},
{
closed = 1;
nodes = (
(213,0,o),
(245,34,o),
(245,122,cs),
(245,148,ls),
(245,233,o),
(210,270,o),
(140,270,cs),
(74,270,o),
(35,206,o),
(35,138,cs),
(35,122,ls),
(35,44,o),
(64,0,o),
(140,0,cs)
);
},
{
closed = 1;
nodes = (
(105,60,o),
(95,80,o),
(95,112,cs),
(95,158,ls),
(95,190,o),
(105,210,o),
(130,210,cs),
(155,210,o),
(165,190,o),
(165,158,cs),
(165,112,ls),
(165,80,o),
(156,60,o),
(130,60,cs)
);
}
);
width = 550;
}
);
metricLeft = "ca-tamil";
metricRight = "ca-tamil";
unicode = 2959;
},
{
glyphname = "ai-tamil";
layers = (
{
layerId = "F56F9D2B-A44F-43C6-93D8-497EB6405965";
shapes = (
{
closed = 1;
nodes = (
(281,-40,o),
(335,38,o),
(335,162,c),
(275,162,l),
(282,75,o),
(247,20,o),
(184,20,cs),
(142,20,o),
(105,49,o),
(105,106,cs),
(105,160,o),
(163,199,o),
(274,229,cs),
(374,256,ls),
(528,298,o),
(595,371,o),
(595,492,cs),
(595,575,o),
(533,640,o),
(435,640,cs),
(294,640,o),
(295,506,o),
(295,401,c),
(355,401,l),
(347,506,o),
(368,580,o),
(435,580,cs),
(484,580,o),
(515,538,o),
(515,482,cs),
(515,414,o),
(465,353,o),
(350,321,cs),
(250,293,ls),
(100,251,o),
(35,191,o),
(35,106,cs),
(35,16,o),
(92,-40,o),
(184,-40,cs)
);
},
{
closed = 1;
nodes = (
(529,-40,o),
(595,12,o),
(595,117,cs),
(595,188,o),
(557,251,o),
(465,251,c),
(465,171,l),
(508,171,o),
(518,138,o),
(518,106,cs),
(518,53,o),
(490,20,o),
(445,20,cs),
(383,20,o),
(348,75,o),
(355,162,c),
(295,162,l),
(292,39,o),
(346,-40,o),
(445,-40,cs)
);
},
{
closed = 1;
nodes = (
(335,401,l),
(335,506,o),
(336,640,o),
(185,640,cs),
(98,640,o),
(35,570,o),
(35,478,cs),
(35,437,l),
(85,437,l),
(85,478,ls),
(85,534,o),
(109,580,o),
(174,580,cs),
(261,580,o),
(283,506,o),
(275,401,c)
);
},
{
closed = 1;
nodes = (
(207,300,o),
(245,344,o),
(245,422,cs),
(245,448,ls),
(245,533,o),
(210,570,o),
(140,570,cs),
(74,570,o),
(35,506,o),
(35,438,cs),
(35,422,ls),
(35,347,o),
(75,300,o),
(140,300,cs)
);
},
{
closed = 1;
nodes = (
(105,360,o),
(95,380,o),
(95,412,cs),
(95,458,ls),
(95,490,o),
(105,510,o),
(130,510,cs),
(155,510,o),
(165,490,o),
(165,458,cs),
(165,412,ls),
(165,380,o),
(156,360,o),
(130,360,cs)
);
}
);
width = 630;
}
);
metricLeft = "ca-tamil";
metricRight = "ca-tamil";
unicode = 2960;
},
{
glyphname = "o-tamil";
layers = (
{
layerId = "F56F9D2B-A44F-43C6-93D8-497EB6405965";
shapes = (
{
closed = 1;
nodes = (
(351,-253,o),
(414,-189,o),
(414,-116,cs),
(414,-76,o),
(431,-43,o),
(473,-43,cs),
(478,-43,l),
(478,37,l),
(437,37,ls),
(401,37,o),
(385,56,o),
(385,92,cs),
(385,97,l),
(505,97,l),
(505,396,ls),
(505,554,o),
(409,640,o),
(270,640,cs),
(121,640,o),
(35,544,o),
(35,416,cs),
(35,280,l),
(95,280,l),
(95,416,ls),
(95,506,o),
(159,560,o),
(260,560,cs),
(341,560,o),
(425,526,o),
(425,396,cs),
(425,177,l),
(385,177,l),
(385,227,l),
(305,227,l),
(305,92,ls),
(305,46,o),
(327,6,o),
(362,-18,c),
(341,-47,o),
(334,-72,o),
(334,-116,cs),
(334,-155,o),
(307,-183,o),
(259,-183,cs),
(211,-183,o),
(184,-152,o),
(184,-96,cs),
(184,-76,l),
(124,-76,l),
(124,-96,ls),
(124,-197,o),
(176,-253,o),
(269,-253,cs)
);
},
{
closed = 1;
nodes = (
(205,150,o),
(245,197,o),
(245,272,cs),
(245,298,ls),
(245,383,o),
(210,420,o),
(140,420,cs),
(74,420,o),
(35,356,o),
(35,288,cs),
(35,272,ls),
(35,197,o),
(75,150,o),
(140,150,cs)
);
},
{
closed = 1;
nodes = (
(105,210,o),
(95,230,o),
(95,262,cs),
(95,308,ls),
(95,340,o),
(105,360,o),
(130,360,cs),
(155,360,o),
(165,340,o),
(165,308,cs),
(165,262,l),
(165,230,o),
(156,210,o),
(130,210,cs)
);
}
);
width = 540;
}
);
metricLeft = "ca-tamil";
metricRight = "ca-tamil";
unicode = 2962;
},
{
glyphname = "oo-tamil";
layers = (
{
layerId = "F56F9D2B-A44F-43C6-93D8-497EB6405965";
shapes = (
{
closed = 1;
nodes = (
(263,-186,o),
(304,-155,o),
(304,-96,cs),
(304,-47,o),
(263,-6,o),
(214,-6,cs),
(165,-6,o),
(124,-47,o),
(124,-96,cs),
(124,-145,o),
(165,-186,o),
(214,-186,cs)
);
},
{
closed = 1;
nodes = (
(198,-126,o),
(184,-112,o),
(184,-96,cs),
(184,-79,o),
(198,-66,o),
(216,-66,cs),
(231,-66,o),
(244,-79,o),
(244,-96,cs),
(244,-112,o),
(231,-126,o),
(216,-126,cs)
);
},
{
closed = 1;
nodes = (
(351,-253,o),
(414,-189,o),
(414,-106,cs),
(414,-76,o),
(431,-43,o),
(473,-43,cs),
(478,-43,l),
(478,37,l),
(437,37,ls),
(401,37,o),
(385,56,o),
(385,92,cs),
(385,97,l),
(505,97,l),
(505,396,ls),
(505,554,o),
(409,640,o),
(270,640,cs),
(121,640,o),
(35,544,o),
(35,416,cs),
(35,280,l),
(95,280,l),
(95,416,ls),
(95,506,o),
(159,560,o),
(260,560,cs),
(341,560,o),
(425,526,o),
(425,396,cs),
(425,177,l),
(385,177,l),
(385,227,l),
(305,227,l),
(305,92,ls),
(305,46,o),
(327,6,o),
(362,-18,c),
(344,-42,o),
(334,-62,o),
(334,-106,cs),
(334,-151,o),
(304,-193,o),
(250,-193,cs),
(210,-193,o),
(179,-170,o),
(179,-131,c),
(124,-96,l),
(124,-193,o),
(189,-253,o),
(269,-253,cs)
);
},
{
closed = 1;
nodes = (
(205,150,o),
(245,197,o),
(245,272,cs),
(245,298,ls),
(245,383,o),
(210,420,o),
(140,420,cs),
(74,420,o),
(35,356,o),
(35,288,cs),
(35,272,ls),
(35,197,o),
(75,150,o),
(140,150,cs)
);
},
{
closed = 1;
nodes = (
(105,210,o),
(95,230,o),
(95,262,cs),
(95,308,ls),
(95,340,o),
(105,360,o),
(130,360,cs),
(155,360,o),
(165,340,o),
(165,308,cs),
(165,262,ls),
(165,230,o),
(156,210,o),
(130,210,cs)
);
}
);
width = 540;
}
);
metricLeft = "ca-tamil";
metricRight = "ca-tamil";
unicode = 2963;
},
{
glyphname = "au-tamil";
layers = (
{
layerId = "F56F9D2B-A44F-43C6-93D8-497EB6405965";
shapes = (
{
closed = 1;
nodes = (
(615,30,l),
(615,117,l),
(615,338,ls),
(615,420,o),
(649,460,o),
(719,460,cs),
(774,460,o),
(822,424,o),
(822,338,cs),
(822,190,l),
(902,190,l),
(902,460,l),
(1012,460,l),
(1012,-40,l),
(1092,-40,l),
(1092,460,l),
(1162,460,l),
(1162,540,l),
(822,540,l),
(822,480,l),
(807,516,o),
(761,540,o),
(709,540,cs),
(616,540,o),
(555,480,o),
(555,378,cs),
(555,104,ls),
(555,49,o),
(569,-40,o),
(670,-40,c)
);
},
{
closed = 1;
nodes = (
(351,-253,o),
(414,-189,o),
(414,-116,cs),
(414,-76,o),
(431,-43,o),
(473,-43,cs),
(478,-43,l),
(478,37,l),
(437,37,ls),
(401,37,o),
(385,56,o),
(385,92,cs),
(385,97,l),
(505,97,l),
(505,396,ls),
(505,554,o),
(409,640,o),
(270,640,cs),
(121,640,o),
(35,544,o),
(35,416,cs),
(35,280,l),
(95,280,l),
(95,416,ls),
(95,506,o),
(159,560,o),
(260,560,cs),
(341,560,o),
(425,526,o),
(425,396,cs),
(425,177,l),
(385,177,l),
(385,227,l),
(305,227,l),
(305,92,ls),
(305,46,o),
(327,6,o),
(362,-18,c),
(341,-47,o),
(334,-72,o),
(334,-116,cs),
(334,-155,o),
(307,-183,o),
(259,-183,cs),
(211,-183,o),
(184,-152,o),
(184,-96,cs),
(184,-76,l),
(124,-76,l),
(124,-96,ls),
(124,-197,o),
(176,-253,o),
(269,-253,cs)
);
},
{
closed = 1;
nodes = (
(205,150,o),
(245,197,o),
(245,272,cs),
(245,298,ls),
(245,383,o),
(210,420,o),
(140,420,cs),
(74,420,o),
(35,356,o),
(35,288,cs),
(35,272,ls),
(35,197,o),
(75,150,o),
(140,150,cs)
);
},
{
closed = 1;
nodes = (
(105,210,o),
(95,230,o),
(95,262,cs),
(95,308,ls),
(95,340,o),
(105,360,o),
(130,360,cs),
(155,360,o),
(165,340,o),
(165,308,cs),
(165,262,ls),
(165,230,o),
(156,210,o),
(130,210,cs)
);
},
{
closed = 1;
nodes = (
(735,-40,o),
(775,7,o),
(775,82,cs),
(775,108,ls),
(775,193,o),
(740,230,o),
(670,230,cs),
(604,230,o),
(565,166,o),
(565,98,cs),
(565,82,ls),
(565,7,o),
(605,-40,o),
(670,-40,cs)
);
},
{
closed = 1;
nodes = (
(635,20,o),
(625,40,o),
(625,72,cs),
(625,118,ls),
(625,150,o),
(635,170,o),
(660,170,cs),
(685,170,o),
(695,150,o),
(695,118,cs),
(695,72,ls),
(695,40,o),
(686,20,o),
(660,20,cs)
);
}
);
width = 1197;
}
);
metricLeft = "ca-tamil";
metricRight = "ca-tamil";
unicode = 2964;
},
{
glyphname = "ka-tamil";
layers = (
{
anchors = (
{
name = imatra;
pos = (279,600);
},
{
name = top;
pos = (277,600);
}
);
layerId = "F56F9D2B-A44F-43C6-93D8-497EB6405965";
shapes = (
{
closed = 1;
nodes = (
(202,-40,o),
(235,-32,o),
(257,-11,c),
(270,-23,o),
(297,-40,o),
(335,-40,cs),
(442,-40,o),
(475,66,o),
(475,175,cs),
(475,286,o),
(440,390,o),
(315,390,c),
(315,560,l),
(415,560,l),
(415,640,l),
(115,640,l),
(115,379,l),
(58,357,o),
(35,308,o),
(35,248,cs),
(35,102,ls),
(35,21,o),
(95,-40,o),
(175,-40,cs)
);
},
{
closed = 1;
nodes = (
(118,30,o),
(95,60,o),
(95,122,cs),
(95,228,ls),
(95,290,o),
(125,310,o),
(157,310,cs),
(235,310,l),
(235,122,ls),
(235,59,o),
(206,30,o),
(165,30,cs)
);
},
{
closed = 1;
nodes = (
(320,17,o),
(299,20,o),
(289,30,c),
(308,50,o),
(315,80,o),
(315,112,cs),
(315,310,l),
(380,310,o),
(395,266,o),
(395,175,cs),
(395,84,o),
(385,18,o),
(328,17,cs)
);
},
{
closed = 1;
nodes = (
(175,560,l),
(235,560,l),
(235,390,l),
(175,390,l)
);
}
);
width = 510;
}
);
metricLeft = "ca-tamil";
metricRight = "ca-tamil";
unicode = 2965;
},
{
glyphname = "nga-tamil";
layers = (
{
anchors = (
{
name = imatra;
pos = (255,600);
},
{
name = top;
pos = (255,600);
}
);
layerId = "F56F9D2B-A44F-43C6-93D8-497EB6405965";
shapes = (
{
closed = 1;
nodes = (
(585,-40,l),
(585,450,l),
(505,450,l),
(505,40,l),
(403,39,l),
(454,65,o),
(475,139,o),
(475,205,cs),
(475,338,o),
(435,385,o),
(366,385,cs),
(331,385,o),
(304,362,o),
(295,339,c),
(295,560,l),
(425,560,l),
(425,640,l),
(35,640,l),
(35,-40,l),
(115,-40,l),
(115,560,l),
(215,560,l),
(215,160,l),
(295,160,l),
(295,260,ls),
(295,295,o),
(319,315,o),
(341,315,cs),
(378,315,o),
(395,288,o),
(395,175,cs),
(395,95,o),
(362,40,o),
(277,38,c),
(277,-42,l)
);
}
);
width = 620;
}
);
metricLeft = "ca-tamil";
metricRight = "ca-tamil";
unicode = 2969;
},
{
glyphname = "ca-tamil";
layers = (
{
anchors = (
{
name = imatra;
pos = (315,600);
},
{
name = top;
pos = (275,600);
}
);
layerId = "F56F9D2B-A44F-43C6-93D8-497EB6405965";
shapes = (
{
closed = 1;
nodes = (
(255,-40,o),
(315,10,o),
(315,122,cs),
(315,310,l),
(425,310,l),
(425,390,l),
(315,390,l),
(315,560,l),
(425,560,l),
(425,640,l),
(115,640,l),
(115,369,l),
(59,351,o),
(35,308,o),
(35,248,cs),
(35,102,ls),
(35,21,o),
(95,-40,o),
(175,-40,cs)
);
},
{
closed = 1;
nodes = (
(124,30,o),
(95,59,o),
(95,102,cs),
(95,248,ls),
(95,290,o),
(115,310,o),
(147,310,cs),
(235,310,l),
(235,122,ls),
(235,51,o),
(206,30,o),
(162,30,cs)
);
},
{
closed = 1;
nodes = (
(175,560,l),
(235,560,l),
(235,390,l),
(175,390,l)
);
}
);
width = 460;
}
);
unicode = 2970;
},
{
glyphname = "ja-tamil";
layers = (
{
anchors = (
{
name = imatra;
pos = (456,600);
},
{
name = top;
pos = (335,600);
}
);
layerId = "F56F9D2B-A44F-43C6-93D8-497EB6405965";
shapes = (
{
closed = 1;
nodes = (
(329,-40,o),
(344,170,o),
(459,170,cs),
(498,170,o),
(525,140,o),
(525,96,cs),
(525,44,o),
(496,18,o),
(470,18,cs),
(445,18,o),
(431,33,o),
(431,59,c),
(360,59,l),
(360,-6,o),
(406,-42,o),
(470,-42,cs),
(543,-42,o),
(595,13,o),
(595,91,cs),
(595,179,o),
(546,237,o),
(459,237,cs),
(401,237,o),
(340,197,o),
(290,115,cs),
(211,-14,o),
(111,17,o),
(111,106,cs),
(111,163,o),
(159,190,o),
(274,221,cs),
(374,248,ls),
(515,286,o),
(595,368,o),
(595,482,cs),
(595,579,o),
(543,640,o),
(445,640,cs),
(305,640,o),
(285,482,o),
(295,401,c),
(355,401,l),
(345,521,o),
(382,580,o),
(445,580,cs),
(494,580,o),
(517,541,o),
(517,491,cs),
(517,409,o),
(471,355,o),
(352,322,cs),
(252,294,ls),
(97,251,o),
(35,194,o),
(35,106,cs),
(35,24,o),
(101,-40,o),
(184,-40,cs)
);
},
{
closed = 1;
nodes = (
(335,401,l),
(341,482,o),
(336,640,o),
(185,640,cs),
(98,640,o),
(35,570,o),
(35,478,cs),
(35,437,l),
(85,437,l),
(85,478,ls),
(85,534,o),
(109,580,o),
(174,580,cs),
(261,580,o),
(283,506,o),
(275,401,c)
);
},
{
closed = 1;
nodes = (
(207,300,o),
(245,344,o),
(245,422,cs),
(245,448,ls),
(245,533,o),
(210,570,o),
(140,570,cs),
(74,570,o),
(35,506,o),
(35,438,cs),
(35,422,ls),
(35,347,o),
(75,300,o),
(140,300,cs)
);
},
{
closed = 1;
nodes = (
(105,360,o),
(95,380,o),
(95,412,cs),
(95,458,ls),
(95,490,o),
(105,510,o),
(130,510,cs),
(155,510,o),
(165,490,o),
(165,458,cs),
(165,412,ls),
(165,380,o),
(156,360,o),
(130,360,cs)
);
}
);
width = 630;
}
);
metricLeft = "ca-tamil";
metricRight = "ca-tamil";
unicode = 2972;
},
{
glyphname = "nya-tamil";
layers = (
{
anchors = (
{
name = imatra;
pos = (555,600);
},
{
name = top;
pos = (435,600);
}
);
layerId = "F56F9D2B-A44F-43C6-93D8-497EB6405965";
shapes = (
{
closed = 1;
nodes = (
(573,-180,o),
(715,-46,o),
(715,202,cs),
(715,288,o),
(702,387,o),
(606,387,cs),
(527,387,o),
(515,312,o),
(515,262,c),
(535,262,l),
(535,287,o),
(540,327,o),
(586,327,cs),
(634,327,o),
(635,274,o),
(635,206,cs),
(635,-3,o),
(547,-105,o),
(365,-105,cs),
(203,-105,o),
(105,-2,o),
(105,146,cs),
(105,266,l),
(35,266,l),
(35,146,ls),
(35,-41,o),
(174,-180,o),
(375,-180,cs)
);
},
{
closed = 1;
nodes = (
(535,90,l),
(535,600,ls),
(535,626,o),
(521,640,o),
(495,640,cs),
(409,640,ls),
(232,640,o),
(145,546,o),
(145,366,cs),
(145,170,l),
(205,170,l),
(205,366,ls),
(205,486,o),
(259,560,o),
(369,560,cs),
(455,560,l),
(455,90,l)
);
},
{
closed = 1;
nodes = (
(615,560,l),
(615,640,l),
(475,640,ls),
(449,640,o),
(435,626,o),
(435,600,cs),
(435,574,o),
(449,560,o),
(475,560,cs)
);
},
{
closed = 1;
nodes = (
(315,40,o),
(355,87,o),
(355,162,cs),
(355,188,ls),
(355,273,o),
(320,310,o),
(250,310,cs),
(184,310,o),
(145,246,o),
(145,178,cs),
(145,162,ls),
(145,87,o),
(185,40,o),
(250,40,cs)
);
},
{
closed = 1;
nodes = (
(215,100,o),
(205,120,o),
(205,152,cs),
(205,198,ls),
(205,230,o),
(215,250,o),
(240,250,cs),
(265,250,o),
(275,230,o),
(275,198,cs),
(275,152,ls),
(275,120,o),
(266,100,o),
(240,100,cs)
);
}
);
width = 750;
}
);
metricLeft = "ca-tamil";
metricRight = "ca-tamil";
unicode = 2974;
},
{
glyphname = "tta-tamil";
layers = (
{
anchors = (
{
name = imatra;
pos = (225,0);
},
{
name = top;
pos = (225,600);
}
);
layerId = "F56F9D2B-A44F-43C6-93D8-497EB6405965";
shapes = (
{
closed = 1;
nodes = (
(415,-40,l),
(415,40,l),
(115,40,l),
(115,640,l),
(35,640,l),
(35,-40,l)
);
}
);
width = 450;
}
);
metricLeft = "ca-tamil";
metricRight = "ca-tamil";
unicode = 2975;
},
{
glyphname = "nna-tamil";
layers = (
{
anchors = (
{
name = imatra;
pos = (965,600);
},
{
name = top;
pos = (543,600);
}
);
layerId = "F56F9D2B-A44F-43C6-93D8-497EB6405965";
shapes = (
{
closed = 1;
nodes = (
(180,14,l),
(101,14,o),
(105,62,o),
(104,102,cs),
(105,346,ls),
(105,506,o),
(179,560,o),
(299,560,cs),
(1045,560,l),
(1045,640,l),
(289,640,ls),
(131,640,o),
(35,544,o),
(35,346,cs),
(35,128,ls),
(35,19,o),
(101,-40,o),
(180,-40,c)
);
},
{
closed = 1;
nodes = (
(506,-40,o),
(562,16,o),
(562,89,cs),
(562,491,ls),
(562,564,o),
(507,640,o),
(436,640,cs),
(363,640,o),
(307,564,o),
(307,491,cs),
(307,89,ls),
(307,16,o),
(361,-40,o),
(434,-40,cs)
);
},
{
closed = 1;
nodes = (
(399,20,o),
(387,42,o),
(387,109,cs),
(387,491,ls),
(387,539,o),
(402,560,o),
(436,560,cs),
(468,560,o),
(482,539,o),
(482,491,cs),
(482,109,ls),
(482,42,o),
(470,20,o),
(434,20,cs)
);
},
{
closed = 1;
nodes = (
(796,-40,o),
(852,16,o),
(852,89,cs),
(852,491,ls),
(852,564,o),
(797,640,o),
(726,640,cs),
(653,640,o),
(597,564,o),
(597,491,cs),
(597,89,ls),
(597,16,o),
(652,-40,o),
(724,-40,cs)
);
},
{
closed = 1;
nodes = (
(689,20,o),
(677,42,o),
(677,109,cs),
(677,491,ls),
(677,539,o),
(692,560,o),
(726,560,cs),
(758,560,o),
(772,539,o),
(772,491,cs),
(772,109,ls),
(772,42,o),
(760,20,o),
(724,20,cs)
);
},
{
closed = 1;
nodes = (
(965,-40,l),
(965,600,ls),
(965,600,o),
(885,600,o),
(885,600,cs),
(885,-40,l)
);
},
{
closed = 1;
nodes = (
(245,-40,o),
(285,7,o),
(285,82,cs),
(285,108,ls),
(285,193,o),
(250,230,o),
(180,230,cs),
(114,230,o),
(75,166,o),
(75,98,cs),
(75,82,ls),
(75,4,o),
(104,-40,o),
(180,-40,cs)
);
},
{
closed = 1;
nodes = (
(135,20,o),
(125,40,o),
(125,72,cs),
(125,118,ls),
(125,150,o),
(135,170,o),
(160,170,cs),
(185,170,o),
(195,150,o),
(195,118,cs),
(195,72,ls),
(195,40,o),
(186,20,o),
(160,20,cs)
);
}
);
width = 1080;
}
);
metricLeft = "ca-tamil";
metricRight = "ca-tamil";
unicode = 2979;
},
{
glyphname = "ta-tamil";
layers = (
{
anchors = (
{
name = imatra;
pos = (276,600);
},
{
name = top;
pos = (275,600);
}
);
layerId = "F56F9D2B-A44F-43C6-93D8-497EB6405965";
shapes = (
{
closed = 1;
nodes = (
(115,-300,l),
(115,-213,ls),
(115,-142,o),
(157,-100,o),
(228,-100,cs),
(276,-100,ls),
(412,-100,o),
(475,0,o),
(475,145,cs),
(475,311,o),
(444,386,o),
(316,390,c),
(316,560,l),
(405,560,l),
(405,640,l),
(116,640,l),
(116,379,l),
(70,370,o),
(36,308,o),
(36,248,cs),
(36,132,ls),
(36,51,o),
(96,-10,o),
(176,-10,cs),
(256,-10,o),
(316,51,o),
(316,132,cs),
(316,310,l),
(378,307,o),
(395,285,o),
(395,145,cs),
(395,28,o),
(364,-20,o),
(276,-20,cs),
(228,-20,ls),
(118,-20,o),
(35,-103,o),
(35,-213,cs),
(35,-300,l)
);
},
{
closed = 1;
nodes = (
(96,248,ls),
(96,290,o),
(115,310,o),
(148,310,cs),
(236,310,l),
(236,142,ls),
(236,89,o),
(207,60,o),
(166,60,cs),
(125,60,o),
(96,89,o),
(96,132,cs)
);
},
{
closed = 1;
nodes = (
(176,560,l),
(236,560,l),
(236,400,l),
(176,400,l)
);
}
);
width = 510;
}
);
metricLeft = "ca-tamil";
metricRight = "ca-tamil";
unicode = 2980;
},
{
glyphname = "na-tamil";
layers = (
{
anchors = (
{
name = bottom;
pos = (255,-300);
},
{
name = bottomright;
pos = (485,-300);
},
{
name = imatra;
pos = (255,600);
},
{
name = top;
pos = (255,600);
}
);
layerId = "F56F9D2B-A44F-43C6-93D8-497EB6405965";
shapes = (
{
closed = 1;
nodes = (
(115,-301,l),
(115,-214,ls),
(115,-134,o),
(157,-92,o),
(228,-92,cs),
(277,-92,ls),
(431,-92,o),
(475,59,o),
(475,205,cs),
(475,338,o),
(435,385,o),
(366,385,cs),
(331,385,o),
(304,362,o),
(295,339,c),
(295,560,l),
(425,560,l),
(425,640,l),
(35,640,l),
(35,40,l),
(115,40,l),
(115,560,l),
(215,560,l),
(215,110,l),
(295,110,l),
(295,260,ls),
(295,295,o),
(305,315,o),
(341,315,cs),
(378,315,o),
(395,288,o),
(395,175,cs),
(395,45,o),
(359,-12,o),
(277,-12,cs),
(228,-12,ls),
(118,-12,o),
(35,-95,o),
(35,-214,cs),
(35,-301,l)
);
}
);
width = 510;
}
);
metricLeft = "ca-tamil";
metricRight = "ca-tamil";
unicode = 2984;
},
{
glyphname = "nnna-tamil";
layers = (
{
anchors = (
{
name = imatra;
pos = (636,600);
},
{
name = top;
pos = (435,600);
}
);
layerId = "F56F9D2B-A44F-43C6-93D8-497EB6405965";
shapes = (
{
closed = 1;
nodes = (
(180,14,l),
(101,14,o),
(105,62,o),
(105,102,cs),
(105,346,ls),
(105,506,o),
(179,560,o),
(299,560,cs),
(756,560,l),
(756,640,l),
(289,640,ls),
(131,640,o),
(35,544,o),
(35,346,cs),
(35,128,ls),
(35,19,o),
(101,-40,o),
(180,-40,c)
);
},
{
closed = 1;
nodes = (
(507,-40,o),
(563,16,o),
(563,89,cs),
(563,491,ls),
(563,564,o),
(508,640,o),
(437,640,cs),
(364,640,o),
(308,564,o),
(308,491,cs),
(308,89,ls),
(308,16,o),
(363,-40,o),
(435,-40,cs)
);
},
{
closed = 1;
nodes = (
(400,20,o),
(388,42,o),
(388,109,cs),
(388,491,ls),
(388,539,o),
(403,560,o),
(437,560,cs),
(469,560,o),
(483,539,o),
(483,491,cs),
(483,109,ls),
(483,42,o),
(471,20,o),
(435,20,cs)
);
},
{
closed = 1;
nodes = (
(676,-40,l),
(676,600,ls),
(676,600,o),
(596,600,o),
(596,600,cs),
(596,-40,l)
);
},
{
closed = 1;
nodes = (
(245,-40,o),
(285,7,o),
(285,82,cs),
(285,108,ls),
(285,193,o),
(250,230,o),
(180,230,cs),
(114,230,o),
(75,166,o),
(75,98,cs),
(75,82,ls),
(75,4,o),
(104,-40,o),
(180,-40,cs)
);
},
{
closed = 1;
nodes = (
(135,20,o),
(125,40,o),
(125,72,cs),
(125,118,ls),
(125,150,o),
(135,170,o),
(160,170,cs),
(185,170,o),
(195,150,o),
(195,118,cs),
(195,72,ls),
(195,40,o),
(186,20,o),
(160,20,cs)
);
}
);
width = 791;
}
);
metricLeft = "ca-tamil";
metricRight = "ca-tamil";
unicode = 2985;
},
{
glyphname = "pa-tamil";
layers = (
{
anchors = (
{
name = imatra;
pos = (375,600);
},
{
name = top;
pos = (225,600);
}
);
layerId = "F56F9D2B-A44F-43C6-93D8-497EB6405965";
shapes = (
{
closed = 1;
nodes = (
(415,-40,l),
(415,640,l),
(335,640,l),
(335,40,l),
(115,40,l),
(115,640,l),
(35,640,l),
(35,-40,l)
);
}
);
width = 450;
}
);
metricLeft = "ca-tamil";
metricRight = "ca-tamil";
unicode = 2986;
},
{
glyphname = "ma-tamil";
layers = (
{
anchors = (
{
name = imatra;
pos = (338,600);
},
{
name = top;
pos = (250,600);
}
);
layerId = "F56F9D2B-A44F-43C6-93D8-497EB6405965";
shapes = (
{
closed = 1;
nodes = (
(336,-40,ls),
(409,-40,o),
(465,16,o),
(465,89,cs),
(465,511,ls),
(465,584,o),
(410,640,o),
(338,640,cs),
(266,640,o),
(210,584,o),
(210,511,cs),
(210,40,l),
(115,40,l),
(115,640,l),
(35,640,l),
(35,-40,l)
);
},
{
closed = 1;
nodes = (
(290,511,ls),
(290,553,o),
(309,580,o),
(338,580,cs),
(367,580,o),
(385,553,o),
(385,511,cs),
(385,89,ls),
(385,55,o),
(370,40,o),
(336,40,cs),
(290,40,l)
);
}
);
width = 500;
}
);
metricLeft = "ca-tamil";
metricRight = "ca-tamil";
unicode = 2990;
},
{
glyphname = "ya-tamil";
layers = (
{
anchors = (
{
name = imatra;
pos = (435,600);
},
{
name = top;
pos = (255,600);
}
);
layerId = "F56F9D2B-A44F-43C6-93D8-497EB6405965";
shapes = (
{
closed = 1;
nodes = (
(183,-40,o),
(208,-19,o),
(215,-1,c),
(215,-40,l),
(475,-40,l),
(475,640,l),
(395,640,l),
(395,40,l),
(295,40,l),
(295,600,l),
(215,600,l),
(215,82,ls),
(215,44,o),
(196,20,o),
(165,20,cs),
(131,20,o),
(110,44,o),
(110,82,cs),
(110,640,l),
(35,640,l),
(35,92,ls),
(35,17,o),
(91,-40,o),
(145,-40,cs)
);
}
);
width = 510;
}
);
metricLeft = "ca-tamil";
metricRight = "ca-tamil";
unicode = 2991;
},
{
glyphname = "ra-tamil";
layers = (
{
anchors = (
{
name = imatra;
pos = (275,600);
},
{
name = top;
pos = (220,600);
}
);
layerId = "F56F9D2B-A44F-43C6-93D8-497EB6405965";
shapes = (
{
closed = 1;
nodes = (
(315,0,l),
(315,560,l),
(415,560,l),
(415,560,o),
(415,578,o),
(415,600,cs),
(415,640,l),
(35,640,l),
(35,60,l),
(105,60,l),
(105,560,l),
(235,560,l),
(235,0,l)
);
},
{
closed = 1;
nodes = (
(142,-300,l),
(315,0,l),
(235,0,l),
(62,-300,l)
);
}
);
width = 445;
}
);
metricLeft = "ca-tamil";
unicode = 2992;
},
{
glyphname = "rra-tamil";
layers = (
{
anchors = (
{
name = imatra;
pos = (336,601);
},
{
name = top;
pos = (255,600);
}
);
layerId = "F56F9D2B-A44F-43C6-93D8-497EB6405965";
shapes = (
{
closed = 1;
nodes = (
(115,-301,l),
(115,-214,ls),
(115,-134,o),
(157,-92,o),
(228,-92,cs),
(277,-92,ls),
(431,-92,o),
(475,-18,o),
(475,225,cs),
(475,369,ls),
(475,507,o),
(468,641,o),
(336,641,cs),
(294,641,o),
(260,617,o),
(255,584,c),
(249,617,o),
(214,640,o),
(170,640,cs),
(115,640,o),
(65,590,o),
(65,524,cs),
(65,40,l),
(125,40,l),
(125,514,ls),
(125,551,o),
(144,570,o),
(170,570,cs),
(196,570,o),
(215,551,o),
(215,514,cs),
(215,80,l),
(295,80,l),
(295,516,ls),
(295,551,o),
(310,571,o),
(336,571,cs),
(392,571,o),
(395,505,o),
(395,369,cs),
(395,225,ls),
(395,12,o),
(381,-12,o),
(277,-12,cs),
(228,-12,ls),
(118,-12,o),
(35,-95,o),
(35,-214,cs),
(35,-301,l)
);
}
);
width = 510;
}
);
metricLeft = "ca-tamil";
metricRight = "ca-tamil";
unicode = 2993;
},
{
glyphname = "la-tamil";
layers = (
{
anchors = (
{
name = imatra;
pos = (403,600);
},
{
name = top;
pos = (313,600);
}
);
layerId = "F56F9D2B-A44F-43C6-93D8-497EB6405965";
shapes = (
{
closed = 1;
nodes = (
(494,-40,o),
(532,5,o),
(532,96,cs),
(532,523,ls),
(532,598,o),
(486,640,o),
(403,640,c),
(403,560,l),
(436,560,o),
(452,544,o),
(452,513,cs),
(452,66,ls),
(452,35,o),
(440,20,o),
(417,20,cs),
(394,20,o),
(382,35,o),
(382,66,cs),
(382,443,ls),
(382,580,o),
(328,640,o),
(204,640,cs),
(96,640,o),
(35,571,o),
(35,448,cs),
(35,104,ls),
(35,40,o),
(56,-36,o),
(150,-40,c),
(150,7,l),
(101,7,o),
(93,23,o),
(93,152,cs),
(93,448,ls),
(93,536,o),
(130,580,o),
(204,580,cs),
(270,580,o),
(302,535,o),
(302,443,cs),
(302,96,ls),
(302,5,o),
(340,-40,o),
(417,-40,cs)
);
},
{
closed = 1;
nodes = (
(215,-40,o),
(255,7,o),
(255,82,cs),
(255,108,ls),
(255,193,o),
(220,230,o),
(150,230,cs),
(84,230,o),
(45,166,o),
(45,98,cs),
(45,82,ls),
(45,7,o),
(85,-40,o),
(150,-40,cs)
);
},
{
closed = 1;
nodes = (
(115,20,o),
(105,40,o),
(105,72,cs),
(105,118,ls),
(105,150,o),
(115,170,o),
(140,170,cs),
(165,170,o),
(175,150,o),
(175,118,cs),
(175,72,ls),
(175,40,o),
(166,20,o),
(140,20,cs)
);
}
);
width = 567;
}
);
metricLeft = "ca-tamil";
metricRight = "ca-tamil";
unicode = 2994;
},
{
glyphname = "lla-tamil";
layers = (
{
anchors = (
{
name = imatra;
pos = (532,600);
},
{
name = top;
pos = (342,600);
}
);
layerId = "F56F9D2B-A44F-43C6-93D8-497EB6405965";
shapes = (
{
closed = 1;
nodes = (
(95,30,l),
(95,117,l),
(95,438,ls),
(95,520,o),
(129,560,o),
(199,560,cs),
(268,560,o),
(302,520,o),
(302,438,cs),
(302,190,l),
(382,190,l),
(382,560,l),
(492,560,l),
(492,-40,l),
(572,-40,l),
(572,560,l),
(642,560,l),
(642,640,l),
(302,640,l),
(302,580,l),
(285,620,o),
(248,640,o),
(189,640,cs),
(96,640,o),
(35,580,o),
(35,478,cs),
(35,104,ls),
(35,49,o),
(59,-40,o),
(150,-40,c)
);
},
{
closed = 1;
nodes = (
(215,-40,o),
(255,7,o),
(255,82,cs),
(255,108,ls),
(255,193,o),
(220,230,o),
(150,230,cs),
(84,230,o),
(45,166,o),
(45,98,cs),
(45,82,ls),
(45,7,o),
(85,-40,o),
(150,-40,cs)
);
},
{
closed = 1;
nodes = (
(115,20,o),
(105,40,o),
(105,72,cs),
(105,118,ls),
(105,150,o),
(115,170,o),
(140,170,cs),
(165,170,o),
(175,150,o),
(175,118,cs),
(175,72,ls),
(175,40,o),
(166,20,o),
(140,20,cs)
);
}
);
width = 677;
}
);
metricLeft = "ca-tamil";
metricRight = "ca-tamil";
unicode = 2995;
},
{
glyphname = "llla-tamil";
layers = (
{
anchors = (
{
name = imatra;
pos = (338,600);
},
{
name = top;
pos = (250,600);
}
);
layerId = "F56F9D2B-A44F-43C6-93D8-497EB6405965";
shapes = (
{
closed = 1;
nodes = (
(213,-82,o),
(234,-119,o),
(267,-141,c),
(255,-161,o),
(247,-184,o),
(247,-210,cs),
(247,-245,o),
(223,-269,o),
(190,-269,cs),
(147,-269,o),
(132,-244,o),
(132,-210,c),
(72,-210,l),
(72,-283,o),
(128,-339,o),
(200,-339,cs),
(272,-339,o),
(326,-284,o),
(327,-212,cs),
(327,-177,o),
(341,-163,o),
(374,-163,cs),
(395,-163,l),
(395,-83,l),
(342,-83,ls),
(309,-83,o),
(293,-69,o),
(290,-40,c),
(336,-40,ls),
(409,-40,o),
(465,16,o),
(465,89,cs),
(465,511,ls),
(465,584,o),
(410,640,o),
(338,640,cs),
(266,640,o),
(210,584,o),
(210,511,cs),
(210,40,l),
(115,40,l),
(115,640,l),
(35,640,l),
(35,-40,l),
(210,-40,l)
);
},
{
closed = 1;
nodes = (
(290,511,ls),
(290,553,o),
(309,580,o),
(338,580,cs),
(367,580,o),
(385,553,o),
(385,511,cs),
(385,89,ls),
(385,55,o),
(370,40,o),
(336,40,cs),
(290,40,l)
);
}
);
width = 500;
}
);
metricLeft = "ca-tamil";
metricRight = "ca-tamil";
unicode = 2996;
},
{
glyphname = "va-tamil";
layers = (
{
anchors = (
{
name = imatra;
pos = (474,580);
},
{
name = top;
pos = (354,600);
}
);
layerId = "F56F9D2B-A44F-43C6-93D8-497EB6405965";
shapes = (
{
closed = 1;
nodes = (
(424,-40,l),
(504,-40,l),
(507,640,l),
(427,640,l)
);
},
{
closed = 1;
nodes = (
(504,40,l),
(135,40,ls),
(124,40,o),
(114,40,o),
(114,50,cs),
(114,60,o),
(124,60,o),
(135,60,cs),
(223,60,ls),
(316,60,o),
(385,129,o),
(385,222,cs),
(385,468,ls),
(385,571,o),
(306,640,o),
(210,640,cs),
(114,640,o),
(35,571,o),
(35,468,cs),
(35,295,ls),
(35,220,o),
(66,178,o),
(140,178,cs),
(213,178,o),
(245,212,o),
(245,300,cs),
(245,336,ls),
(245,421,o),
(210,458,o),
(150,458,cs),
(119,458,o),
(101,443,o),
(95,420,c),
(95,468,ls),
(95,537,o),
(135,580,o),
(200,580,cs),
(267,580,o),
(305,532,o),
(305,468,cs),
(305,222,ls),
(305,168,o),
(277,140,o),
(223,140,cs),
(135,140,ls),
(84,140,o),
(44,101,o),
(44,50,cs),
(44,-1,o),
(84,-40,o),
(135,-40,cs),
(504,-40,l)
);
},
{
closed = 1;
nodes = (
(95,346,ls),
(95,378,o),
(105,398,o),
(130,398,cs),
(155,398,o),
(165,378,o),
(165,346,cs),
(165,290,ls),
(165,258,o),
(156,238,o),
(130,238,cs),
(105,238,o),
(95,258,o),
(95,290,cs)
);
}
);
width = 542;
}
);
metricLeft = "ca-tamil";
metricRight = "ca-tamil";
unicode = 2997;
},
{
glyphname = "sha-tamil";
layers = (
{
anchors = (
{
name = imatra;
pos = (535,600);
},
{
name = top;
pos = (305,600);
}
);
layerId = "F56F9D2B-A44F-43C6-93D8-497EB6405965";
shapes = (
{
closed = 1;
nodes = (
(239,-40,o),
(295,17,o),
(295,92,cs),
(295,580,l),
(335,580,l),
(335,92,ls),
(335,17,o),
(391,-40,o),
(465,-40,cs),
(539,-40,o),
(595,17,o),
(595,92,cs),
(595,640,l),
(215,640,l),
(215,82,ls),
(215,45,o),
(200,20,o),
(165,20,cs),
(130,20,o),
(115,45,o),
(115,82,cs),
(115,640,l),
(35,640,l),
(35,92,ls),
(35,17,o),
(91,-40,o),
(165,-40,cs)
);
},
{
closed = 1;
nodes = (
(430,20,o),
(415,45,o),
(415,82,cs),
(415,580,l),
(515,580,l),
(515,82,ls),
(515,45,o),
(500,20,o),
(465,20,cs)
);
}
);
width = 630;
}
);
metricLeft = "ca-tamil";
metricRight = "ca-tamil";
unicode = 2998;
},
{
glyphname = "ssa-tamil";
layers = (
{
anchors = (
{
name = imatra;
pos = (525,295);
},
{
name = top;
pos = (525,297);
}
);
layerId = "F56F9D2B-A44F-43C6-93D8-497EB6405965";
shapes = (
{
closed = 1;
nodes = (
(645,-300,l),
(645,-40,l),
(715,-40,l),
(715,40,l),
(645,40,l),
(645,198,ls),
(645,268,o),
(593,320,o),
(525,320,cs),
(457,320,o),
(405,268,o),
(405,198,cs),
(405,102,ls),
(405,60,o),
(419,44,o),
(432,40,c),
(135,40,ls),
(124,40,o),
(114,40,o),
(114,50,cs),
(114,60,o),
(124,60,o),
(135,60,cs),
(223,60,ls),
(316,60,o),
(385,129,o),
(385,222,cs),
(385,468,ls),
(385,571,o),
(306,640,o),
(210,640,cs),
(114,640,o),
(35,571,o),
(35,468,cs),
(35,295,ls),
(35,220,o),
(66,178,o),
(140,178,cs),
(213,178,o),
(245,212,o),
(245,300,cs),
(245,336,ls),
(245,421,o),
(210,458,o),
(150,458,cs),
(119,458,o),
(101,443,o),
(95,420,c),
(95,468,ls),
(95,537,o),
(135,580,o),
(200,580,cs),
(267,580,o),
(305,532,o),
(305,468,cs),
(305,222,ls),
(305,168,o),
(277,140,o),
(223,140,cs),
(135,140,ls),
(84,140,o),
(44,101,o),
(44,50,cs),
(44,-1,o),
(84,-40,o),
(135,-40,cs),
(565,-40,l),
(565,-300,l)
);
},
{
closed = 1;
nodes = (
(95,346,ls),
(95,378,o),
(105,398,o),
(130,398,cs),
(155,398,o),
(165,378,o),
(165,346,cs),
(165,290,ls),
(165,258,o),
(156,238,o),
(130,238,cs),
(105,238,o),
(95,258,o),
(95,290,cs)
);
},
{
closed = 1;
nodes = (
(485,208,ls),
(485,243,o),
(498,260,o),
(525,260,cs),
(552,260,o),
(565,243,o),
(565,208,cs),
(565,40,l),
(519,40,ls),
(495,40,o),
(485,50,o),
(485,82,cs)
);
}
);
width = 750;
}
);
metricLeft = "ca-tamil";
metricRight = "ca-tamil";
unicode = 2999;
},
{
glyphname = "sa-tamil";
layers = (
{
anchors = (
{
name = imatra;
pos = (558,600);
},
{
name = top;
pos = (339,600);
}
);
layerId = "F56F9D2B-A44F-43C6-93D8-497EB6405965";
shapes = (
{
closed = 1;
nodes = (
(636,-40,o),
(674,5,o),
(674,96,cs),
(674,523,ls),
(674,589,o),
(625,640,o),
(558,640,c),
(558,560,l),
(585,560,o),
(594,551,o),
(594,523,cs),
(594,66,ls),
(594,36,o),
(581,20,o),
(559,20,cs),
(537,20,o),
(524,36,o),
(524,66,cs),
(524,524,ls),
(524,595,o),
(482,640,o),
(414,640,cs),
(370,640,o),
(319,622,o),
(324,548,c),
(362,516,l),
(347,567,o),
(378,580,o),
(401,580,cs),
(433,580,o),
(444,554,o),
(444,504,cs),
(444,96,ls),
(444,5,o),
(482,-40,o),
(559,-40,cs)
);
},
{
closed = 1;
nodes = (
(372,87,l),
(372,443,ls),
(372,545,o),
(330,640,o),
(204,640,cs),
(96,640,o),
(35,562,o),
(35,448,cs),
(35,104,ls),
(35,40,o),
(56,-36,o),
(150,-40,c),
(150,7,l),
(95,7,o),
(95,73,o),
(95,152,cs),
(95,448,ls),
(95,536,o),
(128,580,o),
(194,580,cs),
(260,580,o),
(292,535,o),
(292,443,cs),
(292,87,l)
);
},
{
closed = 1;
nodes = (
(215,-40,o),
(255,7,o),
(255,82,cs),
(255,108,ls),
(255,193,o),
(220,230,o),
(150,230,cs),
(84,230,o),
(45,166,o),
(45,98,cs),
(45,82,ls),
(45,7,o),
(85,-40,o),
(150,-40,cs)
);
},
{
closed = 1;
nodes = (
(115,20,o),
(105,40,o),
(105,72,cs),
(105,118,ls),
(105,150,o),
(115,170,o),
(140,170,cs),
(165,170,o),
(175,150,o),
(175,118,cs),
(175,72,ls),
(175,40,o),
(166,20,o),
(140,20,cs)
);
}
);
width = 709;
}
);
metricLeft = "ca-tamil";
metricRight = "ca-tamil";
unicode = 3000;
},
{
glyphname = "ha-tamil";
layers = (
{
anchors = (
{
name = imatra;
pos = (706,600);
},
{
name = top;
pos = (625,600);
}
);
layerId = "F56F9D2B-A44F-43C6-93D8-497EB6405965";
shapes = (
{
closed = 1;
nodes = (
(495,-301,l),
(495,-215,ls),
(495,-134,o),
(537,-92,o),
(608,-92,cs),
(627,-92,ls),
(781,-92,o),
(825,-18,o),
(825,225,cs),
(825,369,ls),
(825,507,o),
(818,641,o),
(686,641,cs),
(643,641,o),
(611,619,o),
(605,584,c),
(598,618,o),
(565,640,o),
(520,640,cs),
(465,640,o),
(415,590,o),
(415,524,cs),
(415,40,l),
(475,40,l),
(475,514,ls),
(475,551,o),
(494,570,o),
(520,570,cs),
(546,570,o),
(565,551,o),
(565,514,cs),
(565,80,l),
(645,80,l),
(645,516,ls),
(645,551,o),
(660,571,o),
(686,571,cs),
(742,571,o),
(745,505,o),
(745,369,cs),
(745,225,ls),
(745,12,o),
(731,-12,o),
(627,-12,cs),
(608,-12,ls),
(498,-12,o),
(415,-95,o),
(415,-214,cs),
(415,-301,l)
);
},
{
closed = 1;
nodes = (
(475,-40,l),
(475,40,l),
(135,40,ls),
(124,40,o),
(114,40,o),
(114,50,cs),
(114,60,o),
(124,60,o),
(135,60,cs),
(223,60,ls),
(316,60,o),
(385,129,o),
(385,222,cs),
(385,468,ls),
(385,571,o),
(306,640,o),
(210,640,cs),
(114,640,o),
(35,571,o),
(35,468,cs),
(35,295,l),
(95,295,l),
(95,468,ls),
(95,537,o),
(135,580,o),
(200,580,cs),
(277,580,o),
(305,532,o),
(305,468,cs),
(305,222,ls),
(305,168,o),
(277,140,o),
(223,140,cs),
(135,140,ls),
(84,140,o),
(44,101,o),
(44,50,cs),
(44,-1,o),
(84,-40,o),
(135,-40,cs)
);
},
{
closed = 1;
nodes = (
(213,178,o),
(245,212,o),
(245,300,cs),
(245,336,ls),
(245,421,o),
(210,458,o),
(140,458,cs),
(74,458,o),
(35,394,o),
(35,316,cs),
(35,300,ls),
(35,222,o),
(64,178,o),
(140,178,cs)
);
},
{
closed = 1;
nodes = (
(105,238,o),
(95,258,o),
(95,290,cs),
(95,346,ls),
(95,378,o),
(105,398,o),
(130,398,cs),
(155,398,o),
(165,378,o),
(165,346,cs),
(165,290,ls),
(165,258,o),
(156,238,o),
(130,238,cs)
);
}
);
width = 860;
}
);
metricLeft = "ca-tamil";
metricRight = "ca-tamil";
unicode = 3001;
},
{
glyphname = "aytham-tamil";
layers = (
{
layerId = "F56F9D2B-A44F-43C6-93D8-497EB6405965";
shapes = (
{
closed = 1;
nodes = (
(364,370,o),
(405,411,o),
(405,460,cs),
(405,509,o),
(364,550,o),
(315,550,cs),
(266,550,o),
(225,509,o),
(225,460,cs),
(225,411,o),
(266,370,o),
(315,370,cs)
);
},
{
closed = 1;
nodes = (
(174,-30,o),
(215,11,o),
(215,60,cs),
(215,109,o),
(174,150,o),
(125,150,cs),
(76,150,o),
(35,109,o),
(35,60,cs),
(35,11,o),
(76,-30,o),
(125,-30,cs)
);
},
{
closed = 1;
nodes = (
(109,30,o),
(95,44,o),
(95,60,cs),
(95,77,o),
(109,90,o),
(127,90,cs),
(142,90,o),
(155,77,o),
(155,60,cs),
(155,44,o),
(142,30,o),
(127,30,cs)
);
},
{
closed = 1;
nodes = (
(554,-30,o),
(595,11,o),
(595,60,cs),
(595,109,o),
(554,150,o),
(505,150,cs),
(456,150,o),
(415,109,o),
(415,60,cs),
(415,11,o),
(456,-30,o),
(505,-30,cs)
);
},
{
closed = 1;
nodes = (
(489,30,o),
(475,44,o),
(475,60,cs),
(475,77,o),
(489,90,o),
(507,90,cs),
(522,90,o),
(535,77,o),
(535,60,cs),
(535,44,o),
(522,30,o),
(507,30,cs)
);
},
{
closed = 1;
nodes = (
(299,430,o),
(285,444,o),
(285,460,cs),
(285,477,o),
(299,490,o),
(317,490,cs),
(332,490,o),
(345,477,o),
(345,460,cs),
(345,444,o),
(332,430,o),
(317,430,cs)
);
}
);
width = 630;
}
);
metricLeft = "ca-tamil";
metricRight = "ca-tamil";
unicode = 2947;
},
{
glyphname = "nga-tamil.001";
layers = (
{
anchors = (
{
name = imatra;
pos = (255,600);
},
{
name = top;
pos = (305,600);
}
);
layerId = "F56F9D2B-A44F-43C6-93D8-497EB6405965";
shapes = (
{
closed = 1;
nodes = (
(585,-40,l),
(585,640,l),
(505,640,l),
(505,40,l),
(403,39,l),
(454,65,o),
(475,139,o),
(475,205,cs),
(475,338,o),
(435,385,o),
(366,385,cs),
(331,385,o),
(304,362,o),
(295,339,c),
(295,560,l),
(415,560,l),
(415,640,l),
(35,640,l),
(35,-40,l),
(115,-40,l),
(115,560,l),
(215,560,l),
(215,160,l),
(295,160,l),
(295,260,ls),
(295,295,o),
(319,315,o),
(341,315,cs),
(378,315,o),
(395,288,o),
(395,175,cs),
(395,95,o),
(362,40,o),
(277,38,c),
(277,-42,l)
);
}
);
width = 620;
}
);
metricLeft = "ca-tamil";
metricRight = "ca-tamil";
},
{
glyphname = "ten-tamil";
layers = (
{
layerId = "F56F9D2B-A44F-43C6-93D8-497EB6405965";
shapes = (
{
closed = 1;
nodes = (
(203,-40,o),
(233,-22,o),
(255,15,c),
(277,-22,o),
(307,-40,o),
(345,-40,cs),
(419,-40,o),
(475,17,o),
(475,92,cs),
(475,568,ls),
(475,683,o),
(398,740,o),
(310,740,cs),
(212,740,o),
(145,683,o),
(145,568,c),
(225,568,l),
(225,644,o),
(251,670,o),
(310,670,cs),
(359,670,o),
(395,644,o),
(395,568,cs),
(395,92,ls),
(395,46,o),
(377,20,o),
(345,20,cs),
(313,20,o),
(295,46,o),
(295,92,cs),
(295,530,l),
(215,530,l),
(215,92,ls),
(215,46,o),
(197,20,o),
(165,20,cs),
(133,20,o),
(115,46,o),
(115,92,cs),
(115,530,l),
(35,530,l),
(35,92,ls),
(35,17,o),
(91,-40,o),
(165,-40,cs)
);
}
);
width = 510;
}
);
metricLeft = "ca-tamil";
metricRight = "ca-tamil";
unicode = 3056;
},
{
glyphname = "onehundred-tamil";
layers = (
{
layerId = "F56F9D2B-A44F-43C6-93D8-497EB6405965";
shapes = (
{
closed = 1;
nodes = (
(95,-40,l),
(95,438,ls),
(95,520,o),
(129,560,o),
(199,560,cs),
(268,560,o),
(302,520,o),
(302,438,cs),
(302,-40,l),
(382,-40,l),
(382,560,l),
(492,560,l),
(492,-40,l),
(572,-40,l),
(572,560,l),
(642,560,l),
(642,640,l),
(302,640,l),
(302,580,l),
(285,620,o),
(248,640,o),
(189,640,cs),
(96,640,o),
(35,580,o),
(35,478,cs),
(35,-40,l)
);
}
);
width = 677;
}
);
metricLeft = "ca-tamil";
metricRight = "ca-tamil";
unicode = 3057;
},
{
glyphname = "onethousand-tamil";
layers = (
{
layerId = "F56F9D2B-A44F-43C6-93D8-497EB6405965";
shapes = (
{
closed = 1;
nodes = (
(339,-200,o),
(409,-200,o),
(409,-200,cs),
(409,-138,ls),
(409,-102,o),
(424,-86,o),
(461,-86,cs),
(490,-86,ls),
(569,-86,o),
(625,-20,o),
(625,87,cs),
(625,185,o),
(587,250,o),
(502,250,cs),
(431,250,ls),
(374,250,o),
(330,206,o),
(330,149,cs),
(330,101,ls),
(330,42,o),
(361,0,o),
(420,0,cs),
(476,0,o),
(520,44,o),
(520,101,cs),
(520,310,ls),
(520,336,o),
(516,350,o),
(490,350,cs),
(464,350,o),
(450,336,o),
(450,310,cs),
(450,101,ls),
(450,74,o),
(442,60,o),
(420,60,cs),
(398,60,o),
(390,74,o),
(390,101,cs),
(390,149,ls),
(390,171,o),
(401,190,o),
(431,190,cs),
(512,190,ls),
(547,190,o),
(555,157,o),
(555,87,cs),
(555,18,o),
(540,-16,o),
(500,-16,cs),
(471,-16,ls),
(379,-16,o),
(339,-56,o),
(339,-148,cs),
(339,-200,ls)
);
},
{
closed = 1;
nodes = (
(255,-40,o),
(315,21,o),
(315,102,cs),
(315,350,ls),
(315,376,o),
(301,390,o),
(275,390,cs),
(167,390,ls),
(96,390,o),
(35,329,o),
(35,248,cs),
(35,102,ls),
(35,21,o),
(95,-40,o),
(175,-40,cs)
);
},
{
closed = 1;
nodes = (
(274,310,ls),
(300,310,o),
(314,324,o),
(314,350,cs),
(314,600,ls),
(314,626,o),
(300,640,o),
(274,640,cs),
(114,640,l),
(114,350,l),
(114,324,o),
(128,310,o),
(154,310,cs)
);
},
{
closed = 1;
nodes = (
(574,310,l),
(574,390,l),
(314,390,ls),
(288,390,o),
(274,376,o),
(274,350,cs),
(274,324,o),
(288,310,o),
(314,310,cs)
);
},
{
closed = 1;
nodes = (
(384,560,ls),
(384,560,o),
(384,640,o),
(384,640,cs),
(264,640,ls),
(238,640,o),
(224,626,o),
(224,600,cs),
(224,574,o),
(238,560,o),
(264,560,cs)
);
},
{
closed = 1;
nodes = (
(124,30,o),
(95,59,o),
(95,102,cs),
(95,248,ls),
(95,290,o),
(115,310,o),
(147,310,cs),
(235,310,l),
(235,122,ls),
(235,51,o),
(206,30,o),
(162,30,cs)
);
},
{
closed = 1;
nodes = (
(175,560,l),
(235,560,l),
(235,390,l),
(175,390,l)
);
}
);
width = 660;
}
);
metricLeft = "ca-tamil";
metricRight = "ca-tamil";
unicode = 3058;
},
{
glyphname = "zero-tamil";
layers = (
{
layerId = "F56F9D2B-A44F-43C6-93D8-497EB6405965";
shapes = (
{
closed = 1;
nodes = (
(342,-40,o),
(425,43,o),
(425,153,cs),
(425,447,ls),
(425,557,o),
(342,640,o),
(230,640,cs),
(118,640,o),
(35,557,o),
(35,447,cs),
(35,153,ls),
(35,43,o),
(118,-40,o),
(230,-40,cs)
);
},
{
closed = 1;
nodes = (
(157,40,o),
(115,82,o),
(115,153,cs),
(115,447,ls),
(115,518,o),
(157,560,o),
(230,560,cs),
(303,560,o),
(345,518,o),
(345,447,cs),
(345,153,ls),
(345,82,o),
(303,40,o),
(230,40,cs)
);
}
);
width = 460;
}
);
metricLeft = "ca-tamil";
metricRight = "ca-tamil";
unicode = 3046;
},
{
glyphname = "one-tamil";
layers = (
{
layerId = "F56F9D2B-A44F-43C6-93D8-497EB6405965";
shapes = (
{
closed = 1;
nodes = (
(202,-40,o),
(235,-32,o),
(257,-11,c),
(270,-23,o),
(297,-40,o),
(335,-40,cs),
(442,-40,o),
(475,66,o),
(475,175,cs),
(475,286,o),
(440,390,o),
(315,390,c),
(315,560,l),
(415,560,l),
(415,640,l),
(115,640,l),
(115,379,l),
(58,357,o),
(35,308,o),
(35,248,cs),
(35,102,ls),
(35,21,o),
(95,-40,o),
(175,-40,cs)
);
},
{
closed = 1;
nodes = (
(118,30,o),
(95,60,o),
(95,122,cs),
(95,228,ls),
(95,290,o),
(125,310,o),
(157,310,cs),
(235,310,l),
(235,122,ls),
(235,59,o),
(206,30,o),
(165,30,cs)
);
},
{
closed = 1;
nodes = (
(320,17,o),
(299,20,o),
(289,30,c),
(308,50,o),
(315,80,o),
(315,112,cs),
(315,310,l),
(380,310,o),
(395,266,o),
(395,175,cs),
(395,84,o),
(385,18,o),
(328,17,cs)
);
},
{
closed = 1;
nodes = (
(175,560,l),
(235,560,l),
(235,390,l),
(175,390,l)
);
}
);
width = 510;
}
);
metricLeft = "ca-tamil";
metricRight = "ca-tamil";
unicode = 3047;
},
{
glyphname = "two-tamil";
layers = (
{
layerId = "F56F9D2B-A44F-43C6-93D8-497EB6405965";
shapes = (
{
closed = 1;
nodes = (
(495,-40,l),
(495,40,l),
(135,40,ls),
(124,40,o),
(114,40,o),
(114,50,cs),
(114,60,o),
(124,60,o),
(135,60,cs),
(223,60,ls),
(316,60,o),
(385,129,o),
(385,222,cs),
(385,468,ls),
(385,571,o),
(306,640,o),
(210,640,cs),
(114,640,o),
(35,571,o),
(35,468,cs),
(35,295,l),
(95,295,l),
(95,468,ls),
(95,537,o),
(135,580,o),
(200,580,cs),
(267,580,o),
(305,532,o),
(305,468,cs),
(305,222,ls),
(305,168,o),
(277,140,o),
(223,140,cs),
(135,140,ls),
(84,140,o),
(44,101,o),
(44,50,cs),
(44,-1,o),
(84,-40,o),
(135,-40,cs)
);
},
{
closed = 1;
nodes = (
(213,178,o),
(245,212,o),
(245,300,cs),
(245,336,ls),
(245,421,o),
(210,458,o),
(140,458,cs),
(74,458,o),
(35,394,o),
(35,316,cs),
(35,300,ls),
(35,222,o),
(64,178,o),
(140,178,cs)
);
},
{
closed = 1;
nodes = (
(105,238,o),
(95,258,o),
(95,290,cs),
(95,346,ls),
(95,378,o),
(105,398,o),
(130,398,cs),
(155,398,o),
(165,378,o),
(165,346,cs),
(165,290,ls),
(165,258,o),
(156,238,o),
(130,238,cs)
);
}
);
width = 530;
}
);
metricLeft = "ca-tamil";
metricRight = "ca-tamil";
unicode = 3048;
},
{
glyphname = "three-tamil";
layers = (
{
layerId = "F56F9D2B-A44F-43C6-93D8-497EB6405965";
shapes = (
{
closed = 1;
nodes = (
(525,-40,l),
(525,40,l),
(403,39,l),
(454,65,o),
(475,139,o),
(475,205,cs),
(475,338,o),
(435,385,o),
(366,385,cs),
(331,385,o),
(304,362,o),
(295,339,c),
(295,560,l),
(425,560,l),
(425,640,l),
(35,640,l),
(35,-40,l),
(115,-40,l),
(115,560,l),
(215,560,l),
(215,160,l),
(295,160,l),
(295,260,ls),
(295,295,o),
(319,315,o),
(341,315,cs),
(378,315,o),
(395,288,o),
(395,175,cs),
(395,95,o),
(362,40,o),
(277,38,c),
(277,-42,l)
);
}
);
width = 560;
}
);
metricLeft = "ca-tamil";
metricRight = "ca-tamil";
unicode = 3049;
},
{
glyphname = "four-tamil";
layers = (
{
anchors = (
{
name = imatra;
pos = (230,600);
},
{
name = top;
pos = (230,600);
}
);
layerId = "F56F9D2B-A44F-43C6-93D8-497EB6405965";
shapes = (
{
closed = 1;
nodes = (
(365,350,l),
(425,350,l),
(425,480,l),
(365,480,l)
);
},
{
closed = 1;
nodes = (
(255,-40,o),
(315,10,o),
(315,122,cs),
(315,310,l),
(425,310,l),
(425,390,l),
(315,390,l),
(315,560,l),
(425,560,l),
(425,640,l),
(115,640,l),
(115,369,l),
(59,351,o),
(35,308,o),
(35,248,cs),
(35,102,ls),
(35,21,o),
(95,-40,o),
(175,-40,cs)
);
},
{
closed = 1;
nodes = (
(124,30,o),
(95,59,o),
(95,102,cs),
(95,248,ls),
(95,290,o),
(115,310,o),
(147,310,cs),
(235,310,l),
(235,122,ls),
(235,51,o),
(206,30,o),
(162,30,cs)
);
},
{
closed = 1;
nodes = (
(175,560,l),
(235,560,l),
(235,390,l),
(175,390,l)
);
}
);
width = 460;
}
);
metricLeft = "ca-tamil";
metricRight = "ca-tamil";
unicode = 3050;
},
{
glyphname = "five-tamil";
layers = (
{
layerId = "F56F9D2B-A44F-43C6-93D8-497EB6405965";
shapes = (
{
closed = 1;
nodes = (
(515,156,l),
(515,104,ls),
(515,-56,o),
(421,-100,o),
(315,-100,cs),
(209,-100,o),
(115,-56,o),
(115,104,cs),
(115,566,ls),
(115,676,o),
(189,740,o),
(315,740,cs),
(441,740,o),
(515,676,o),
(515,566,cs),
(515,550,l),
(555,550,l),
(595,550,l),
(595,566,ls),
(595,714,o),
(479,820,o),
(315,820,cs),
(151,820,o),
(35,714,o),
(35,566,cs),
(35,104,ls),
(35,-94,o),
(171,-180,o),
(315,-180,cs),
(459,-180,o),
(595,-94,o),
(595,104,cs),
(595,156,l)
);
},
{
closed = 1;
nodes = (
(595,156,l),
(595,176,o),
(595,195,o),
(595,205,cs),
(595,338,o),
(555,385,o),
(486,385,cs),
(451,385,o),
(424,362,o),
(415,339,c),
(415,560,l),
(475,560,l),
(475,640,l),
(155,640,l),
(155,60,l),
(235,60,l),
(235,560,l),
(335,560,l),
(335,110,l),
(415,110,l),
(415,260,ls),
(415,295,o),
(425,315,o),
(461,315,cs),
(498,315,o),
(515,288,o),
(515,156,c)
);
}
);
width = 630;
}
);
metricLeft = "ca-tamil";
metricRight = "ca-tamil";
unicode = 3051;
},
{
glyphname = "six-tamil";
layers = (
{
layerId = "F56F9D2B-A44F-43C6-93D8-497EB6405965";
shapes = (
{
closed = 1;
nodes = (
(415,-40,l),
(415,310,l),
(515,310,l),
(515,-40,l),
(595,-40,l),
(595,310,l),
(642,310,l),
(642,390,l),
(345,390,l),
(345,365,l),
(345,378,o),
(332,388,o),
(315,388,c),
(315,560,l),
(425,560,l),
(425,640,l),
(115,640,l),
(115,369,l),
(59,351,o),
(35,308,o),
(35,248,cs),
(35,102,ls),
(35,21,o),
(95,-40,o),
(175,-40,cs),
(255,-40,o),
(315,10,o),
(315,122,cs),
(315,307,l),
(336,301,o),
(345,286,o),
(345,258,cs),
(345,-40,l)
);
},
{
closed = 1;
nodes = (
(95,248,ls),
(95,290,o),
(115,310,o),
(147,310,cs),
(235,310,l),
(235,122,ls),
(235,51,o),
(206,30,o),
(162,30,cs),
(124,30,o),
(95,59,o),
(95,102,cs)
);
},
{
closed = 1;
nodes = (
(175,560,l),
(235,560,l),
(235,390,l),
(175,390,l)
);
}
);
width = 677;
}
);
metricLeft = "ca-tamil";
metricRight = "ca-tamil";
unicode = 3052;
},
{
glyphname = "seven-tamil";
layers = (
{
layerId = "F56F9D2B-A44F-43C6-93D8-497EB6405965";
shapes = (
{
closed = 1;
nodes = (
(435,0,l),
(435,600,ls),
(435,626,o),
(421,640,o),
(395,640,cs),
(299,640,ls),
(116,640,o),
(35,543,o),
(35,366,cs),
(35,130,ls),
(35,130,o),
(95,130,o),
(95,130,cs),
(95,346,ls),
(95,488,o),
(157,560,o),
(259,560,cs),
(355,560,l),
(355,0,l)
);
},
{
closed = 1;
nodes = (
(515,560,l),
(515,640,l),
(375,640,ls),
(349,640,o),
(335,626,o),
(335,600,cs),
(335,574,o),
(349,560,o),
(375,560,cs)
);
},
{
closed = 1;
nodes = (
(213,0,o),
(245,34,o),
(245,122,cs),
(245,148,ls),
(245,233,o),
(210,270,o),
(140,270,cs),
(74,270,o),
(35,206,o),
(35,138,cs),
(35,122,ls),
(35,44,o),
(64,0,o),
(140,0,cs)
);
},
{
closed = 1;
nodes = (
(105,60,o),
(95,80,o),
(95,112,cs),
(95,158,ls),
(95,190,o),
(105,210,o),
(130,210,cs),
(155,210,o),
(165,190,o),
(165,158,cs),
(165,112,ls),
(165,80,o),
(156,60,o),
(130,60,cs)
);
}
);
width = 550;
}
);
metricLeft = "ca-tamil";
metricRight = "ca-tamil";
unicode = 3053;
},
{
glyphname = "eight-tamil";
layers = (
{
layerId = "F56F9D2B-A44F-43C6-93D8-497EB6405965";
shapes = (
{
closed = 1;
nodes = (
(280,210,o),
(292,224,o),
(292,250,cs),
(292,276,o),
(286,290,o),
(275,290,cs),
(258,290,ls),
(187,290,o),
(145,332,o),
(145,431,cs),
(145,532,o),
(203,560,o),
(245,560,cs),
(307,560,o),
(345,532,o),
(345,438,cs),
(345,284,ls),
(345,258,o),
(359,244,o),
(385,244,cs),
(411,244,o),
(425,258,o),
(425,284,cs),
(425,438,ls),
(425,571,o),
(346,640,o),
(245,640,cs),
(154,640,o),
(65,571,o),
(65,431,cs),
(65,293,o),
(187,210,o),
(258,210,cs)
);
},
{
closed = 1;
nodes = (
(356,-40,o),
(425,29,o),
(425,142,cs),
(425,250,ls),
(425,276,o),
(411,290,o),
(385,290,cs),
(35,290,l),
(35,142,ls),
(35,29,o),
(104,-40,o),
(230,-40,cs)
);
},
{
closed = 1;
nodes = (
(143,40,o),
(115,68,o),
(115,142,cs),
(115,210,l),
(345,210,l),
(345,142,ls),
(345,68,o),
(317,40,o),
(230,40,cs)
);
},
{
closed = 1;
nodes = (
(485,210,l),
(485,290,l),
(315,290,l),
(315,210,l)
);
},
{
closed = 1;
nodes = (
(535,-40,l),
(535,450,l),
(455,450,l),
(455,-40,l)
);
}
);
width = 570;
}
);
metricLeft = "ca-tamil";
metricRight = "ca-tamil";
unicode = 3054;
},
{
glyphname = "nine-tamil";
layers = (
{
layerId = "F56F9D2B-A44F-43C6-93D8-497EB6405965";
shapes = (
{
closed = 1;
nodes = (
(482,-40,ls),
(592,-40,o),
(675,43,o),
(675,153,cs),
(675,197,ls),
(675,307,o),
(592,390,o),
(482,390,cs),
(315,390,ls),
(289,390,o),
(275,376,o),
(275,350,cs),
(275,324,o),
(289,310,o),
(315,310,cs),
(482,310,ls),
(553,310,o),
(595,268,o),
(595,197,cs),
(595,153,ls),
(595,82,o),
(553,40,o),
(482,40,cs),
(349,40,l),
(349,-40,l)
);
},
{
closed = 1;
nodes = (
(255,-40,o),
(315,10,o),
(315,122,cs),
(315,310,l),
(425,310,l),
(425,390,l),
(315,390,l),
(315,560,l),
(425,560,l),
(425,640,l),
(115,640,l),
(115,369,l),
(59,351,o),
(35,308,o),
(35,248,cs),
(35,102,ls),
(35,21,o),
(95,-40,o),
(175,-40,cs)
);
},
{
closed = 1;
nodes = (
(124,30,o),
(95,59,o),
(95,102,cs),
(95,248,ls),
(95,290,o),
(115,310,o),
(147,310,cs),
(235,310,l),
(235,122,ls),
(235,51,o),
(206,30,o),
(162,30,cs)
);
},
{
closed = 1;
nodes = (
(175,560,l),
(235,560,l),
(235,390,l),
(175,390,l)
);
},
{
closed = 1;
nodes = (
(513,100,o),
(545,134,o),
(545,222,cs),
(545,238,ls),
(545,323,o),
(510,360,o),
(440,360,cs),
(374,360,o),
(335,311,o),
(335,230,cs),
(335,149,o),
(364,100,o),
(440,100,cs)
);
},
{
closed = 1;
nodes = (
(395,150,o),
(385,170,o),
(385,202,cs),
(385,258,ls),
(385,290,o),
(395,310,o),
(420,310,cs),
(445,310,o),
(455,290,o),
(455,258,cs),
(455,202,ls),
(455,170,o),
(446,150,o),
(420,150,cs)
);
}
);
width = 710;
}
);
metricLeft = "ca-tamil";
metricRight = "ca-tamil";
unicode = 3055;
},
{
glyphname = zero;
layers = (
{
layerId = "F56F9D2B-A44F-43C6-93D8-497EB6405965";
shapes = (
{
closed = 1;
nodes = (
(322,-40,o),
(405,43,o),
(405,153,cs),
(405,447,ls),
(405,557,o),
(322,640,o),
(220,640,cs),
(118,640,o),
(35,557,o),
(35,447,cs),
(35,153,ls),
(35,43,o),
(118,-40,o),
(220,-40,cs)
);
},
{
closed = 1;
nodes = (
(157,40,o),
(115,82,o),
(115,153,cs),
(115,447,ls),
(115,518,o),
(157,560,o),
(220,560,cs),
(283,560,o),
(325,518,o),
(325,447,cs),
(325,153,ls),
(325,82,o),
(283,40,o),
(220,40,cs)
);
}
);
width = 440;
}
);
metricLeft = "ca-tamil";
metricRight = "ca-tamil";
unicode = 48;
},
{
glyphname = one;
layers = (
{
layerId = "F56F9D2B-A44F-43C6-93D8-497EB6405965";
shapes = (
{
closed = 1;
nodes = (
(234,-40,l),
(234,640,l),
(162,640,l),
(35,411,l),
(35,410,l),
(95,376,l),
(154,497,l),
(154,-40,l)
);
}
);
width = 269;
}
);
metricLeft = "ca-tamil";
metricRight = "ca-tamil";
unicode = 49;
},
{
glyphname = two;
layers = (
{
layerId = "F56F9D2B-A44F-43C6-93D8-497EB6405965";
shapes = (
{
closed = 1;
nodes = (
(385,-40,l),
(385,30,l),
(125,30,ls),
(111,30,o),
(104,40,o),
(104,50,cs),
(104,60,o),
(111,70,o),
(125,70,cs),
(223,70,ls),
(316,70,o),
(385,129,o),
(385,222,cs),
(385,458,ls),
(385,551,o),
(316,640,o),
(210,640,cs),
(104,640,o),
(35,551,o),
(35,458,cs),
(35,335,l),
(115,335,l),
(115,458,ls),
(115,512,o),
(143,560,o),
(210,560,cs),
(277,560,o),
(305,512,o),
(305,458,cs),
(305,222,ls),
(305,168,o),
(277,140,o),
(223,140,cs),
(135,140,ls),
(84,140,o),
(44,101,o),
(44,50,cs),
(44,-1,o),
(84,-40,o),
(135,-40,cs)
);
},
{
closed = 1;
nodes = (
(325,-40,l),
(385,-40,l),
(385,80,l),
(325,80,l)
);
}
);
width = 420;
}
);
metricLeft = "ca-tamil";
metricRight = "ca-tamil";
unicode = 50;
},
{
glyphname = three;
layers = (
{
layerId = "F56F9D2B-A44F-43C6-93D8-497EB6405965";
shapes = (
{
closed = 1;
nodes = (
(316,-40,o),
(385,39,o),
(385,132,cs),
(385,168,ls),
(385,239,o),
(347,287,o),
(303,300,c),
(347,313,o),
(385,361,o),
(385,432,cs),
(385,458,ls),
(385,551,o),
(316,640,o),
(210,640,cs),
(104,640,o),
(35,551,o),
(35,458,cs),
(35,435,l),
(35,435,o),
(53,435,o),
(75,435,cs),
(115,435,l),
(115,458,ls),
(115,512,o),
(143,560,o),
(210,560,cs),
(277,560,o),
(305,512,o),
(305,458,cs),
(305,422,ls),
(305,368,o),
(277,340,o),
(223,340,cs),
(165,340,l),
(165,260,l),
(223,260,ls),
(277,260,o),
(305,232,o),
(305,178,cs),
(305,132,ls),
(305,78,o),
(277,40,o),
(210,40,cs),
(143,40,o),
(115,78,o),
(115,132,cs),
(115,165,l),
(115,165,o),
(97,165,o),
(75,165,cs),
(35,165,l),
(35,132,ls),
(35,39,o),
(104,-40,o),
(210,-40,cs)
);
}
);
width = 420;
}
);
metricLeft = "ca-tamil";
metricRight = "ca-tamil";
unicode = 51;
},
{
glyphname = four;
layers = (
{
layerId = "F56F9D2B-A44F-43C6-93D8-497EB6405965";
shapes = (
{
closed = 1;
nodes = (
(309,-40,o),
(389,-40,o),
(389,-40,cs),
(389,130,l),
(449,130,ls),
(449,130,o),
(449,200,o),
(449,200,cs),
(389,200,l),
(389,641,l),
(296,641,l),
(35,130,l),
(309,130,l),
(309,-40,ls)
);
},
{
closed = 1;
nodes = (
(309,532,l),
(309,200,l),
(146,200,l)
);
}
);
width = 484;
}
);
metricLeft = "ca-tamil";
metricRight = "ca-tamil";
unicode = 52;
},
{
glyphname = five;
layers = (
{
layerId = "F56F9D2B-A44F-43C6-93D8-497EB6405965";
shapes = (
{
closed = 1;
nodes = (
(316,-40,o),
(385,29,o),
(385,122,cs),
(385,258,ls),
(385,351,o),
(315,420,o),
(230,420,cs),
(163,420,o),
(128,395,o),
(116,365,c),
(133,560,l),
(305,560,l),
(305,500,l),
(385,500,l),
(385,640,l),
(66,640,l),
(36,282,l),
(116,281,l),
(122,325,o),
(148,350,o),
(210,350,cs),
(277,350,o),
(305,312,o),
(305,258,cs),
(305,122,ls),
(305,68,o),
(277,40,o),
(210,40,cs),
(143,40,o),
(115,68,o),
(115,122,cs),
(115,155,l),
(115,155,o),
(97,155,o),
(75,155,cs),
(35,155,l),
(35,122,ls),
(35,29,o),
(104,-40,o),
(210,-40,cs)
);
}
);
width = 420;
}
);
metricLeft = "ca-tamil";
metricRight = "ca-tamil";
unicode = 53;
},
{
glyphname = six;
layers = (
{
layerId = "F56F9D2B-A44F-43C6-93D8-497EB6405965";
shapes = (
{
closed = 1;
nodes = (
(322,-40,o),
(405,43,o),
(405,153,cs),
(405,187,ls),
(405,297,o),
(322,380,o),
(230,380,cs),
(181,380,o),
(134,362,o),
(115,317,c),
(115,447,ls),
(115,528,o),
(157,570,o),
(220,570,cs),
(283,570,o),
(325,528,o),
(325,447,c),
(405,447,l),
(405,557,o),
(322,640,o),
(220,640,cs),
(118,640,o),
(35,557,o),
(35,447,cs),
(35,153,ls),
(35,43,o),
(118,-40,o),
(220,-40,cs)
);
},
{
closed = 1;
nodes = (
(157,40,o),
(115,82,o),
(115,153,cs),
(115,187,ls),
(115,258,o),
(157,300,o),
(220,300,cs),
(283,300,o),
(325,258,o),
(325,187,cs),
(325,153,ls),
(325,82,o),
(283,40,o),
(220,40,cs)
);
}
);
width = 440;
}
);
metricLeft = "ca-tamil";
metricRight = "ca-tamil";
unicode = 54;
},
{
glyphname = seven;
layers = (
{
layerId = "F56F9D2B-A44F-43C6-93D8-497EB6405965";
shapes = (
{
closed = 1;
nodes = (
(110,-40,l),
(110,-39,l),
(478,640,l),
(35,640,l),
(35,470,l),
(115,470,l),
(115,560,l),
(342,560,l),
(40,0,l)
);
}
);
width = 493;
}
);
metricLeft = "ca-tamil";
unicode = 55;
},
{
glyphname = eight;
layers = (
{
layerId = "F56F9D2B-A44F-43C6-93D8-497EB6405965";
shapes = (
{
closed = 1;
nodes = (
(113,640,o),
(35,569,o),
(35,450,cs),
(35,366,o),
(65,320,o),
(110,300,c),
(65,280,o),
(35,224,o),
(35,145,cs),
(35,22,o),
(108,-40,o),
(225,-40,cs),
(342,-40,o),
(415,22,o),
(415,145,cs),
(415,224,o),
(385,280,o),
(340,300,c),
(385,320,o),
(415,366,o),
(415,450,cs),
(415,569,o),
(337,640,o),
(225,640,cs)
);
},
{
closed = 1;
nodes = (
(293,570,o),
(335,525,o),
(335,450,cs),
(335,370,o),
(287,340,o),
(225,340,cs),
(163,340,o),
(115,370,o),
(115,450,cs),
(115,525,o),
(157,570,o),
(225,570,cs)
);
},
{
closed = 1;
nodes = (
(293,260,o),
(335,225,o),
(335,145,cs),
(335,65,o),
(293,30,o),
(225,30,cs),
(157,30,o),
(115,65,o),
(115,145,cs),
(115,225,o),
(157,260,o),
(225,260,cs)
);
}
);
width = 450;
}
);
metricLeft = "ca-tamil";
metricRight = "ca-tamil";
unicode = 56;
},
{
glyphname = nine;
layers = (
{
layerId = "F56F9D2B-A44F-43C6-93D8-497EB6405965";
shapes = (
{
closed = 1;
nodes = (
(118,640,o),
(35,557,o),
(35,447,cs),
(35,413,ls),
(35,303,o),
(118,220,o),
(210,220,cs),
(259,220,o),
(306,238,o),
(325,283,c),
(325,153,ls),
(325,72,o),
(283,30,o),
(220,30,cs),
(157,30,o),
(115,72,o),
(115,153,c),
(35,153,l),
(35,43,o),
(118,-40,o),
(220,-40,cs),
(322,-40,o),
(405,43,o),
(405,153,cs),
(405,447,ls),
(405,557,o),
(322,640,o),
(220,640,cs)
);
},
{
closed = 1;
nodes = (
(283,560,o),
(325,518,o),
(325,447,cs),
(325,413,ls),
(325,342,o),
(283,300,o),
(220,300,cs),
(157,300,o),
(115,342,o),
(115,413,cs),
(115,447,ls),
(115,518,o),
(157,560,o),
(220,560,cs)
);
}
);
width = 440;
}
);
metricLeft = "ca-tamil";
metricRight = "ca-tamil";
unicode = 57;
},
{
glyphname = period;
layers = (
{
layerId = "F56F9D2B-A44F-43C6-93D8-497EB6405965";
shapes = (
{
closed = 1;
nodes = (
(140,-13,o),
(192,11,o),
(209,57,cs),
(226,103,o),
(201,156,o),
(155,173,cs),
(109,190,o),
(56,165,o),
(40,119,cs),
(23,73,o),
(47,20,o),
(93,4,cs)
);
},
{
closed = 1;
nodes = (
(101,68,o),
(95,84,o),
(99,97,cs),
(104,111,o),
(120,119,o),
(135,113,cs),
(147,108,o),
(155,93,o),
(149,79,cs),
(144,65,o),
(129,59,o),
(116,63,cs)
);
}
);
width = 249;
}
);
metricLeft = "ca-tamil";
metricRight = "ca-tamil";
unicode = 46;
},
{
glyphname = comma;
layers = (
{
layerId = "F56F9D2B-A44F-43C6-93D8-497EB6405965";
shapes = (
{
closed = 1;
nodes = (
(140,-13,o),
(192,11,o),
(209,57,cs),
(226,103,o),
(201,156,o),
(155,173,cs),
(109,190,o),
(56,165,o),
(40,119,cs),
(23,73,o),
(47,20,o),
(93,4,cs)
);
},
{
closed = 1;
nodes = (
(104,111,o),
(120,119,o),
(135,113,cs),
(147,108,o),
(155,93,o),
(149,79,cs),
(144,65,o),
(129,59,o),
(116,63,cs),
(101,68,o),
(95,84,o),
(99,97,cs)
);
},
{
closed = 1;
nodes = (
(125,30,l),
(92,-60,l),
(158,-84,l),
(209,57,l),
(172,71,l)
);
}
);
width = 249;
}
);
metricLeft = "ca-tamil";
metricRight = "ca-tamil";
unicode = 44;
},
{
glyphname = colon;
layers = (
{
layerId = "F56F9D2B-A44F-43C6-93D8-497EB6405965";
shapes = (
{
closed = 1;
nodes = (
(140,308,o),
(192,332,o),
(209,378,cs),
(226,424,o),
(201,477,o),
(155,494,cs),
(109,511,o),
(56,486,o),
(40,440,cs),
(23,394,o),
(47,341,o),
(93,325,cs)
);
},
{
closed = 1;
nodes = (
(101,389,o),
(95,405,o),
(99,418,cs),
(104,432,o),
(120,440,o),
(135,434,cs),
(147,429,o),
(155,414,o),
(149,400,cs),
(144,386,o),
(129,380,o),
(116,384,cs)
);
},
{
closed = 1;
nodes = (
(140,-13,o),
(192,11,o),
(209,57,cs),
(226,103,o),
(201,156,o),
(155,173,cs),
(109,190,o),
(56,165,o),
(40,119,cs),
(23,73,o),
(47,20,o),
(93,4,cs)
);
},
{
closed = 1;
nodes = (
(104,111,o),
(120,119,o),
(135,113,cs),
(147,108,o),
(155,93,o),
(149,79,cs),
(144,65,o),
(129,59,o),
(116,63,cs),
(101,68,o),
(95,84,o),
(99,97,cs)
);
}
);
width = 249;
}
);
metricLeft = "ca-tamil";
metricRight = "ca-tamil";
unicode = 58;
},
{
glyphname = semicolon;
layers = (
{
layerId = "F56F9D2B-A44F-43C6-93D8-497EB6405965";
shapes = (
{
closed = 1;
nodes = (
(140,308,o),
(192,332,o),
(209,378,cs),
(226,424,o),
(201,477,o),
(155,494,cs),
(109,511,o),
(56,486,o),
(40,440,cs),
(23,394,o),
(47,341,o),
(93,325,cs)
);
},
{
closed = 1;
nodes = (
(101,389,o),
(95,405,o),
(99,418,cs),
(104,432,o),
(120,440,o),
(135,434,cs),
(147,429,o),
(155,414,o),
(149,400,cs),
(144,386,o),
(129,380,o),
(116,384,cs)
);
},
{
closed = 1;
nodes = (
(140,-13,o),
(192,11,o),
(209,57,cs),
(226,103,o),
(201,156,o),
(155,173,cs),
(109,190,o),
(56,165,o),
(40,119,cs),
(23,73,o),
(47,20,o),
(93,4,cs)
);
},
{
closed = 1;
nodes = (
(104,111,o),
(120,119,o),
(135,113,cs),
(147,108,o),
(155,93,o),
(149,79,cs),
(144,65,o),
(129,59,o),
(116,63,cs),
(101,68,o),
(95,84,o),
(99,97,cs)
);
},
{
closed = 1;
nodes = (
(125,30,l),
(92,-60,l),
(158,-84,l),
(209,57,l),
(172,71,l)
);
}
);
width = 249;
}
);
metricLeft = "ca-tamil";
metricRight = "ca-tamil";
unicode = 59;
},
{
glyphname = exclam;
layers = (
{
layerId = "F56F9D2B-A44F-43C6-93D8-497EB6405965";
shapes = (
{
closed = 1;
nodes = (
(130,170,l),
(130,640,l),
(60,640,l),
(60,170,l)
);
},
{
closed = 1;
nodes = (
(128,-40,o),
(155,-13,o),
(155,20,cs),
(155,53,o),
(128,80,o),
(95,80,cs),
(62,80,o),
(35,53,o),
(35,20,cs),
(35,-13,o),
(62,-40,o),
(95,-40,cs)
);
},
{
closed = 1;
nodes = (
(84,0,o),
(75,9,o),
(75,20,cs),
(75,31,o),
(84,40,o),
(96,40,cs),
(106,40,o),
(115,31,o),
(115,20,cs),
(115,9,o),
(106,0,o),
(96,0,c)
);
}
);
width = 190;
}
);
metricLeft = "ca-tamil";
metricRight = "ca-tamil";
unicode = 33;
},
{
glyphname = question;
layers = (
{
layerId = "F56F9D2B-A44F-43C6-93D8-497EB6405965";
shapes = (
{
closed = 1;
nodes = (
(245,220,l),
(245,237,o),
(246,253,o),
(258,260,cs),
(277,272,o),
(299,263,o),
(333,284,cs),
(362,302,o),
(385,341,o),
(385,422,cs),
(385,458,ls),
(385,551,o),
(316,640,o),
(210,640,cs),
(104,640,o),
(35,551,o),
(35,458,cs),
(35,395,l),
(115,395,l),
(115,458,ls),
(115,512,o),
(143,570,o),
(210,570,cs),
(277,570,o),
(305,512,o),
(305,458,cs),
(305,422,ls),
(305,244,o),
(175,383,o),
(175,220,c)
);
},
{
closed = 1;
nodes = (
(175,180,l),
(245,180,l),
(245,220,l),
(175,220,l)
);
},
{
closed = 1;
nodes = (
(243,-40,o),
(270,-13,o),
(270,20,cs),
(270,53,o),
(243,80,o),
(210,80,cs),
(177,80,o),
(150,53,o),
(150,20,cs),
(150,-13,o),
(177,-40,o),
(210,-40,cs)
);
},
{
closed = 1;
nodes = (
(199,0,o),
(190,9,o),
(190,20,cs),
(190,31,o),
(199,40,o),
(211,40,cs),
(221,40,o),
(230,31,o),
(230,20,cs),
(230,9,o),
(221,0,o),
(211,0,cs)
);
}
);
width = 420;
}
);
metricLeft = "ca-tamil";
metricRight = "ca-tamil";
unicode = 63;
},
{
glyphname = hyphen;
layers = (
{
layerId = "F56F9D2B-A44F-43C6-93D8-497EB6405965";
shapes = (
{
closed = 1;
nodes = (
(225,260,ls),
(225,260,o),
(225,278,o),
(225,300,cs),
(225,322,o),
(225,340,o),
(225,340,cs),
(35,340,ls),
(35,340,o),
(35,322,o),
(35,300,cs),
(35,278,o),
(35,260,o),
(35,260,cs)
);
}
);
width = 260;
}
);
metricLeft = "ca-tamil";
metricRight = "ca-tamil";
unicode = 45;
},
{
glyphname = quotesinglbase;
layers = (
{
layerId = "F56F9D2B-A44F-43C6-93D8-497EB6405965";
shapes = (
{
closed = 1;
nodes = (
(174,0,o),
(215,41,o),
(215,90,cs),
(215,139,o),
(174,180,o),
(125,180,cs),
(76,180,o),
(35,139,o),
(35,90,cs),
(35,41,o),
(76,0,o),
(125,0,cs)
);
},
{
closed = 1;
nodes = (
(109,60,o),
(95,74,o),
(95,90,cs),
(95,107,o),
(109,120,o),
(127,120,cs),
(142,120,o),
(155,107,o),
(155,90,cs),
(155,74,o),
(142,60,o),
(127,60,cs)
);
},
{
closed = 1;
nodes = (
(145,-60,l),
(215,-60,l),
(215,90,l),
(145,50,l)
);
}
);
width = 250;
}
);
metricLeft = "ca-tamil";
metricRight = "ca-tamil";
unicode = 8218;
},
{
glyphname = quotedblbase;
layers = (
{
layerId = "F56F9D2B-A44F-43C6-93D8-497EB6405965";
shapes = (
{
closed = 1;
nodes = (
(174,0,o),
(215,41,o),
(215,90,cs),
(215,139,o),
(174,180,o),
(125,180,cs),
(76,180,o),
(35,139,o),
(35,90,cs),
(35,41,o),
(76,0,o),
(125,0,cs)
);
},
{
closed = 1;
nodes = (
(109,60,o),
(95,74,o),
(95,90,cs),
(95,107,o),
(109,120,o),
(127,120,cs),
(142,120,o),
(155,107,o),
(155,90,cs),
(155,74,o),
(142,60,o),
(127,60,cs)
);
},
{
closed = 1;
nodes = (
(145,-60,l),
(215,-60,l),
(215,90,l),
(145,60,l)
);
},
{
closed = 1;
nodes = (
(374,0,o),
(415,41,o),
(415,90,cs),
(415,139,o),
(374,180,o),
(325,180,cs),
(276,180,o),
(235,139,o),
(235,90,cs),
(235,41,o),
(276,0,o),
(325,0,cs)
);
},
{
closed = 1;
nodes = (
(309,60,o),
(295,74,o),
(295,90,cs),
(295,107,o),
(309,120,o),
(327,120,cs),
(342,120,o),
(355,107,o),
(355,90,cs),
(355,74,o),
(342,60,o),
(327,60,cs)
);
},
{
closed = 1;
nodes = (
(345,-60,l),
(415,-60,l),
(415,90,l),
(345,60,l)
);
}
);
width = 450;
}
);
metricLeft = "ca-tamil";
metricRight = "ca-tamil";
unicode = 8222;
},
{
glyphname = quotedblleft;
layers = (
{
layerId = "F56F9D2B-A44F-43C6-93D8-497EB6405965";
shapes = (
{
closed = 1;
nodes = (
(276,800,o),
(235,759,o),
(235,710,cs),
(235,661,o),
(276,620,o),
(325,620,cs),
(374,620,o),
(415,661,o),
(415,710,cs),
(415,759,o),
(374,800,o),
(325,800,cs)
);
},
{
closed = 1;
nodes = (
(342,740,o),
(355,727,o),
(355,710,cs),
(355,694,o),
(342,680,o),
(324,680,cs),
(309,680,o),
(295,694,o),
(295,710,cs),
(295,727,o),
(309,740,o),
(324,740,cs)
);
},
{
closed = 1;
nodes = (
(305,860,l),
(235,860,l),
(235,710,l),
(305,750,l)
);
},
{
closed = 1;
nodes = (
(76,800,o),
(35,759,o),
(35,710,cs),
(35,661,o),
(76,620,o),
(125,620,cs),
(174,620,o),
(215,661,o),
(215,710,cs),
(215,759,o),
(174,800,o),
(125,800,cs)
);
},
{
closed = 1;
nodes = (
(142,740,o),
(155,727,o),
(155,710,cs),
(155,694,o),
(142,680,o),
(124,680,cs),
(109,680,o),
(95,694,o),
(95,710,cs),
(95,727,o),
(109,740,o),
(124,740,cs)
);
},
{
closed = 1;
nodes = (
(105,860,l),
(35,860,l),
(35,710,l),
(105,750,l)
);
}
);
width = 450;
}
);
metricLeft = "ca-tamil";
metricRight = "ca-tamil";
unicode = 8220;
},
{
glyphname = quotedblright;
layers = (
{
layerId = "F56F9D2B-A44F-43C6-93D8-497EB6405965";
shapes = (
{
closed = 1;
nodes = (
(174,680,o),
(215,721,o),
(215,770,cs),
(215,819,o),
(174,860,o),
(125,860,cs),
(76,860,o),
(35,819,o),
(35,770,cs),
(35,721,o),
(76,680,o),
(125,680,cs)
);
},
{
closed = 1;
nodes = (
(109,740,o),
(95,754,o),
(95,770,cs),
(95,787,o),
(109,800,o),
(127,800,cs),
(142,800,o),
(155,787,o),
(155,770,cs),
(155,754,o),
(142,740,o),
(127,740,cs)
);
},
{
closed = 1;
nodes = (
(145,620,l),
(215,620,l),
(215,770,l),
(145,740,l)
);
},
{
closed = 1;
nodes = (
(374,680,o),
(415,721,o),
(415,770,cs),
(415,819,o),
(374,860,o),
(325,860,cs),
(276,860,o),
(235,819,o),
(235,770,cs),
(235,721,o),
(276,680,o),
(325,680,cs)
);
},
{
closed = 1;
nodes = (
(309,740,o),
(295,754,o),
(295,770,cs),
(295,787,o),
(309,800,o),
(327,800,cs),
(342,800,o),
(355,787,o),
(355,770,cs),
(355,754,o),
(342,740,o),
(327,740,cs)
);
},
{
closed = 1;
nodes = (
(345,620,l),
(415,620,l),
(415,770,l),
(345,740,l)
);
}
);
width = 450;
}
);
metricLeft = "ca-tamil";
metricRight = "ca-tamil";
unicode = 8221;
},
{
glyphname = quoteleft;
layers = (
{
layerId = "F56F9D2B-A44F-43C6-93D8-497EB6405965";
shapes = (
{
closed = 1;
nodes = (
(76,800,o),
(35,759,o),
(35,710,cs),
(35,661,o),
(76,620,o),
(125,620,cs),
(174,620,o),
(215,661,o),
(215,710,cs),
(215,759,o),
(174,800,o),
(125,800,cs)
);
},
{
closed = 1;
nodes = (
(142,740,o),
(155,727,o),
(155,710,cs),
(155,694,o),
(142,680,o),
(124,680,cs),
(109,680,o),
(95,694,o),
(95,710,cs),
(95,727,o),
(109,740,o),
(124,740,cs)
);
},
{
closed = 1;
nodes = (
(105,860,l),
(35,860,l),
(35,710,l),
(105,740,l)
);
}
);
width = 250;
}
);
metricLeft = "ca-tamil";
metricRight = "ca-tamil";
unicode = 8216;
},
{
glyphname = quoteright;
layers = (
{
anchors = (
{
name = _top;
pos = (125,600);
}
);
layerId = "F56F9D2B-A44F-43C6-93D8-497EB6405965";
shapes = (
{
closed = 1;
nodes = (
(174,680,o),
(215,721,o),
(215,770,cs),
(215,819,o),
(174,860,o),
(125,860,cs),
(76,860,o),
(35,819,o),
(35,770,cs),
(35,721,o),
(76,680,o),
(125,680,cs)
);
},
{
closed = 1;
nodes = (
(109,740,o),
(95,754,o),
(95,770,cs),
(95,787,o),
(109,800,o),
(127,800,cs),
(142,800,o),
(155,787,o),
(155,770,cs),
(155,754,o),
(142,740,o),
(127,740,cs)
);
},
{
closed = 1;
nodes = (
(145,620,l),
(215,620,l),
(215,770,l),
(145,740,l)
);
}
);
width = 250;
}
);
metricLeft = "ca-tamil";
metricRight = "ca-tamil";
unicode = 8217;
},
{
glyphname = quotedbl;
layers = (
{
layerId = "F56F9D2B-A44F-43C6-93D8-497EB6405965";
shapes = (
{
closed = 1;
nodes = (
(174,680,o),
(215,721,o),
(215,770,cs),
(215,819,o),
(174,860,o),
(125,860,cs),
(76,860,o),
(35,819,o),
(35,770,cs),
(35,721,o),
(76,680,o),
(125,680,cs)
);
},
{
closed = 1;
nodes = (
(109,740,o),
(95,754,o),
(95,770,cs),
(95,787,o),
(109,800,o),
(127,800,cs),
(142,800,o),
(155,787,o),
(155,770,cs),
(155,754,o),
(142,740,o),
(127,740,cs)
);
},
{
closed = 1;
nodes = (
(145,620,l),
(215,620,l),
(215,770,l),
(145,740,l)
);
},
{
closed = 1;
nodes = (
(374,680,o),
(415,721,o),
(415,770,cs),
(415,819,o),
(374,860,o),
(325,860,cs),
(276,860,o),
(235,819,o),
(235,770,cs),
(235,721,o),
(276,680,o),
(325,680,cs)
);
},
{
closed = 1;
nodes = (
(309,740,o),
(295,754,o),
(295,770,cs),
(295,787,o),
(309,800,o),
(327,800,cs),
(342,800,o),
(355,787,o),
(355,770,cs),
(355,754,o),
(342,740,o),
(327,740,cs)
);
},
{
closed = 1;
nodes = (
(345,620,l),
(415,620,l),
(415,770,l),
(345,740,l)
);
}
);
width = 450;
}
);
metricLeft = "ca-tamil";
metricRight = "ca-tamil";
unicode = 34;
},
{
glyphname = quotesingle;
layers = (
{
layerId = "F56F9D2B-A44F-43C6-93D8-497EB6405965";
shapes = (
{
closed = 1;
nodes = (
(174,680,o),
(215,721,o),
(215,770,cs),
(215,819,o),
(174,860,o),
(125,860,cs),
(76,860,o),
(35,819,o),
(35,770,cs),
(35,721,o),
(76,680,o),
(125,680,cs)
);
},
{
closed = 1;
nodes = (
(109,740,o),
(95,754,o),
(95,770,cs),
(95,787,o),
(109,800,o),
(127,800,cs),
(142,800,o),
(155,787,o),
(155,770,cs),
(155,754,o),
(142,740,o),
(127,740,cs)
);
},
{
closed = 1;
nodes = (
(145,620,l),
(215,620,l),
(215,770,l),
(145,740,l)
);
}
);
width = 250;
}
);
metricLeft = "ca-tamil";
metricRight = "ca-tamil";
unicode = 39;
},
{
glyphname = "iiMatra-tamil";
layers = (
{
anchors = (
{
name = _imatra;
pos = (160,570);
},
{
name = top;
pos = (162,800);
}
);
layerId = "F56F9D2B-A44F-43C6-93D8-497EB6405965";
shapes = (
{
closed = 1;
nodes = (
(160,610,l),
(100,610,o),
(80,653,o),
(80,693,cs),
(80,743,o),
(109,779,o),
(151,787,c),
(135,778,o),
(120,754,o),
(120,728,cs),
(120,679,o),
(161,638,o),
(210,638,cs),
(259,638,o),
(300,679,o),
(300,728,cs),
(300,805,o),
(234,840,o),
(173,840,cs),
(77,840,o),
(10,777,o),
(10,688,cs),
(10,607,o),
(70,550,o),
(160,550,c)
);
},
{
closed = 1;
nodes = (
(180,745,o),
(194,758,o),
(212,758,cs),
(227,758,o),
(240,745,o),
(240,728,cs),
(240,712,o),
(227,698,o),
(212,698,cs),
(194,698,o),
(180,712,o),
(180,728,cs)
);
}
);
width = 310;
}
);
unicode = 3008;
},
{
glyphname = "pulli-tamil";
layers = (
{
anchors = (
{
name = _top;
pos = (90,600);
}
);
layerId = "F56F9D2B-A44F-43C6-93D8-497EB6405965";
shapes = (
{
closed = 1;
nodes = (
(139,680,o),
(180,721,o),
(180,770,cs),
(180,819,o),
(139,860,o),
(90,860,cs),
(41,860,o),
(0,819,o),
(0,770,cs),
(0,721,o),
(41,680,o),
(90,680,cs)
);
},
{
closed = 1;
nodes = (
(74,740,o),
(60,754,o),
(60,770,cs),
(60,787,o),
(74,800,o),
(92,800,cs),
(107,800,o),
(120,787,o),
(120,770,cs),
(120,754,o),
(107,740,o),
(92,740,cs)
);
}
);
width = 180;
}
);
unicode = 3021;
},
{
glyphname = "iiMatra-tamil.001";
layers = (
{
anchors = (
{
name = _imatra;
pos = (140,500);
},
{
name = top;
pos = (83,800);
}
);
layerId = "F56F9D2B-A44F-43C6-93D8-497EB6405965";
shapes = (
{
closed = 1;
nodes = (
(140,540,l),
(80,540,o),
(0,573,o),
(0,668,cs),
(0,733,o),
(33,766,o),
(73,780,c),
(58,769,o),
(50,748,o),
(50,728,cs),
(50,679,o),
(91,638,o),
(140,638,cs),
(189,638,o),
(230,679,o),
(230,728,cs),
(230,805,o),
(174,840,o),
(93,840,cs),
(12,840,o),
(-80,784,o),
(-80,658,cs),
(-80,547,o),
(13,480,o),
(140,480,c)
);
},
{
closed = 1;
nodes = (
(110,745,o),
(124,758,o),
(140,758,cs),
(157,758,o),
(170,745,o),
(170,728,cs),
(170,712,o),
(157,698,o),
(140,698,cs),
(124,698,o),
(110,712,o),
(110,728,cs)
);
}
);
width = 245;
}
);
},
{
glyphname = "aaMatra-tamil";
layers = (
{
layerId = "F56F9D2B-A44F-43C6-93D8-497EB6405965";
shapes = (
{
closed = 1;
nodes = (
(35,-40,o),
(115,-40,o),
(115,-40,cs),
(115,560,l),
(235,560,l),
(235,-40,l),
(315,-40,l),
(315,560,l),
(415,560,l),
(415,640,l),
(35,640,l),
(35,-40,l)
);
}
);
width = 425;
}
);
metricLeft = "ca-tamil";
unicode = 3006;
},
{
glyphname = "iMatra-tamil";
layers = (
{
anchors = (
{
name = _imatra;
pos = (-152,600);
}
);
layerId = "F56F9D2B-A44F-43C6-93D8-497EB6405965";
shapes = (
{
closed = 1;
nodes = (
(20,-40,o),
(100,-40,o),
(100,-40,cs),
(100,588,ls),
(100,741,o),
(25,840,o),
(-110,840,cs),
(-185,840,o),
(-280,783,o),
(-280,688,cs),
(-280,618,o),
(-229,580,o),
(-150,580,c),
(-150,640,l),
(-189,640,o),
(-210,656,o),
(-210,688,cs),
(-210,734,o),
(-161,760,o),
(-110,760,cs),
(-17,760,o),
(20,706,o),
(20,588,cs),
(20,-40,ls)
);
}
);
width = 165;
}
);
unicode = 3007;
},
{
glyphname = "uMatra-tamil";
layers = (
{
layerId = "F56F9D2B-A44F-43C6-93D8-497EB6405965";
shapes = (
{
closed = 1;
nodes = (
(240,440,o),
(300,501,o),
(300,582,c),
(300,640,l),
(-170,640,l),
(-170,580,l),
(22,580,l),
(22,501,o),
(87,440,o),
(160,440,cs)
);
},
{
closed = 1;
nodes = (
(127,520,o),
(102,543,o),
(102,580,c),
(218,580,l),
(218,543,o),
(193,520,o),
(160,520,cs)
);
}
);
width = 335;
}
);
metricRight = "ca-tamil";
unicode = 3009;
},
{
glyphname = "uuMatra-tamil";
layers = (
{
layerId = "F56F9D2B-A44F-43C6-93D8-497EB6405965";
shapes = (
{
closed = 1;
nodes = (
(238,408,o),
(238,328,o),
(238,328,cs),
(377,330,o),
(465,423,o),
(465,568,cs),
(465,703,o),
(384,787,o),
(256,787,cs),
(131,787,o),
(68,709,o),
(51,640,c),
(134,640,l),
(148,677,o),
(183,717,o),
(256,717,cs),
(335,717,o),
(385,660,o),
(385,568,cs),
(385,472,o),
(328,410,o),
(238,408,cs)
);
},
{
closed = 1;
nodes = (
(265,440,o),
(325,501,o),
(325,582,c),
(325,640,l),
(-145,640,l),
(-145,580,l),
(47,580,l),
(47,501,o),
(112,440,o),
(185,440,cs)
);
},
{
closed = 1;
nodes = (
(152,520,o),
(127,543,o),
(127,580,c),
(243,580,l),
(243,543,o),
(218,520,o),
(185,520,cs)
);
}
);
width = 500;
}
);
metricRight = "ca-tamil";
unicode = 3010;
},
{
glyphname = "eMatra-tamil";
layers = (
{
layerId = "F56F9D2B-A44F-43C6-93D8-497EB6405965";
shapes = (
{
closed = 1;
nodes = (
(95,384,l),
(95,516,ls),
(95,605,o),
(150,670,o),
(239,670,cs),
(340,670,o),
(385,605,o),
(385,516,cs),
(385,-40,l),
(465,-40,l),
(465,516,ls),
(465,644,o),
(369,740,o),
(261,740,cs),
(259,740,ls),
(131,740,o),
(35,644,o),
(35,516,cs),
(35,384,l)
);
},
{
closed = 1;
nodes = (
(215,-40,o),
(255,7,o),
(255,82,cs),
(255,108,ls),
(255,193,o),
(220,230,o),
(150,230,cs),
(84,230,o),
(45,166,o),
(45,98,cs),
(45,82,ls),
(45,7,o),
(85,-40,o),
(150,-40,cs)
);
},
{
closed = 1;
nodes = (
(115,20,o),
(105,40,o),
(105,72,cs),
(105,118,ls),
(105,150,o),
(115,170,o),
(140,170,cs),
(165,170,o),
(175,150,o),
(175,118,cs),
(175,72,ls),
(175,40,o),
(166,20,o),
(140,20,cs)
);
},
{
closed = 1;
nodes = (
(35,386,l),
(35,104,ls),
(35,40,o),
(56,-36,o),
(150,-40,c),
(150,7,l),
(56,7,o),
(95,73,o),
(95,152,cs),
(95,386,l)
);
}
);
width = 505;
}
);
metricLeft = "ca-tamil";
unicode = 3014;
},
{
glyphname = "eeMatra-tamil";
layers = (
{
layerId = "F56F9D2B-A44F-43C6-93D8-497EB6405965";
shapes = (
{
closed = 1;
nodes = (
(392,-36,o),
(435,14,o),
(435,86,cs),
(435,102,ls),
(435,197,o),
(400,244,o),
(330,244,cs),
(263,244,o),
(225,200,o),
(225,122,cs),
(225,86,ls),
(225,62,o),
(230,40,o),
(237,22,c),
(149,71,o),
(115,179,o),
(115,340,cs),
(115,518,o),
(149,633,o),
(237,682,c),
(230,664,o),
(225,642,o),
(225,618,cs),
(225,582,ls),
(225,504,o),
(263,460,o),
(330,460,cs),
(400,460,o),
(435,507,o),
(435,602,cs),
(435,618,ls),
(435,690,o),
(392,740,o),
(300,740,cs),
(134,740,o),
(35,595,o),
(35,340,cs),
(35,103,o),
(134,-36,o),
(300,-36,cs)
);
},
{
closed = 1;
nodes = (
(305,132,ls),
(305,164,o),
(315,184,o),
(340,184,cs),
(365,184,o),
(375,164,o),
(375,132,cs),
(375,76,ls),
(375,44,o),
(365,24,o),
(340,24,cs),
(314,24,o),
(305,44,o),
(305,76,cs)
);
},
{
closed = 1;
nodes = (
(305,628,ls),
(305,660,o),
(314,680,o),
(340,680,cs),
(365,680,o),
(375,660,o),
(375,628,cs),
(375,572,ls),
(375,540,o),
(365,520,o),
(340,520,cs),
(315,520,o),
(305,540,o),
(305,572,cs)
);
}
);
width = 450;
}
);
metricLeft = "ca-tamil";
unicode = 3015;
},
{
glyphname = "aiMatra-tamil";
layers = (
{
layerId = "F56F9D2B-A44F-43C6-93D8-497EB6405965";
shapes = (
{
closed = 1;
nodes = (
(348,560,l),
(316,560,l),
(310,545,o),
(307,529,o),
(307,511,cs),
(307,89,ls),
(307,16,o),
(362,-40,o),
(434,-40,cs),
(506,-40,o),
(562,16,o),
(562,89,cs),
(562,511,ls),
(562,528,o),
(559,545,o),
(553,560,c),
(580,560,ls),
(634,560,o),
(662,532,o),
(662,478,cs),
(662,102,ls),
(662,60,o),
(642,40,o),
(600,40,cs),
(580,40,l),
(580,-40,l),
(600,-40,ls),
(681,-40,o),
(742,21,o),
(742,102,cs),
(742,478,ls),
(742,571,o),
(673,640,o),
(580,640,cs),
(348,640,l)
);
},
{
closed = 1;
nodes = (
(399,20,o),
(387,42,o),
(387,109,cs),
(387,491,ls),
(387,539,o),
(402,560,o),
(436,560,cs),
(468,560,o),
(482,539,o),
(482,491,cs),
(482,109,ls),
(482,42,o),
(470,20,o),
(434,20,cs)
);
},
{
closed = 1;
nodes = (
(180,14,l),
(101,14,o),
(105,62,o),
(105,102,cs),
(105,346,ls),
(105,506,o),
(179,560,o),
(299,560,cs),
(559,560,l),
(559,640,l),
(289,640,ls),
(131,640,o),
(35,544,o),
(35,346,cs),
(35,128,ls),
(35,19,o),
(101,-40,o),
(180,-40,c)
);
},
{
closed = 1;
nodes = (
(245,-40,o),
(285,7,o),
(285,82,cs),
(285,108,ls),
(285,193,o),
(250,230,o),
(180,230,cs),
(114,230,o),
(75,166,o),
(75,98,cs),
(75,82,ls),
(75,4,o),
(104,-40,o),
(180,-40,cs)
);
},
{
closed = 1;
nodes = (
(135,20,o),
(125,40,o),
(125,72,cs),
(125,118,ls),
(125,150,o),
(135,170,o),
(160,170,cs),
(185,170,o),
(195,150,o),
(195,118,cs),
(195,72,ls),
(195,40,o),
(186,20,o),
(160,20,cs)
);
}
);
width = 777;
}
);
metricLeft = "ca-tamil";
metricRight = "ca-tamil";
unicode = 3016;
},
{
glyphname = "auLength-tamil";
layers = (
{
anchors = (
{
name = imatra;
pos = (499,600);
},
{
name = top;
pos = (319,600);
}
);
layerId = "F56F9D2B-A44F-43C6-93D8-497EB6405965";
shapes = (
{
closed = 1;
nodes = (
(90,30,l),
(90,117,l),
(90,438,ls),
(90,520,o),
(124,560,o),
(194,560,cs),
(263,560,o),
(297,520,o),
(297,438,cs),
(297,190,l),
(377,190,l),
(377,560,l),
(487,560,l),
(487,-40,l),
(567,-40,l),
(567,560,l),
(637,560,l),
(637,640,l),
(297,640,l),
(297,580,l),
(280,620,o),
(243,640,o),
(184,640,cs),
(91,640,o),
(30,580,o),
(30,478,cs),
(30,104,ls),
(30,49,o),
(54,-40,o),
(145,-40,c)
);
},
{
closed = 1;
nodes = (
(210,-40,o),
(250,7,o),
(250,82,cs),
(250,108,ls),
(250,193,o),
(215,230,o),
(145,230,cs),
(79,230,o),
(40,166,o),
(40,98,cs),
(40,82,ls),
(40,7,o),
(80,-40,o),
(145,-40,cs)
);
},
{
closed = 1;
nodes = (
(110,20,o),
(100,40,o),
(100,72,cs),
(100,118,ls),
(100,150,o),
(110,170,o),
(135,170,cs),
(160,170,o),
(170,150,o),
(170,118,cs),
(170,72,ls),
(170,40,o),
(161,20,o),
(135,20,cs)
);
}
);
width = 647;
}
);
unicode = 3031;
},
{
glyphname = "iMatra-tamil.001";
layers = (
{
anchors = (
{
name = _imatra;
pos = (-50,550);
}
);
layerId = "F56F9D2B-A44F-43C6-93D8-497EB6405965";
shapes = (
{
closed = 1;
nodes = (
(90,-40,l),
(90,628,ls),
(90,763,o),
(13,820,o),
(-70,820,cs),
(-133,820,o),
(-200,763,o),
(-200,680,cs),
(-200,588,o),
(-142,530,o),
(-50,530,c),
(-50,590,l),
(-99,590,o),
(-130,621,o),
(-130,670,cs),
(-130,703,o),
(-113,740,o),
(-70,740,cs),
(-25,740,o),
(10,700,o),
(10,628,cs),
(10,-40,l)
);
}
);
width = 115;
}
);
},
{
glyphname = "iMatra-tamil.002";
layers = (
{
anchors = (
{
name = _imatra;
pos = (-70,600);
}
);
layerId = "F56F9D2B-A44F-43C6-93D8-497EB6405965";
shapes = (
{
closed = 1;
nodes = (
(170,-40,l),
(170,588,ls),
(170,763,o),
(68,840,o),
(-55,840,cs),
(-151,840,o),
(-230,781,o),
(-230,698,cs),
(-230,630,o),
(-183,580,o),
(-70,580,c),
(-70,640,l),
(-132,640,o),
(-160,653,o),
(-160,688,cs),
(-160,740,o),
(-108,760,o),
(-65,760,cs),
(29,760,o),
(90,724,o),
(90,588,cs),
(90,-40,l)
);
}
);
width = 150;
}
);
},
{
glyphname = "uMatra-tamil.001";
layers = (
{
layerId = "F56F9D2B-A44F-43C6-93D8-497EB6405965";
shapes = (
{
closed = 1;
nodes = (
(210,120,o),
(270,181,o),
(270,262,c),
(270,320,l),
(-200,320,l),
(-200,260,l),
(-8,260,l),
(-8,181,o),
(57,120,o),
(130,120,cs)
);
},
{
closed = 1;
nodes = (
(97,200,o),
(72,223,o),
(72,260,c),
(188,260,l),
(188,223,o),
(163,200,o),
(130,200,cs)
);
}
);
width = 305;
}
);
metricRight = "ca-tamil";
},
{
glyphname = "uuMatra-tamil.001";
layers = (
{
layerId = "F56F9D2B-A44F-43C6-93D8-497EB6405965";
shapes = (
{
closed = 1;
nodes = (
(183,88,o),
(183,8,o),
(183,8,cs),
(322,10,o),
(410,103,o),
(410,248,cs),
(410,383,o),
(329,467,o),
(201,467,cs),
(76,467,o),
(13,389,o),
(-4,320,c),
(79,320,l),
(93,357,o),
(128,397,o),
(201,397,cs),
(280,397,o),
(330,340,o),
(330,248,cs),
(330,147,o),
(277,90,o),
(183,88,cs)
);
},
{
closed = 1;
nodes = (
(210,120,o),
(270,181,o),
(270,262,c),
(270,320,l),
(-200,320,l),
(-200,260,l),
(-8,260,l),
(-8,181,o),
(57,120,o),
(130,120,cs)
);
},
{
closed = 1;
nodes = (
(97,200,o),
(72,223,o),
(72,260,c),
(188,260,l),
(188,223,o),
(163,200,o),
(130,200,cs)
);
}
